{"glyphs":{"0":{"ha":868,"x_min":0,"x_max":868,"o":"m 0 694 l 0 694 l 0 347 q 127 41 5 163 q 434 -87 250 -81 q 741 41 618 -81 q 868 347 863 163 l 868 347 l 868 694 q 741 1001 863 879 q 434 1128 618 1123 q 127 1001 250 1123 l 127 1001 l 127 1001 q 0 694 5 879 m 434 955 l 434 955 q 618 879 545 952 q 694 694 692 806 l 694 694 l 694 347 q 618 163 692 236 q 434 87 545 90 q 250 163 323 90 q 174 347 176 236 l 174 347 l 174 694 q 250 879 176 806 l 250 879 l 250 879 q 434 955 323 952 "},"1":{"ha":694,"x_min":-5,"x_max":694,"o":"m 434 1042 l 434 1042 l 434 87 l 434 87 l 608 87 q 670 62 646 87 q 694 0 694 38 q 670 -62 694 -38 q 608 -87 646 -87 l 347 -87 l 87 -87 q 24 -62 49 -87 q 0 0 0 -38 q 24 62 0 38 q 87 87 49 87 l 87 87 l 260 87 l 260 87 l 260 879 l 260 879 l 136 795 q 71 784 103 776 q 14 819 35 789 q 3 884 -5 852 q 38 941 8 920 l 38 941 l 298 1115 q 388 1118 342 1142 q 434 1042 431 1093 "},"2":{"ha":868,"x_min":-14,"x_max":868,"o":"m 388 955 l 388 955 q 543 890 480 952 q 608 735 605 827 q 543 578 605 643 l 543 578 l 24 62 q 5 -33 -14 19 q 87 -87 30 -84 l 87 -87 l 781 -87 q 844 -62 819 -87 q 868 0 868 -38 q 844 62 868 38 q 781 87 819 87 l 781 87 l 296 87 l 296 87 l 667 456 q 781 735 779 572 q 665 1012 776 903 q 388 1128 556 1123 q 109 1012 225 1126 l 109 1012 l 24 930 q 0 868 0 903 q 24 806 0 833 q 87 781 52 781 q 149 806 122 781 l 149 806 l 231 890 q 388 955 296 955 "},"3":{"ha":868,"x_min":-5,"x_max":868,"o":"m 0 1042 l 0 1042 q 24 979 0 1004 q 87 955 49 955 l 87 955 l 515 955 l 515 955 l 157 629 q 136 532 117 589 q 217 477 160 480 l 217 477 l 499 477 q 637 420 583 475 q 694 282 692 366 q 637 144 692 198 q 499 87 583 90 l 499 87 l 285 87 q 171 157 206 90 l 171 157 l 165 168 q 114 212 146 201 q 49 209 81 222 q 5 157 16 190 q 8 92 -5 125 l 8 92 l 14 81 q 127 -41 54 3 q 285 -87 198 -87 l 285 -87 l 499 -87 q 760 22 656 -84 q 868 282 865 125 q 760 543 865 439 q 499 651 656 648 l 499 651 l 439 651 l 439 651 l 798 977 q 819 1074 838 1017 q 738 1128 795 1126 l 738 1128 l 87 1128 q 24 1104 49 1128 l 24 1104 l 24 1104 q 0 1042 0 1080 "},"4":{"ha":1042,"x_min":-11,"x_max":1042,"o":"m 513 1004 l 513 1004 l 222 391 l 222 391 l 694 391 l 694 391 l 694 781 q 719 844 694 819 q 781 868 743 868 q 844 844 819 868 q 868 781 868 819 l 868 781 l 868 391 l 868 391 l 955 391 q 1017 366 993 391 q 1042 304 1042 342 q 1017 241 1042 266 q 955 217 993 217 l 955 217 l 868 217 l 868 217 l 868 0 q 844 -62 868 -38 q 781 -87 819 -87 q 719 -62 743 -87 q 694 0 694 -38 l 694 0 l 694 217 l 694 217 l 87 217 q 14 258 41 217 q 8 342 -11 298 l 8 342 l 355 1080 q 404 1123 372 1112 q 472 1120 437 1134 q 515 1072 505 1104 l 515 1072 l 515 1072 q 513 1004 526 1039 "},"5":{"ha":868,"x_min":-5,"x_max":868,"o":"m 90 1058 l 90 1058 l 0 581 q 19 507 -5 540 q 87 477 46 477 l 87 477 l 499 477 q 637 420 583 475 q 694 282 692 366 q 637 144 692 198 q 499 87 583 90 l 499 87 l 274 87 q 176 146 206 90 l 176 146 l 165 168 q 114 212 146 201 q 49 209 81 222 q 5 157 16 190 q 8 92 -5 125 l 8 92 l 22 68 q 125 -43 57 -3 q 274 -87 190 -87 l 274 -87 l 499 -87 q 760 22 656 -84 q 868 282 865 125 q 760 543 865 439 q 499 651 656 648 l 499 651 l 190 651 l 190 651 l 247 955 l 247 955 l 694 955 q 757 979 732 955 q 781 1042 781 1004 q 757 1104 781 1080 q 694 1128 732 1128 l 694 1128 l 174 1128 q 90 1058 106 1123 "},"6":{"ha":868,"x_min":0,"x_max":868,"o":"m 629 985 l 629 985 l 458 781 q 749 646 632 768 q 868 347 863 526 q 741 41 863 163 q 434 -87 618 -81 q 127 41 250 -81 q 0 347 5 163 l 0 347 l 0 347 q 0 355 0 353 q 0 361 0 358 q 106 632 5 515 l 106 632 l 499 1099 q 556 1128 524 1126 q 621 1107 591 1131 q 651 1050 648 1082 l 651 1050 l 651 1050 q 629 985 654 1015 m 694 347 l 694 347 q 659 477 694 418 q 564 572 624 537 q 434 608 502 608 q 304 572 366 608 q 209 477 244 537 q 174 347 174 418 q 209 217 174 277 q 304 122 244 157 q 434 87 366 87 q 564 122 502 87 q 659 217 624 157 l 659 217 l 659 217 q 694 347 694 277 "},"7":{"ha":868,"x_min":0,"x_max":879,"o":"m 0 1042 l 0 1042 q 24 979 0 1004 q 87 955 49 955 l 87 955 l 629 955 l 629 955 l 98 43 q 90 -22 81 11 q 130 -76 98 -57 q 195 -84 163 -92 q 250 -43 228 -76 l 250 -43 l 857 998 q 857 1085 879 1042 q 781 1128 830 1126 l 781 1128 l 87 1128 q 24 1104 49 1128 l 24 1104 l 24 1104 q 0 1042 0 1080 "},"8":{"ha":868,"x_min":0,"x_max":868,"o":"m 825 781 l 825 781 q 727 540 822 637 q 830 420 792 491 q 868 260 868 347 q 768 14 865 114 q 521 -87 667 -84 l 521 -87 l 347 -87 q 100 14 201 -84 q 0 260 3 114 q 38 420 0 347 q 141 540 76 491 q 43 781 46 637 q 144 1028 46 928 q 391 1128 244 1126 l 391 1128 l 477 1128 q 724 1028 624 1126 l 724 1028 l 724 1028 q 825 781 822 928 m 477 434 l 477 434 q 477 434 477 434 q 477 434 477 434 l 477 434 l 391 434 q 391 434 391 434 q 391 434 391 434 l 391 434 l 347 434 q 225 382 274 431 q 174 260 176 334 q 225 138 176 187 q 347 87 274 90 l 347 87 l 521 87 q 643 138 594 90 q 694 260 692 187 q 643 382 692 334 q 521 434 594 431 l 477 434 l 521 434 l 477 434 m 477 608 l 477 608 q 600 659 551 610 q 651 781 648 708 q 600 903 648 854 q 477 955 551 952 l 477 955 l 391 955 q 269 903 317 952 q 217 781 220 854 q 269 659 220 708 q 391 608 317 610 q 391 608 391 608 q 391 608 391 608 l 391 608 l 477 608 q 477 608 477 608 l 477 608 l 477 608 q 477 608 477 608 "},"9":{"ha":868,"x_min":0,"x_max":868,"o":"m 174 694 l 174 694 q 209 825 174 765 q 304 920 244 884 q 434 955 366 955 q 564 920 502 955 q 659 825 624 884 q 694 694 694 765 q 659 564 694 624 q 564 469 624 505 q 434 434 502 434 q 304 469 366 434 q 209 564 244 505 l 209 564 l 209 564 q 174 694 174 624 m 412 260 l 410 260 l 236 57 q 217 -8 214 27 q 247 -65 220 -41 q 312 -87 277 -90 q 369 -57 345 -84 l 369 -57 l 762 410 q 868 673 860 524 q 868 694 868 684 q 741 1001 863 879 q 434 1128 618 1123 q 127 1001 250 1123 q 0 694 5 879 q 119 396 5 515 l 119 396 l 119 396 q 412 260 236 274 "},"!":{"ha":347,"x_min":52,"x_max":296,"o":"m 260 1042 l 260 1042 l 260 347 q 236 285 260 309 q 174 260 212 260 q 111 285 136 260 q 87 347 87 309 l 87 347 l 87 1042 q 111 1104 87 1080 q 174 1128 136 1128 q 236 1104 212 1128 l 236 1104 l 236 1104 q 260 1042 260 1080 m 174 -87 l 174 -87 q 79 -33 111 -84 q 79 76 52 22 q 174 130 111 127 q 269 76 236 127 q 269 -33 296 22 q 174 -87 236 -84 "},"❕":{"ha":347,"x_min":52,"x_max":296,"o":"m 260 1042 q 236 1104 260 1080 l 236 1104 l 236 1104 q 174 1128 212 1128 q 111 1104 136 1128 q 87 1042 87 1080 l 87 347 l 87 347 q 111 285 87 309 q 174 260 136 260 q 236 285 212 260 q 260 347 260 309 l 260 1042 l 260 1042 m 174 -87 q 269 -33 236 -84 q 269 76 296 22 q 174 130 236 127 q 79 76 111 127 q 79 -33 52 22 q 174 -87 111 -84 l 174 -87 "},"❗":{"ha":347,"x_min":52,"x_max":296,"o":"m 260 1042 l 260 1042 l 260 347 q 236 285 260 309 q 174 260 212 260 q 111 285 136 260 q 87 347 87 309 l 87 347 l 87 1042 q 111 1104 87 1080 q 174 1128 136 1128 q 236 1104 212 1128 l 236 1104 l 236 1104 q 260 1042 260 1080 m 174 -87 l 174 -87 q 79 -33 111 -84 q 79 76 52 22 q 174 130 111 127 q 269 76 236 127 q 269 -33 296 22 q 174 -87 236 -84 "},"":{"ha":347,"x_min":52,"x_max":296,"o":"m 260 1042 q 236 1104 260 1080 l 236 1104 l 236 1104 q 174 1128 212 1128 q 111 1104 136 1128 q 87 1042 87 1080 l 87 347 l 87 347 q 111 285 87 309 q 174 260 136 260 q 236 285 212 260 q 260 347 260 309 l 260 1042 l 260 1042 m 174 -87 q 269 -33 236 -84 q 269 76 296 22 q 174 130 236 127 q 79 76 111 127 q 79 -33 52 22 q 174 -87 111 -84 l 174 -87 "},"#":{"ha":1215,"x_min":0,"x_max":1215,"o":"m 491 1128 l 491 1128 q 426 1112 456 1131 q 391 1055 399 1093 l 391 1055 l 361 868 l 361 868 l 174 868 q 111 844 136 868 q 87 781 87 819 q 111 719 87 743 q 174 694 136 694 l 174 694 l 331 694 l 331 694 l 274 347 l 274 347 l 87 347 q 24 323 49 347 q 0 260 0 298 q 24 198 0 222 q 87 174 49 174 l 87 174 l 244 174 l 244 174 l 220 14 q 233 -52 214 -22 q 290 -87 255 -79 q 355 -71 326 -92 q 391 -14 382 -52 l 391 -14 l 420 174 l 420 174 l 678 174 l 678 174 l 654 14 q 667 -52 648 -22 q 724 -87 686 -79 q 789 -71 760 -90 q 825 -14 817 -52 l 825 -14 l 854 174 l 854 174 l 1042 174 q 1104 198 1080 174 q 1128 260 1128 222 q 1104 323 1128 298 q 1042 347 1080 347 l 1042 347 l 884 347 l 884 347 l 941 694 l 941 694 l 1128 694 q 1191 719 1166 694 q 1215 781 1215 743 q 1191 844 1215 819 q 1128 868 1166 868 l 1128 868 l 971 868 l 971 868 l 996 1028 q 982 1093 1001 1063 q 925 1128 963 1120 q 860 1112 890 1131 q 825 1055 833 1093 l 825 1055 l 795 868 l 795 868 l 537 868 l 537 868 l 564 1028 q 548 1093 567 1063 l 548 1093 l 548 1093 q 491 1128 529 1120 m 507 694 l 507 694 l 765 694 l 765 694 l 708 347 l 708 347 l 450 347 l 507 694 l 450 347 l 507 694 "},"":{"ha":1215,"x_min":0,"x_max":1215,"o":"m 491 1128 q 548 1093 529 1120 l 548 1093 l 548 1093 q 564 1028 567 1063 l 537 868 l 537 868 l 795 868 l 795 868 l 825 1055 l 825 1055 q 860 1112 833 1093 q 925 1128 890 1131 q 982 1093 963 1120 q 996 1028 1001 1063 l 971 868 l 971 868 l 1128 868 l 1128 868 q 1191 844 1166 868 q 1215 781 1215 819 q 1191 719 1215 743 q 1128 694 1166 694 l 941 694 l 941 694 l 884 347 l 884 347 l 1042 347 l 1042 347 q 1104 323 1080 347 q 1128 260 1128 298 q 1104 198 1128 222 q 1042 174 1080 174 l 854 174 l 854 174 l 825 -14 l 825 -14 q 789 -71 817 -52 q 724 -87 760 -90 q 667 -52 686 -79 q 654 14 648 -22 l 678 174 l 678 174 l 420 174 l 420 174 l 391 -14 l 391 -14 q 355 -71 382 -52 q 290 -87 326 -92 q 233 -52 255 -79 q 220 14 214 -22 l 244 174 l 244 174 l 87 174 l 87 174 q 24 198 49 174 q 0 260 0 222 q 24 323 0 298 q 87 347 49 347 l 274 347 l 274 347 l 331 694 l 331 694 l 174 694 l 174 694 q 111 719 136 694 q 87 781 87 743 q 111 844 87 819 q 174 868 136 868 l 361 868 l 361 868 l 391 1055 l 391 1055 q 426 1112 399 1093 q 491 1128 456 1131 l 491 1128 m 507 694 l 450 347 l 507 694 l 450 347 l 708 347 l 708 347 l 765 694 l 765 694 l 507 694 l 507 694 "},"$":{"ha":868,"x_min":27,"x_max":836,"o":"m 434 1215 l 434 1215 q 372 1191 396 1215 q 347 1128 347 1166 l 347 1128 l 347 1034 q 231 1004 285 1025 q 111 925 163 977 q 46 798 60 873 q 62 637 27 711 q 157 529 98 567 q 274 475 212 496 q 396 439 336 453 q 401 437 399 437 q 401 437 401 437 q 401 437 401 437 l 401 437 l 410 434 q 610 363 543 404 q 646 328 637 345 q 648 271 654 315 q 575 193 643 222 q 369 179 502 163 q 269 201 326 187 q 165 239 212 217 q 100 239 130 252 q 52 193 68 228 q 49 127 38 160 q 95 79 62 95 q 222 35 152 54 q 342 8 290 16 q 342 8 342 8 q 342 8 342 8 l 342 8 l 345 8 q 345 8 345 8 q 347 8 347 8 l 347 8 l 347 -87 q 372 -149 347 -125 q 434 -174 396 -174 q 496 -149 472 -174 q 521 -87 521 -125 l 521 -87 l 521 3 q 640 33 586 11 q 757 111 708 60 q 819 241 803 163 q 803 401 836 328 q 705 510 765 472 q 586 564 651 543 q 464 600 524 586 q 461 600 464 600 l 461 600 l 453 602 q 255 675 320 635 q 220 711 225 694 q 217 765 209 724 q 296 841 220 808 q 507 857 377 876 l 507 857 l 635 836 q 700 849 673 830 q 738 903 730 868 q 722 968 743 941 q 667 1006 703 998 l 667 1006 l 537 1028 q 534 1031 537 1028 q 534 1031 534 1031 q 521 1031 526 1031 l 521 1031 l 521 1128 q 496 1191 521 1166 l 496 1191 l 496 1191 q 434 1215 472 1215 "},"":{"ha":868,"x_min":27,"x_max":836,"o":"m 434 1215 q 496 1191 472 1215 l 496 1191 l 496 1191 q 521 1128 521 1166 l 521 1031 l 521 1031 q 534 1031 526 1031 q 534 1031 534 1031 q 537 1028 537 1028 l 667 1006 l 667 1006 q 722 968 703 998 q 738 903 743 941 q 700 849 730 868 q 635 836 673 830 l 507 857 l 507 857 q 296 841 377 876 q 217 765 220 808 q 220 711 209 724 q 255 675 225 694 q 453 602 320 635 l 461 600 l 461 600 q 464 600 464 600 q 586 564 524 586 q 705 510 651 543 q 803 401 765 472 q 819 241 836 328 q 757 111 803 163 q 640 33 708 60 q 521 3 586 11 l 521 -87 l 521 -87 q 496 -149 521 -125 q 434 -174 472 -174 q 372 -149 396 -174 q 347 -87 347 -125 l 347 8 l 347 8 q 345 8 347 8 q 345 8 345 8 l 342 8 l 342 8 q 342 8 342 8 q 342 8 342 8 q 222 35 290 16 q 95 79 152 54 q 49 127 62 95 q 52 193 38 160 q 100 239 68 228 q 165 239 130 252 q 269 201 212 217 q 369 179 326 187 q 575 193 502 163 q 648 271 643 222 q 646 328 654 315 q 610 363 637 345 q 410 434 543 404 l 401 437 l 401 437 q 401 437 401 437 q 401 437 401 437 q 396 439 399 437 q 274 475 336 453 q 157 529 212 496 q 62 637 98 567 q 46 798 27 711 q 111 925 60 873 q 231 1004 163 977 q 347 1034 285 1025 l 347 1128 l 347 1128 q 372 1191 347 1166 q 434 1215 396 1215 l 434 1215 "},"%":{"ha":1042,"x_min":0,"x_max":1042,"o":"m 1017 892 l 1017 892 l 149 24 q 87 0 122 0 q 24 24 52 0 q 0 87 0 52 q 24 149 0 122 l 24 149 l 892 1017 q 955 1042 920 1042 q 1017 1017 990 1042 q 1042 955 1042 990 l 1042 955 l 1042 955 q 1017 892 1042 920 m 347 868 l 347 868 q 260 719 345 770 q 87 719 174 670 q 0 868 3 770 q 87 1017 3 966 q 260 1017 174 1066 q 347 868 345 966 m 1042 174 l 1042 174 q 955 24 1039 76 q 781 24 868 -24 q 694 174 697 76 q 781 323 697 271 q 955 323 868 372 q 1042 174 1039 271 "},"":{"ha":1042,"x_min":0,"x_max":1042,"o":"m 1017 892 q 1042 955 1042 920 l 1042 955 l 1042 955 q 1017 1017 1042 990 q 955 1042 990 1042 q 892 1017 920 1042 l 24 149 l 24 149 q 0 87 0 122 q 24 24 0 52 q 87 0 52 0 q 149 24 122 0 l 1017 892 l 1017 892 m 347 868 q 260 1017 345 966 q 87 1017 174 1066 q 0 868 3 966 q 87 719 3 770 q 260 719 174 670 q 347 868 345 770 l 347 868 m 1042 174 q 955 323 1039 271 q 781 323 868 372 q 694 174 697 271 q 781 24 697 76 q 955 24 868 -24 q 1042 174 1039 76 l 1042 174 "},"":{"ha":1042,"x_min":0,"x_max":1042,"o":"m 1017 892 l 1017 892 l 149 24 q 87 0 122 0 q 24 24 52 0 q 0 87 0 52 q 24 149 0 122 l 24 149 l 892 1017 q 955 1042 920 1042 q 1017 1017 990 1042 q 1042 955 1042 990 l 1042 955 l 1042 955 q 1017 892 1042 920 m 347 868 l 347 868 q 260 719 345 770 q 87 719 174 670 q 0 868 3 770 q 87 1017 3 966 q 260 1017 174 1066 q 347 868 345 966 m 1042 174 l 1042 174 q 955 24 1039 76 q 781 24 868 -24 q 694 174 697 76 q 781 323 697 271 q 955 323 868 372 q 1042 174 1039 271 "},"*":{"ha":1042,"x_min":-5,"x_max":1047,"o":"m 521 1128 l 521 1128 q 458 1104 483 1128 q 434 1042 434 1080 l 434 1042 l 434 673 l 434 673 l 130 854 q 65 865 100 873 q 14 825 33 857 q 3 760 -5 795 q 43 708 11 727 l 43 708 l 353 521 l 353 521 l 43 334 q 3 282 11 315 q 14 217 -5 247 q 65 176 33 184 q 133 187 100 168 l 133 187 l 434 366 l 434 366 l 434 0 q 458 -62 434 -38 q 521 -87 483 -87 q 583 -62 559 -87 q 608 0 608 -38 l 608 0 l 608 366 l 608 366 l 911 184 q 977 176 941 168 q 1031 214 1009 184 q 1039 282 1047 247 q 1001 334 1031 315 l 1001 334 l 689 521 l 689 521 l 998 705 q 1039 760 1031 727 q 1028 825 1047 795 q 977 865 1009 857 q 911 854 941 873 l 911 854 l 608 673 l 608 673 l 608 1042 q 583 1104 608 1080 l 583 1104 l 583 1104 q 521 1128 559 1128 "},"✱":{"ha":1042,"x_min":-5,"x_max":1047,"o":"m 521 1128 q 583 1104 559 1128 l 583 1104 l 583 1104 q 608 1042 608 1080 l 608 673 l 608 673 l 911 854 l 911 854 q 977 865 941 873 q 1028 825 1009 857 q 1039 760 1047 795 q 998 705 1031 727 l 689 521 l 689 521 l 1001 334 l 1001 334 q 1039 282 1031 315 q 1031 214 1047 247 q 977 176 1009 184 q 911 184 941 168 l 608 366 l 608 366 l 608 0 l 608 0 q 583 -62 608 -38 q 521 -87 559 -87 q 458 -62 483 -87 q 434 0 434 -38 l 434 366 l 434 366 l 133 187 l 133 187 q 65 176 100 168 q 14 217 33 184 q 3 282 -5 247 q 43 334 11 315 l 353 521 l 353 521 l 43 708 l 43 708 q 3 760 11 727 q 14 825 -5 795 q 65 865 33 857 q 130 854 100 873 l 434 673 l 434 673 l 434 1042 l 434 1042 q 458 1104 434 1080 q 521 1128 483 1128 l 521 1128 "},"":{"ha":1042,"x_min":-5,"x_max":1047,"o":"m 521 1128 l 521 1128 q 458 1104 483 1128 q 434 1042 434 1080 l 434 1042 l 434 673 l 434 673 l 130 854 q 65 865 100 873 q 14 825 33 857 q 3 760 -5 795 q 43 708 11 727 l 43 708 l 353 521 l 353 521 l 43 334 q 3 282 11 315 q 14 217 -5 247 q 65 176 33 184 q 133 187 100 168 l 133 187 l 434 366 l 434 366 l 434 0 q 458 -62 434 -38 q 521 -87 483 -87 q 583 -62 559 -87 q 608 0 608 -38 l 608 0 l 608 366 l 608 366 l 911 184 q 977 176 941 168 q 1031 214 1009 184 q 1039 282 1047 247 q 1001 334 1031 315 l 1001 334 l 689 521 l 689 521 l 998 705 q 1039 760 1031 727 q 1028 825 1047 795 q 977 865 1009 857 q 911 854 941 873 l 911 854 l 608 673 l 608 673 l 608 1042 q 583 1104 608 1080 l 583 1104 l 583 1104 q 521 1128 559 1128 "},"+":{"ha":1215,"x_min":43,"x_max":1172,"o":"m 694 998 l 694 998 l 694 608 l 694 608 l 1085 608 q 1147 583 1123 608 q 1172 521 1172 559 q 1147 458 1172 483 q 1085 434 1123 434 l 1085 434 l 694 434 l 694 434 l 694 43 q 670 -19 694 5 q 608 -43 646 -43 q 545 -19 570 -43 q 521 43 521 5 l 521 43 l 521 434 l 521 434 l 130 434 q 68 458 92 434 q 43 521 43 483 q 68 583 43 559 q 130 608 92 608 l 130 608 l 521 608 l 521 608 l 521 998 q 545 1061 521 1036 q 608 1085 570 1085 q 670 1061 646 1085 l 670 1061 l 670 1061 q 694 998 694 1036 "},"➕":{"ha":1215,"x_min":43,"x_max":1172,"o":"m 694 998 q 670 1061 694 1036 l 670 1061 l 670 1061 q 608 1085 646 1085 q 545 1061 570 1085 q 521 998 521 1036 l 521 608 l 521 608 l 130 608 l 130 608 q 68 583 92 608 q 43 521 43 559 q 68 458 43 483 q 130 434 92 434 l 521 434 l 521 434 l 521 43 l 521 43 q 545 -19 521 5 q 608 -43 570 -43 q 670 -19 646 -43 q 694 43 694 5 l 694 434 l 694 434 l 1085 434 l 1085 434 q 1147 458 1123 434 q 1172 521 1172 483 q 1147 583 1172 559 q 1085 608 1123 608 l 694 608 l 694 608 l 694 998 l 694 998 "},"":{"ha":1215,"x_min":43,"x_max":1172,"o":"m 694 998 l 694 998 l 694 608 l 694 608 l 1085 608 q 1147 583 1123 608 q 1172 521 1172 559 q 1147 458 1172 483 q 1085 434 1123 434 l 1085 434 l 694 434 l 694 434 l 694 43 q 670 -19 694 5 q 608 -43 646 -43 q 545 -19 570 -43 q 521 43 521 5 l 521 43 l 521 434 l 521 434 l 130 434 q 68 458 92 434 q 43 521 43 483 q 68 583 43 559 q 130 608 92 608 l 130 608 l 521 608 l 521 608 l 521 998 q 545 1061 521 1036 q 608 1085 570 1085 q 670 1061 646 1085 l 670 1061 l 670 1061 q 694 998 694 1036 "},"<":{"ha":1042,"x_min":0,"x_max":1047,"o":"m 1034 993 l 1034 993 q 982 1036 1015 1025 q 917 1034 949 1047 l 917 1034 l 49 600 q 0 521 3 572 q 49 442 3 469 l 49 442 l 917 8 q 982 5 949 -5 q 1034 49 1015 16 q 1036 114 1047 81 q 993 165 1025 146 l 993 165 l 282 521 l 282 521 l 993 876 q 1036 928 1025 895 l 1036 928 l 1036 928 q 1034 993 1047 960 "},"":{"ha":1042,"x_min":0,"x_max":1047,"o":"m 1034 993 q 1036 928 1047 960 l 1036 928 l 1036 928 q 993 876 1025 895 l 282 521 l 282 521 l 993 165 l 993 165 q 1036 114 1025 146 q 1034 49 1047 81 q 982 5 1015 16 q 917 8 949 -5 l 49 442 l 49 442 q 0 521 3 469 q 49 600 3 572 l 917 1034 l 917 1034 q 982 1036 949 1047 q 1034 993 1015 1025 l 1034 993 "},"=":{"ha":1215,"x_min":43,"x_max":1172,"o":"m 130 868 l 130 868 l 1085 868 q 1147 844 1123 868 q 1172 781 1172 819 q 1147 719 1172 743 q 1085 694 1123 694 l 1085 694 l 130 694 q 68 719 92 694 q 43 781 43 743 q 68 844 43 819 l 68 844 l 68 844 q 130 868 92 868 m 130 347 l 130 347 l 1085 347 q 1147 323 1123 347 q 1172 260 1172 298 q 1147 198 1172 222 q 1085 174 1123 174 l 1085 174 l 130 174 q 68 198 92 174 q 43 260 43 222 q 68 323 43 298 l 68 323 l 68 323 q 130 347 92 347 "},"":{"ha":1215,"x_min":43,"x_max":1172,"o":"m 130 868 q 68 844 92 868 l 68 844 l 68 844 q 43 781 43 819 q 68 719 43 743 q 130 694 92 694 l 1085 694 l 1085 694 q 1147 719 1123 694 q 1172 781 1172 743 q 1147 844 1172 819 q 1085 868 1123 868 l 130 868 l 130 868 m 130 347 q 68 323 92 347 l 68 323 l 68 323 q 43 260 43 298 q 68 198 43 222 q 130 174 92 174 l 1085 174 l 1085 174 q 1147 198 1123 174 q 1172 260 1172 222 q 1147 323 1172 298 q 1085 347 1123 347 l 130 347 l 130 347 "},">":{"ha":1042,"x_min":-5,"x_max":1042,"o":"m 8 993 l 8 993 q 60 1036 27 1025 q 125 1034 92 1047 l 125 1034 l 993 600 q 1042 521 1039 572 q 993 442 1039 469 l 993 442 l 125 8 q 60 5 92 -5 q 8 49 27 16 q 5 114 -5 81 q 49 165 16 146 l 49 165 l 762 521 l 762 521 l 49 876 q 5 928 16 895 l 5 928 l 5 928 q 8 993 -5 960 "},"":{"ha":1042,"x_min":-5,"x_max":1042,"o":"m 8 993 q 5 928 -5 960 l 5 928 l 5 928 q 49 876 16 895 l 762 521 l 762 521 l 49 165 l 49 165 q 5 114 16 146 q 8 49 -5 81 q 60 5 27 16 q 125 8 92 -5 l 993 442 l 993 442 q 1042 521 1039 469 q 993 600 1039 572 l 125 1034 l 125 1034 q 60 1036 92 1047 q 8 993 27 1025 l 8 993 "},"?":{"ha":868,"x_min":43,"x_max":825,"o":"m 217 781 l 217 781 q 193 719 217 743 q 130 694 168 694 q 68 719 92 694 q 43 781 43 743 q 144 1028 46 928 q 391 1128 244 1126 l 391 1128 l 477 1128 q 724 1028 624 1126 q 825 781 822 928 l 825 781 l 825 773 q 781 605 825 681 q 665 480 741 529 l 665 480 l 551 407 q 521 350 521 385 l 521 350 l 521 347 q 496 285 521 309 q 434 260 472 260 q 372 285 396 260 q 347 347 347 309 l 347 347 l 347 350 q 456 551 350 480 l 456 551 l 572 627 q 651 770 648 678 l 651 770 l 651 781 q 600 903 648 854 q 477 955 551 952 l 477 955 l 391 955 q 269 903 317 952 l 269 903 l 269 903 q 217 781 220 854 m 434 -87 l 434 -87 q 339 -33 372 -84 q 339 76 312 22 q 434 130 372 127 q 529 76 496 127 q 529 -33 556 22 q 434 -87 496 -84 "},"❓":{"ha":868,"x_min":43,"x_max":825,"o":"m 217 781 q 269 903 220 854 l 269 903 l 269 903 q 391 955 317 952 l 477 955 l 477 955 q 600 903 551 952 q 651 781 648 854 l 651 770 l 651 770 q 572 627 648 678 l 456 551 l 456 551 q 347 350 350 480 l 347 347 l 347 347 q 372 285 347 309 q 434 260 396 260 q 496 285 472 260 q 521 347 521 309 l 521 350 l 521 350 q 551 407 521 385 l 665 480 l 665 480 q 781 605 741 529 q 825 773 825 681 l 825 781 l 825 781 q 724 1028 822 928 q 477 1128 624 1126 l 391 1128 l 391 1128 q 144 1028 244 1126 q 43 781 46 928 q 68 719 43 743 q 130 694 92 694 q 193 719 168 694 q 217 781 217 743 l 217 781 m 434 -87 q 529 -33 496 -84 q 529 76 556 22 q 434 130 496 127 q 339 76 372 127 q 339 -33 312 22 q 434 -87 372 -84 l 434 -87 "},"❔":{"ha":868,"x_min":43,"x_max":825,"o":"m 217 781 l 217 781 q 193 719 217 743 q 130 694 168 694 q 68 719 92 694 q 43 781 43 743 q 144 1028 46 928 q 391 1128 244 1126 l 391 1128 l 477 1128 q 724 1028 624 1126 q 825 781 822 928 l 825 781 l 825 773 q 781 605 825 681 q 665 480 741 529 l 665 480 l 551 407 q 521 350 521 385 l 521 350 l 521 347 q 496 285 521 309 q 434 260 472 260 q 372 285 396 260 q 347 347 347 309 l 347 347 l 347 350 q 456 551 350 480 l 456 551 l 572 627 q 651 770 648 678 l 651 770 l 651 781 q 600 903 648 854 q 477 955 551 952 l 477 955 l 391 955 q 269 903 317 952 l 269 903 l 269 903 q 217 781 220 854 m 434 -87 l 434 -87 q 339 -33 372 -84 q 339 76 312 22 q 434 130 372 127 q 529 76 496 127 q 529 -33 556 22 q 434 -87 496 -84 "},"":{"ha":868,"x_min":43,"x_max":825,"o":"m 217 781 q 269 903 220 854 l 269 903 l 269 903 q 391 955 317 952 l 477 955 l 477 955 q 600 903 551 952 q 651 781 648 854 l 651 770 l 651 770 q 572 627 648 678 l 456 551 l 456 551 q 347 350 350 480 l 347 347 l 347 347 q 372 285 347 309 q 434 260 396 260 q 496 285 472 260 q 521 347 521 309 l 521 350 l 521 350 q 551 407 521 385 l 665 480 l 665 480 q 781 605 741 529 q 825 773 825 681 l 825 781 l 825 781 q 724 1028 822 928 q 477 1128 624 1126 l 391 1128 l 391 1128 q 144 1028 244 1126 q 43 781 46 928 q 68 719 43 743 q 130 694 92 694 q 193 719 168 694 q 217 781 217 743 l 217 781 m 434 -87 q 529 -33 496 -84 q 529 76 556 22 q 434 130 496 127 q 339 76 372 127 q 339 -33 312 22 q 434 -87 372 -84 l 434 -87 "},"@":{"ha":1389,"x_min":0,"x_max":1389,"o":"m 694 1042 l 694 1042 q 1063 890 917 1036 q 1215 521 1210 743 l 1215 521 l 1215 434 q 1191 372 1215 396 q 1128 347 1166 347 q 1066 372 1090 347 q 1042 434 1042 396 l 1042 434 l 1042 521 l 1042 521 l 1042 738 q 1017 800 1042 776 q 955 825 993 825 q 898 803 920 825 q 694 868 811 865 q 448 768 548 865 q 347 521 350 667 q 448 274 350 374 q 694 174 548 176 q 930 266 833 176 q 1128 174 1006 176 q 1313 250 1240 176 q 1389 434 1386 323 l 1389 434 l 1389 521 q 1294 871 1386 716 q 1044 1120 1202 1028 q 694 1215 890 1213 q 345 1120 499 1213 q 95 871 187 1028 q 0 521 3 716 q 95 171 3 326 q 345 -79 187 14 q 694 -174 499 -171 q 757 -149 732 -174 q 781 -87 781 -125 q 757 -24 781 -49 q 694 0 732 0 q 326 152 472 5 q 174 521 179 298 q 326 890 179 743 l 326 890 l 326 890 q 694 1042 472 1036 m 868 521 l 868 521 q 781 372 865 423 q 608 372 694 323 q 521 521 524 423 q 608 670 524 618 q 781 670 694 719 q 868 521 865 618 "},"":{"ha":1389,"x_min":0,"x_max":1389,"o":"m 694 1042 q 326 890 472 1036 l 326 890 l 326 890 q 174 521 179 743 q 326 152 179 298 q 694 0 472 5 q 757 -24 732 0 q 781 -87 781 -49 q 757 -149 781 -125 q 694 -174 732 -174 q 345 -79 499 -171 q 95 171 187 14 q 0 521 3 326 q 95 871 3 716 q 345 1120 187 1028 q 694 1215 499 1213 q 1044 1120 890 1213 q 1294 871 1202 1028 q 1389 521 1386 716 l 1389 434 l 1389 434 q 1313 250 1386 323 q 1128 174 1240 176 q 930 266 1006 176 q 694 174 833 176 q 448 274 548 176 q 347 521 350 374 q 448 768 350 667 q 694 868 548 865 q 898 803 811 865 q 955 825 920 825 q 1017 800 993 825 q 1042 738 1042 776 l 1042 521 l 1042 521 l 1042 434 l 1042 434 q 1066 372 1042 396 q 1128 347 1090 347 q 1191 372 1166 347 q 1215 434 1215 396 l 1215 521 l 1215 521 q 1063 890 1210 743 q 694 1042 917 1036 l 694 1042 m 868 521 q 781 670 865 618 q 608 670 694 719 q 521 521 524 618 q 608 372 524 423 q 781 372 694 323 q 868 521 865 423 l 868 521 "},"A":{"ha":1042,"x_min":-5,"x_max":1047,"o":"m 602 1074 l 600 1074 l 925 293 l 925 293 l 1034 33 q 1034 -33 1047 0 q 987 -81 1023 -65 q 922 -81 955 -92 q 873 -33 890 -68 l 873 -33 l 789 174 l 789 174 l 252 174 l 252 174 l 168 -33 q 119 -81 152 -68 q 54 -81 87 -92 q 5 -33 19 -65 q 8 33 -5 0 l 8 33 l 117 293 l 117 293 l 442 1074 q 521 1128 464 1126 q 602 1074 578 1126 m 716 347 l 716 347 l 521 817 l 521 817 l 326 347 l 716 347 l 326 347 l 716 347 "},"a":{"ha":1042,"x_min":-5,"x_max":1047,"o":"m 602 1074 q 521 1128 578 1126 q 442 1074 464 1126 l 117 293 l 117 293 l 8 33 l 8 33 q 5 -33 -5 0 q 54 -81 19 -65 q 119 -81 87 -92 q 168 -33 152 -68 l 252 174 l 252 174 l 789 174 l 789 174 l 873 -33 l 873 -33 q 922 -81 890 -68 q 987 -81 955 -92 q 1034 -33 1023 -65 q 1034 33 1047 0 l 925 293 l 925 293 l 600 1074 l 602 1074 m 716 347 l 326 347 l 716 347 l 326 347 l 521 817 l 521 817 l 716 347 l 716 347 "},"B":{"ha":868,"x_min":0,"x_max":868,"o":"m 174 1128 l 174 1128 l 434 1128 q 681 1028 581 1126 q 781 781 779 928 q 700 559 779 651 q 822 434 776 513 q 868 260 868 355 q 768 14 865 114 q 521 -87 667 -84 l 521 -87 l 174 -87 q 52 -35 100 -84 q 0 87 3 14 l 0 87 l 0 521 l 0 521 l 0 955 q 52 1077 3 1028 l 52 1077 l 52 1077 q 174 1128 100 1126 m 434 608 l 434 608 q 556 659 507 610 q 608 781 605 708 q 556 903 605 854 q 434 955 507 952 l 434 955 l 174 955 l 174 955 l 174 608 l 434 608 l 174 608 l 434 608 m 174 434 l 174 434 l 174 87 l 174 87 l 521 87 q 643 138 594 90 q 694 260 692 187 q 643 382 692 334 q 521 434 594 431 l 174 434 l 434 434 l 174 434 "},"b":{"ha":868,"x_min":0,"x_max":868,"o":"m 174 1128 q 52 1077 100 1126 l 52 1077 l 52 1077 q 0 955 3 1028 l 0 521 l 0 521 l 0 87 l 0 87 q 52 -35 3 14 q 174 -87 100 -84 l 521 -87 l 521 -87 q 768 14 667 -84 q 868 260 865 114 q 822 434 868 355 q 700 559 776 513 q 781 781 779 651 q 681 1028 779 928 q 434 1128 581 1126 l 174 1128 l 174 1128 m 434 608 l 174 608 l 434 608 l 174 608 l 174 955 l 174 955 l 434 955 l 434 955 q 556 903 507 952 q 608 781 605 854 q 556 659 605 708 q 434 608 507 610 l 434 608 m 174 434 l 434 434 l 174 434 l 521 434 q 643 382 594 431 q 694 260 692 334 q 643 138 692 187 q 521 87 594 90 l 174 87 l 174 87 l 174 434 l 174 434 "},"C":{"ha":1042,"x_min":-19,"x_max":1042,"o":"m 892 827 l 892 827 q 955 803 920 803 q 1015 827 990 803 q 1042 890 1042 854 q 1015 949 1042 922 q 597 1128 830 1128 q 179 949 363 1128 q 19 675 60 830 q 19 366 -19 521 q 179 90 60 212 q 597 -87 363 -87 q 1015 90 830 -87 q 1042 152 1042 117 q 1015 214 1042 187 q 955 239 990 239 q 892 214 920 239 q 597 87 760 87 q 301 214 434 87 q 174 521 174 347 q 301 827 174 694 q 597 955 434 955 l 597 955 l 597 955 q 892 827 760 955 "},"c":{"ha":1042,"x_min":-19,"x_max":1042,"o":"m 892 827 q 597 955 760 955 l 597 955 l 597 955 q 301 827 434 955 q 174 521 174 694 q 301 214 174 347 q 597 87 434 87 q 892 214 760 87 q 955 239 920 239 q 1015 214 990 239 q 1042 152 1042 187 q 1015 90 1042 117 q 597 -87 830 -87 q 179 90 363 -87 q 19 366 60 212 q 19 675 -19 521 q 179 949 60 830 q 597 1128 363 1128 q 1015 949 830 1128 q 1042 890 1042 922 q 1015 827 1042 854 q 955 803 990 803 q 892 827 920 803 l 892 827 "},"D":{"ha":1042,"x_min":0,"x_max":1042,"o":"m 0 955 l 0 955 l 0 87 q 52 -35 3 14 q 174 -87 100 -84 l 174 -87 l 434 -87 q 741 -3 605 -84 q 958 214 879 76 q 1042 521 1039 350 q 958 827 1039 692 q 741 1044 879 966 q 434 1128 605 1126 l 434 1128 l 174 1128 q 52 1077 100 1126 l 52 1077 l 52 1077 q 0 955 3 1028 m 434 955 l 434 955 q 741 827 618 949 q 868 521 863 705 q 741 214 863 336 q 434 87 618 92 l 434 87 l 174 87 l 174 87 l 174 955 l 434 955 l 174 955 l 434 955 "},"d":{"ha":1042,"x_min":0,"x_max":1042,"o":"m 0 955 q 52 1077 3 1028 l 52 1077 l 52 1077 q 174 1128 100 1126 l 434 1128 l 434 1128 q 741 1044 605 1126 q 958 827 879 966 q 1042 521 1039 692 q 958 214 1039 350 q 741 -3 879 76 q 434 -87 605 -84 l 174 -87 l 174 -87 q 52 -35 100 -84 q 0 87 3 14 l 0 955 l 0 955 m 434 955 l 174 955 l 434 955 l 174 955 l 174 87 l 174 87 l 434 87 l 434 87 q 741 214 618 92 q 868 521 863 336 q 741 827 863 705 q 434 955 618 949 l 434 955 "},"E":{"ha":868,"x_min":0,"x_max":868,"o":"m 174 1128 l 174 1128 l 781 1128 q 844 1104 819 1128 q 868 1042 868 1080 q 844 979 868 1004 q 781 955 819 955 l 781 955 l 174 955 l 174 955 l 174 608 l 174 608 l 608 608 q 670 583 646 608 q 694 521 694 559 q 670 458 694 483 q 608 434 646 434 l 608 434 l 174 434 l 174 434 l 174 87 l 174 87 l 781 87 q 844 62 819 87 q 868 0 868 38 q 844 -62 868 -38 q 781 -87 819 -87 l 781 -87 l 174 -87 q 52 -35 100 -84 q 0 87 3 14 l 0 87 l 0 521 l 0 521 l 0 955 q 52 1077 3 1028 l 52 1077 l 52 1077 q 174 1128 100 1126 "},"e":{"ha":868,"x_min":0,"x_max":868,"o":"m 174 1128 q 52 1077 100 1126 l 52 1077 l 52 1077 q 0 955 3 1028 l 0 521 l 0 521 l 0 87 l 0 87 q 52 -35 3 14 q 174 -87 100 -84 l 781 -87 l 781 -87 q 844 -62 819 -87 q 868 0 868 -38 q 844 62 868 38 q 781 87 819 87 l 174 87 l 174 87 l 174 434 l 174 434 l 608 434 l 608 434 q 670 458 646 434 q 694 521 694 483 q 670 583 694 559 q 608 608 646 608 l 174 608 l 174 608 l 174 955 l 174 955 l 781 955 l 781 955 q 844 979 819 955 q 868 1042 868 1004 q 844 1104 868 1080 q 781 1128 819 1128 l 174 1128 l 174 1128 "},"F":{"ha":868,"x_min":0,"x_max":868,"o":"m 174 1128 l 174 1128 l 781 1128 q 844 1104 819 1128 q 868 1042 868 1080 q 844 979 868 1004 q 781 955 819 955 l 781 955 l 174 955 l 174 955 l 174 608 l 174 608 l 608 608 q 670 583 646 608 q 694 521 694 559 q 670 458 694 483 q 608 434 646 434 l 608 434 l 174 434 l 174 434 l 174 0 q 149 -62 174 -38 q 87 -87 125 -87 q 24 -62 49 -87 q 0 0 0 -38 l 0 0 l 0 521 l 0 521 l 0 955 q 52 1077 3 1028 l 52 1077 l 52 1077 q 174 1128 100 1126 "},"f":{"ha":868,"x_min":0,"x_max":868,"o":"m 174 1128 q 52 1077 100 1126 l 52 1077 l 52 1077 q 0 955 3 1028 l 0 521 l 0 521 l 0 0 l 0 0 q 24 -62 0 -38 q 87 -87 49 -87 q 149 -62 125 -87 q 174 0 174 -38 l 174 434 l 174 434 l 608 434 l 608 434 q 670 458 646 434 q 694 521 694 483 q 670 583 694 559 q 608 608 646 608 l 174 608 l 174 608 l 174 955 l 174 955 l 781 955 l 781 955 q 844 979 819 955 q 868 1042 868 1004 q 844 1104 868 1080 q 781 1128 819 1128 l 174 1128 l 174 1128 "},"G":{"ha":1215,"x_min":0,"x_max":1215,"o":"m 608 955 l 608 955 q 898 844 779 952 q 960 822 925 819 q 1020 852 993 825 q 1042 914 1044 879 q 1012 974 1039 949 q 608 1128 846 1123 q 301 1044 437 1126 q 84 827 163 966 q 0 521 3 692 q 84 214 3 350 q 301 -3 163 76 q 608 -87 437 -84 q 1020 76 852 -81 q 1213 469 1188 231 q 1177 570 1215 532 q 1085 608 1139 608 l 1085 608 l 694 608 q 632 583 656 608 q 608 521 608 559 q 632 458 608 483 q 694 434 656 434 l 694 434 l 1034 434 q 884 187 1001 282 q 608 87 768 90 q 301 214 423 92 q 174 521 179 336 q 301 827 179 705 l 301 827 l 301 827 q 608 955 423 949 "},"g":{"ha":1215,"x_min":0,"x_max":1215,"o":"m 608 955 q 301 827 423 949 l 301 827 l 301 827 q 174 521 179 705 q 301 214 179 336 q 608 87 423 92 q 884 187 768 90 q 1034 434 1001 282 l 694 434 l 694 434 q 632 458 656 434 q 608 521 608 483 q 632 583 608 559 q 694 608 656 608 l 1085 608 l 1085 608 q 1177 570 1139 608 q 1213 469 1215 532 q 1020 76 1188 231 q 608 -87 852 -81 q 301 -3 437 -84 q 84 214 163 76 q 0 521 3 350 q 84 827 3 692 q 301 1044 163 966 q 608 1128 437 1126 q 1012 974 846 1123 q 1042 914 1039 949 q 1020 852 1044 879 q 960 822 993 825 q 898 844 925 819 q 608 955 779 952 l 608 955 "},"H":{"ha":1042,"x_min":0,"x_max":1042,"o":"m 868 521 l 868 521 l 174 521 l 174 521 l 174 0 q 149 -62 174 -38 q 87 -87 125 -87 q 24 -62 49 -87 q 0 0 0 -38 l 0 0 l 0 1042 q 24 1104 0 1080 q 87 1128 49 1128 q 149 1104 125 1128 q 174 1042 174 1080 l 174 1042 l 174 694 l 174 694 l 868 694 l 868 694 l 868 1042 q 892 1104 868 1080 q 955 1128 917 1128 q 1017 1104 993 1128 q 1042 1042 1042 1080 l 1042 1042 l 1042 608 l 1042 608 l 1042 0 q 1017 -62 1042 -38 q 955 -87 993 -87 q 892 -62 917 -87 q 868 0 868 -38 l 868 521 l 868 0 l 868 521 "},"h":{"ha":1042,"x_min":0,"x_max":1042,"o":"m 868 521 l 868 0 l 868 521 l 868 0 q 892 -62 868 -38 q 955 -87 917 -87 q 1017 -62 993 -87 q 1042 0 1042 -38 l 1042 608 l 1042 608 l 1042 1042 l 1042 1042 q 1017 1104 1042 1080 q 955 1128 993 1128 q 892 1104 917 1128 q 868 1042 868 1080 l 868 694 l 868 694 l 174 694 l 174 694 l 174 1042 l 174 1042 q 149 1104 174 1080 q 87 1128 125 1128 q 24 1104 49 1128 q 0 1042 0 1080 l 0 0 l 0 0 q 24 -62 0 -38 q 87 -87 49 -87 q 149 -62 125 -87 q 174 0 174 -38 l 174 521 l 174 521 l 868 521 l 868 521 "},"I":{"ha":868,"x_min":0,"x_max":868,"o":"m 87 1128 l 434 1128 l 781 1128 q 844 1104 819 1128 q 868 1042 868 1080 q 844 979 868 1004 q 781 955 819 955 l 781 955 l 521 955 l 521 955 l 521 87 l 521 87 l 781 87 q 844 62 819 87 q 868 0 868 38 q 844 -62 868 -38 q 781 -87 819 -87 l 781 -87 l 87 -87 q 24 -62 49 -87 q 0 0 0 -38 q 24 62 0 38 q 87 87 49 87 l 87 87 l 347 87 l 347 87 l 347 955 l 347 955 l 87 955 q 24 979 49 955 q 0 1042 0 1004 q 24 1104 0 1080 l 24 1104 l 24 1104 q 87 1128 49 1128 "},"i":{"ha":868,"x_min":0,"x_max":868,"o":"m 87 1128 q 24 1104 49 1128 l 24 1104 l 24 1104 q 0 1042 0 1080 q 24 979 0 1004 q 87 955 49 955 l 347 955 l 347 955 l 347 87 l 347 87 l 87 87 l 87 87 q 24 62 49 87 q 0 0 0 38 q 24 -62 0 -38 q 87 -87 49 -87 l 781 -87 l 781 -87 q 844 -62 819 -87 q 868 0 868 -38 q 844 62 868 38 q 781 87 819 87 l 521 87 l 521 87 l 521 955 l 521 955 l 781 955 l 781 955 q 844 979 819 955 q 868 1042 868 1004 q 844 1104 868 1080 q 781 1128 819 1128 l 434 1128 l 87 1128 "},"J":{"ha":868,"x_min":0,"x_max":868,"o":"m 781 1128 l 781 1128 q 719 1104 743 1128 q 694 1042 694 1080 l 694 1042 l 694 347 q 618 163 692 236 q 434 87 545 90 q 250 163 323 90 q 174 347 176 236 l 174 347 l 174 434 q 149 496 174 472 q 87 521 125 521 q 24 496 49 521 q 0 434 0 472 l 0 434 l 0 347 q 127 41 5 163 q 434 -87 250 -81 q 741 41 618 -81 q 868 347 863 163 l 868 347 l 868 1042 q 844 1104 868 1080 l 844 1104 l 844 1104 q 781 1128 819 1128 "},"j":{"ha":868,"x_min":0,"x_max":868,"o":"m 781 1128 q 844 1104 819 1128 l 844 1104 l 844 1104 q 868 1042 868 1080 l 868 347 l 868 347 q 741 41 863 163 q 434 -87 618 -81 q 127 41 250 -81 q 0 347 5 163 l 0 434 l 0 434 q 24 496 0 472 q 87 521 49 521 q 149 496 125 521 q 174 434 174 472 l 174 347 l 174 347 q 250 163 176 236 q 434 87 323 90 q 618 163 545 90 q 694 347 692 236 l 694 1042 l 694 1042 q 719 1104 694 1080 q 781 1128 743 1128 l 781 1128 "},"K":{"ha":868,"x_min":0,"x_max":873,"o":"m 844 982 l 844 982 l 472 600 l 472 600 l 852 49 q 865 -16 873 19 q 830 -71 860 -49 q 765 -87 800 -92 q 711 -49 732 -79 l 711 -49 l 350 472 l 350 472 l 174 290 l 174 290 l 174 0 q 149 -62 174 -38 q 87 -87 125 -87 q 24 -62 49 -87 q 0 0 0 -38 l 0 0 l 0 326 l 0 326 l 0 1042 q 24 1104 0 1080 q 87 1128 49 1128 q 149 1104 125 1128 q 174 1042 174 1080 l 174 1042 l 174 540 l 174 540 l 298 667 l 298 667 l 719 1101 q 781 1128 746 1128 q 841 1104 814 1128 q 868 1042 868 1077 l 868 1042 l 868 1042 q 844 982 868 1009 "},"k":{"ha":868,"x_min":0,"x_max":873,"o":"m 844 982 q 868 1042 868 1009 l 868 1042 l 868 1042 q 841 1104 868 1077 q 781 1128 814 1128 q 719 1101 746 1128 l 298 667 l 298 667 l 174 540 l 174 540 l 174 1042 l 174 1042 q 149 1104 174 1080 q 87 1128 125 1128 q 24 1104 49 1128 q 0 1042 0 1080 l 0 326 l 0 326 l 0 0 l 0 0 q 24 -62 0 -38 q 87 -87 49 -87 q 149 -62 125 -87 q 174 0 174 -38 l 174 290 l 174 290 l 350 472 l 350 472 l 711 -49 l 711 -49 q 765 -87 732 -79 q 830 -71 800 -92 q 865 -16 860 -49 q 852 49 873 19 l 472 600 l 472 600 l 844 982 l 844 982 "},"L":{"ha":868,"x_min":87,"x_max":868,"o":"m 174 1128 l 174 1128 q 111 1104 136 1128 q 87 1042 87 1080 l 87 1042 l 87 0 q 111 -62 87 -38 q 174 -87 136 -87 l 174 -87 l 781 -87 q 844 -62 819 -87 q 868 0 868 -38 q 844 62 868 38 q 781 87 819 87 l 781 87 l 260 87 l 260 87 l 260 1042 q 236 1104 260 1080 l 236 1104 l 236 1104 q 174 1128 212 1128 "},"l":{"ha":868,"x_min":87,"x_max":868,"o":"m 174 1128 q 236 1104 212 1128 l 236 1104 l 236 1104 q 260 1042 260 1080 l 260 87 l 260 87 l 781 87 l 781 87 q 844 62 819 87 q 868 0 868 38 q 844 -62 868 -38 q 781 -87 819 -87 l 174 -87 l 174 -87 q 111 -62 136 -87 q 87 0 87 -38 l 87 1042 l 87 1042 q 111 1104 87 1080 q 174 1128 136 1128 l 174 1128 "},"M":{"ha":1215,"x_min":0,"x_max":1215,"o":"m 62 1126 l 62 1126 q 0 1042 3 1104 l 0 1042 l 0 0 q 24 -62 0 -38 q 87 -87 49 -87 q 149 -62 125 -87 q 174 0 174 -38 l 174 0 l 174 754 l 174 754 l 534 212 q 608 174 562 174 q 681 212 654 174 l 681 212 l 1042 754 l 1042 754 l 1042 0 q 1066 -62 1042 -38 q 1128 -87 1090 -87 q 1191 -62 1166 -87 q 1215 0 1215 -38 l 1215 0 l 1215 1042 q 1153 1126 1213 1104 q 1055 1090 1093 1139 l 1055 1090 l 608 418 l 608 418 l 160 1090 q 62 1126 122 1139 "},"m":{"ha":1215,"x_min":0,"x_max":1215,"o":"m 62 1126 q 160 1090 122 1139 l 608 418 l 608 418 l 1055 1090 l 1055 1090 q 1153 1126 1093 1139 q 1215 1042 1213 1104 l 1215 0 l 1215 0 q 1191 -62 1215 -38 q 1128 -87 1166 -87 q 1066 -62 1090 -87 q 1042 0 1042 -38 l 1042 754 l 1042 754 l 681 212 l 681 212 q 608 174 654 174 q 534 212 562 174 l 174 754 l 174 754 l 174 0 l 174 0 q 149 -62 174 -38 q 87 -87 125 -87 q 24 -62 49 -87 q 0 0 0 -38 l 0 1042 l 0 1042 q 62 1126 3 1104 l 62 1126 "},"N":{"ha":1042,"x_min":0,"x_max":1042,"o":"m 57 1123 l 57 1123 q 0 1042 3 1101 l 0 1042 l 0 0 q 24 -62 0 -38 q 87 -87 49 -87 q 149 -62 125 -87 q 174 0 174 -38 l 174 0 l 174 803 l 174 803 l 887 -57 q 985 -81 928 -98 q 1042 0 1039 -60 l 1042 0 l 1042 1042 q 1017 1104 1042 1080 q 955 1128 993 1128 q 892 1104 917 1128 q 868 1042 868 1080 l 868 1042 l 868 239 l 868 239 l 155 1096 q 57 1123 114 1139 "},"n":{"ha":1042,"x_min":0,"x_max":1042,"o":"m 57 1123 q 155 1096 114 1139 l 868 239 l 868 239 l 868 1042 l 868 1042 q 892 1104 868 1080 q 955 1128 917 1128 q 1017 1104 993 1128 q 1042 1042 1042 1080 l 1042 0 l 1042 0 q 985 -81 1039 -60 q 887 -57 928 -98 l 174 803 l 174 803 l 174 0 l 174 0 q 149 -62 174 -38 q 87 -87 125 -87 q 24 -62 49 -87 q 0 0 0 -38 l 0 1042 l 0 1042 q 57 1123 3 1101 l 57 1123 "},"O":{"ha":1215,"x_min":0,"x_max":1215,"o":"m 608 955 l 608 955 q 825 898 724 955 q 985 738 925 838 q 1042 521 1042 635 q 985 304 1042 407 q 825 144 925 203 q 608 87 724 87 q 391 144 491 87 q 231 304 290 203 q 174 521 174 407 q 231 738 174 635 q 391 898 290 838 l 391 898 l 391 898 q 608 955 491 955 m 1215 521 l 1215 521 q 1134 825 1213 686 q 911 1047 1053 963 q 608 1128 768 1128 q 304 1047 448 1128 q 81 825 163 963 q 0 521 3 686 q 81 217 3 355 q 304 -5 163 79 q 608 -87 448 -87 q 911 -5 768 -87 q 1134 217 1053 79 l 1134 217 l 1134 217 q 1215 521 1213 355 "},"o":{"ha":1215,"x_min":0,"x_max":1215,"o":"m 608 955 q 391 898 491 955 l 391 898 l 391 898 q 231 738 290 838 q 174 521 174 635 q 231 304 174 407 q 391 144 290 203 q 608 87 491 87 q 825 144 724 87 q 985 304 925 203 q 1042 521 1042 407 q 985 738 1042 635 q 825 898 925 838 q 608 955 724 955 l 608 955 m 1215 521 q 1134 217 1213 355 l 1134 217 l 1134 217 q 911 -5 1053 79 q 608 -87 768 -87 q 304 -5 448 -87 q 81 217 163 79 q 0 521 3 355 q 81 825 3 686 q 304 1047 163 963 q 608 1128 448 1128 q 911 1047 768 1128 q 1134 825 1053 963 q 1215 521 1213 686 l 1215 521 "},"P":{"ha":868,"x_min":0,"x_max":868,"o":"m 0 955 l 0 955 l 0 347 l 0 347 l 0 0 q 24 -62 0 -38 q 87 -87 49 -87 q 149 -62 125 -87 q 174 0 174 -38 l 174 0 l 174 260 l 174 260 l 434 260 q 741 388 618 266 q 868 694 863 510 q 741 1001 863 879 q 434 1128 618 1123 l 434 1128 l 174 1128 q 52 1077 100 1126 l 52 1077 l 52 1077 q 0 955 3 1028 m 174 434 l 174 434 l 174 955 l 174 955 l 434 955 q 618 879 545 952 q 694 694 692 806 q 618 510 692 583 q 434 434 545 437 l 174 434 l 434 434 l 174 434 "},"p":{"ha":868,"x_min":0,"x_max":868,"o":"m 0 955 q 52 1077 3 1028 l 52 1077 l 52 1077 q 174 1128 100 1126 l 434 1128 l 434 1128 q 741 1001 618 1123 q 868 694 863 879 q 741 388 863 510 q 434 260 618 266 l 174 260 l 174 260 l 174 0 l 174 0 q 149 -62 174 -38 q 87 -87 125 -87 q 24 -62 49 -87 q 0 0 0 -38 l 0 347 l 0 347 l 0 955 l 0 955 m 174 434 l 434 434 l 174 434 l 434 434 q 618 510 545 437 q 694 694 692 583 q 618 879 692 806 q 434 955 545 952 l 174 955 l 174 955 l 174 434 l 174 434 "},"Q":{"ha":1215,"x_min":0,"x_max":1218,"o":"m 174 521 l 174 521 q 301 827 179 705 q 608 955 423 949 q 914 827 792 949 q 1042 521 1036 705 q 955 258 1039 372 l 955 258 l 762 488 q 703 521 738 518 q 640 502 667 524 q 608 442 610 477 q 627 377 605 407 l 627 377 l 822 144 q 608 87 727 90 q 301 214 423 92 l 301 214 l 301 214 q 174 521 179 336 m 936 8 l 936 8 l 1061 -144 q 1120 -174 1085 -171 q 1183 -155 1156 -176 q 1215 -95 1213 -130 q 1196 -33 1218 -60 l 1196 -33 l 1066 122 q 1215 521 1210 288 q 1131 827 1213 692 q 914 1044 1053 966 q 608 1128 779 1126 q 301 1044 437 1126 q 84 827 163 966 q 0 521 3 692 q 84 214 3 350 q 301 -3 163 76 q 608 -87 437 -84 q 936 8 792 -84 "},"q":{"ha":1215,"x_min":0,"x_max":1218,"o":"m 174 521 q 301 214 179 336 l 301 214 l 301 214 q 608 87 423 92 q 822 144 727 90 l 627 377 l 627 377 q 608 442 605 407 q 640 502 610 477 q 703 521 667 524 q 762 488 738 518 l 955 258 l 955 258 q 1042 521 1039 372 q 914 827 1036 705 q 608 955 792 949 q 301 827 423 949 q 174 521 179 705 l 174 521 m 936 8 q 608 -87 792 -84 q 301 -3 437 -84 q 84 214 163 76 q 0 521 3 350 q 84 827 3 692 q 301 1044 163 966 q 608 1128 437 1126 q 914 1044 779 1126 q 1131 827 1053 966 q 1215 521 1213 692 q 1066 122 1210 288 l 1196 -33 l 1196 -33 q 1215 -95 1218 -60 q 1183 -155 1213 -130 q 1120 -174 1156 -176 q 1061 -144 1085 -171 l 936 8 l 936 8 "},"R":{"ha":868,"x_min":0,"x_max":873,"o":"m 174 1128 l 174 1128 l 477 1128 q 754 1015 643 1123 q 868 738 863 903 q 800 518 865 613 q 624 374 732 420 l 624 374 l 852 49 q 868 -16 873 19 q 830 -71 860 -49 q 765 -87 800 -92 q 711 -49 732 -79 l 711 -49 l 431 347 l 431 347 l 174 347 l 174 347 l 174 0 q 149 -62 174 -38 q 87 -87 125 -87 q 24 -62 49 -87 q 0 0 0 -38 l 0 0 l 0 434 l 0 434 l 0 955 q 52 1077 3 1028 l 52 1077 l 52 1077 q 174 1128 100 1126 m 477 521 l 477 521 q 632 583 570 524 q 694 738 692 646 q 632 892 692 830 q 477 955 570 952 l 477 955 l 174 955 l 174 955 l 174 521 l 477 521 l 174 521 l 477 521 "},"r":{"ha":868,"x_min":0,"x_max":873,"o":"m 174 1128 q 52 1077 100 1126 l 52 1077 l 52 1077 q 0 955 3 1028 l 0 434 l 0 434 l 0 0 l 0 0 q 24 -62 0 -38 q 87 -87 49 -87 q 149 -62 125 -87 q 174 0 174 -38 l 174 347 l 174 347 l 431 347 l 431 347 l 711 -49 l 711 -49 q 765 -87 732 -79 q 830 -71 800 -92 q 868 -16 860 -49 q 852 49 873 19 l 624 374 l 624 374 q 800 518 732 420 q 868 738 865 613 q 754 1015 863 903 q 477 1128 643 1123 l 174 1128 l 174 1128 m 477 521 l 174 521 l 477 521 l 174 521 l 174 955 l 174 955 l 477 955 l 477 955 q 632 892 570 952 q 694 738 692 830 q 632 583 692 646 q 477 521 570 524 l 477 521 "},"S":{"ha":868,"x_min":-11,"x_max":879,"o":"m 269 930 l 269 928 q 510 947 355 968 l 510 947 l 524 1031 l 524 1031 l 510 947 q 591 930 537 941 q 673 914 646 922 q 738 922 708 906 q 779 977 768 941 q 770 1042 787 1012 q 716 1082 751 1072 q 624 1101 684 1090 q 537 1118 567 1115 q 201 1088 350 1150 q 5 852 43 1025 l 5 852 l 92 838 l 92 838 l 5 852 q 24 673 -11 754 q 127 551 62 594 q 260 483 190 510 q 401 439 334 458 q 410 437 404 439 q 410 437 410 437 q 640 350 562 399 q 686 298 675 326 q 692 220 700 274 q 600 111 681 146 q 358 95 513 73 q 269 117 323 100 q 163 152 217 136 q 157 155 160 155 q 114 168 133 163 q 49 165 79 179 q 5 114 16 149 q 8 49 -5 79 q 60 3 24 16 q 68 0 62 3 q 92 -8 79 -3 q 214 -46 146 -27 q 331 -76 279 -68 q 331 -76 331 -76 q 331 -76 331 -76 l 331 -76 l 331 -76 q 667 -49 518 -109 q 863 190 825 16 q 844 369 879 288 q 741 491 806 448 q 608 559 678 532 q 467 602 534 583 q 458 605 464 602 q 458 605 458 605 q 228 692 307 643 q 182 743 193 716 q 176 822 168 768 q 269 930 187 895 "},"s":{"ha":868,"x_min":-11,"x_max":879,"o":"m 269 930 q 176 822 187 895 q 182 743 168 768 q 228 692 193 716 q 458 605 307 643 q 458 605 458 605 q 467 602 464 602 q 608 559 534 583 q 741 491 678 532 q 844 369 806 448 q 863 190 879 288 q 667 -49 825 16 q 331 -76 518 -109 l 331 -76 l 331 -76 q 331 -76 331 -76 q 331 -76 331 -76 q 214 -46 279 -68 q 92 -8 146 -27 q 68 0 79 -3 q 60 3 62 3 q 8 49 24 16 q 5 114 -5 79 q 49 165 16 149 q 114 168 79 179 q 157 155 133 163 q 163 152 160 155 q 269 117 217 136 q 358 95 323 100 q 600 111 513 73 q 692 220 681 146 q 686 298 700 274 q 640 350 675 326 q 410 437 562 399 q 410 437 410 437 q 401 439 404 439 q 260 483 334 458 q 127 551 190 510 q 24 673 62 594 q 5 852 -11 754 l 92 838 l 92 838 l 5 852 l 5 852 q 201 1088 43 1025 q 537 1118 350 1150 q 624 1101 567 1115 q 716 1082 684 1090 q 770 1042 751 1072 q 779 977 787 1012 q 738 922 768 941 q 673 914 708 906 q 591 930 646 922 q 510 947 537 941 l 524 1031 l 524 1031 l 510 947 l 510 947 q 269 928 355 968 l 269 930 "},"T":{"ha":1042,"x_min":0,"x_max":1042,"o":"m 87 1128 l 521 1128 l 955 1128 q 1017 1104 993 1128 q 1042 1042 1042 1080 q 1017 979 1042 1004 q 955 955 993 955 l 955 955 l 608 955 l 608 955 l 608 0 q 583 -62 608 -38 q 521 -87 559 -87 q 458 -62 483 -87 q 434 0 434 -38 l 434 0 l 434 955 l 434 955 l 87 955 q 24 979 49 955 q 0 1042 0 1004 q 24 1104 0 1080 l 24 1104 l 24 1104 q 87 1128 49 1128 "},"t":{"ha":1042,"x_min":0,"x_max":1042,"o":"m 87 1128 q 24 1104 49 1128 l 24 1104 l 24 1104 q 0 1042 0 1080 q 24 979 0 1004 q 87 955 49 955 l 434 955 l 434 955 l 434 0 l 434 0 q 458 -62 434 -38 q 521 -87 483 -87 q 583 -62 559 -87 q 608 0 608 -38 l 608 955 l 608 955 l 955 955 l 955 955 q 1017 979 993 955 q 1042 1042 1042 1004 q 1017 1104 1042 1080 q 955 1128 993 1128 l 521 1128 l 87 1128 "},"U":{"ha":1042,"x_min":0,"x_max":1042,"o":"m 87 1128 l 87 1128 q 24 1104 49 1128 q 0 1042 0 1080 l 0 1042 l 0 434 q 152 65 5 212 q 521 -87 298 -81 q 890 65 743 -81 q 1042 434 1036 212 l 1042 434 l 1042 1042 q 1017 1104 1042 1080 q 955 1128 993 1128 q 892 1104 917 1128 q 868 1042 868 1080 l 868 1042 l 868 434 q 768 187 865 288 q 521 87 667 90 q 274 187 374 90 q 174 434 176 288 l 174 434 l 174 1042 q 149 1104 174 1080 l 149 1104 l 149 1104 q 87 1128 125 1128 "},"u":{"ha":1042,"x_min":0,"x_max":1042,"o":"m 87 1128 q 149 1104 125 1128 l 149 1104 l 149 1104 q 174 1042 174 1080 l 174 434 l 174 434 q 274 187 176 288 q 521 87 374 90 q 768 187 667 90 q 868 434 865 288 l 868 1042 l 868 1042 q 892 1104 868 1080 q 955 1128 917 1128 q 1017 1104 993 1128 q 1042 1042 1042 1080 l 1042 434 l 1042 434 q 890 65 1036 212 q 521 -87 743 -81 q 152 65 298 -81 q 0 434 5 212 l 0 1042 l 0 1042 q 24 1104 0 1080 q 87 1128 49 1128 l 87 1128 "},"V":{"ha":1042,"x_min":-5,"x_max":1047,"o":"m 54 1120 l 54 1120 q 5 1074 19 1107 q 8 1009 -5 1042 l 8 1009 l 442 -33 q 521 -87 464 -84 q 602 -33 578 -84 l 602 -33 l 1036 1009 q 1036 1074 1047 1042 q 987 1120 1023 1107 q 922 1123 955 1134 q 876 1074 890 1109 l 876 1074 l 521 225 l 521 225 l 168 1074 q 119 1123 152 1109 l 119 1123 l 119 1123 q 54 1120 87 1134 "},"v":{"ha":1042,"x_min":-5,"x_max":1047,"o":"m 54 1120 q 119 1123 87 1134 l 119 1123 l 119 1123 q 168 1074 152 1109 l 521 225 l 521 225 l 876 1074 l 876 1074 q 922 1123 890 1109 q 987 1120 955 1134 q 1036 1074 1023 1107 q 1036 1009 1047 1042 l 602 -33 l 602 -33 q 521 -87 578 -84 q 442 -33 464 -84 l 8 1009 l 8 1009 q 5 1074 -5 1042 q 54 1120 19 1107 l 54 1120 "},"W":{"ha":1563,"x_min":-5,"x_max":1568,"o":"m 57 1123 l 57 1123 q 8 1077 22 1109 q 5 1012 -5 1047 l 5 1012 l 396 -30 q 480 -87 420 -87 q 562 -24 540 -81 l 562 -24 l 781 732 l 781 732 l 1001 -24 q 1082 -87 1020 -81 q 1166 -30 1142 -87 l 1166 -30 l 1557 1012 q 1554 1077 1568 1047 q 1506 1123 1541 1109 q 1440 1120 1470 1134 q 1394 1072 1408 1107 l 1394 1072 l 1096 274 l 1096 274 l 865 1066 q 781 1128 844 1126 q 697 1066 719 1126 l 697 1066 l 467 274 l 467 274 l 168 1072 q 122 1120 155 1107 l 122 1120 l 122 1120 q 57 1123 92 1134 "},"w":{"ha":1563,"x_min":-5,"x_max":1568,"o":"m 57 1123 q 122 1120 92 1134 l 122 1120 l 122 1120 q 168 1072 155 1107 l 467 274 l 467 274 l 697 1066 l 697 1066 q 781 1128 719 1126 q 865 1066 844 1126 l 1096 274 l 1096 274 l 1394 1072 l 1394 1072 q 1440 1120 1408 1107 q 1506 1123 1470 1134 q 1554 1077 1541 1109 q 1557 1012 1568 1047 l 1166 -30 l 1166 -30 q 1082 -87 1142 -87 q 1001 -24 1020 -81 l 781 732 l 781 732 l 562 -24 l 562 -24 q 480 -87 540 -81 q 396 -30 420 -87 l 5 1012 l 5 1012 q 8 1077 -5 1047 q 57 1123 22 1109 l 57 1123 "},"X":{"ha":1042,"x_min":-3,"x_max":1044,"o":"m 1023 985 l 1023 985 l 635 521 l 635 521 l 1023 54 q 1042 -8 1044 27 q 1012 -68 1039 -43 q 947 -87 982 -90 q 887 -57 911 -84 l 887 -57 l 521 385 l 521 385 l 155 -57 q 95 -87 130 -84 q 33 -68 60 -90 q 0 -8 3 -43 q 19 54 -3 27 l 19 54 l 407 521 l 407 521 l 19 985 q 0 1050 -3 1015 q 33 1109 3 1085 q 95 1128 60 1131 q 155 1096 130 1126 l 155 1096 l 521 656 l 521 656 l 887 1096 q 947 1128 911 1126 q 1012 1109 982 1131 q 1042 1050 1039 1085 l 1042 1050 l 1042 1050 q 1023 985 1044 1015 "},"x":{"ha":1042,"x_min":-3,"x_max":1044,"o":"m 1023 985 q 1042 1050 1044 1015 l 1042 1050 l 1042 1050 q 1012 1109 1039 1085 q 947 1128 982 1131 q 887 1096 911 1126 l 521 656 l 521 656 l 155 1096 l 155 1096 q 95 1128 130 1126 q 33 1109 60 1131 q 0 1050 3 1085 q 19 985 -3 1015 l 407 521 l 407 521 l 19 54 l 19 54 q 0 -8 -3 27 q 33 -68 3 -43 q 95 -87 60 -90 q 155 -57 130 -84 l 521 385 l 521 385 l 887 -57 l 887 -57 q 947 -87 911 -84 q 1012 -68 982 -90 q 1042 -8 1039 -43 q 1023 54 1044 27 l 635 521 l 635 521 l 1023 985 l 1023 985 "},"Y":{"ha":1042,"x_min":-5,"x_max":1047,"o":"m 157 1093 l 157 1093 l 521 583 l 521 583 l 884 1093 q 941 1128 906 1120 q 1006 1112 974 1134 q 1042 1055 1034 1090 q 1025 990 1047 1023 l 1025 990 l 608 407 l 608 407 l 608 0 q 583 -62 608 -38 q 521 -87 559 -87 q 458 -62 483 -87 q 434 0 434 -38 l 434 0 l 434 407 l 434 407 l 16 990 q 0 1055 -5 1023 q 35 1112 8 1090 q 100 1128 68 1134 l 100 1128 l 100 1128 q 157 1093 136 1120 "},"y":{"ha":1042,"x_min":-5,"x_max":1047,"o":"m 157 1093 q 100 1128 136 1120 l 100 1128 l 100 1128 q 35 1112 68 1134 q 0 1055 8 1090 q 16 990 -5 1023 l 434 407 l 434 407 l 434 0 l 434 0 q 458 -62 434 -38 q 521 -87 483 -87 q 583 -62 559 -87 q 608 0 608 -38 l 608 407 l 608 407 l 1025 990 l 1025 990 q 1042 1055 1047 1023 q 1006 1112 1034 1090 q 941 1128 974 1134 q 884 1093 906 1120 l 521 583 l 521 583 l 157 1093 l 157 1093 "},"Z":{"ha":1042,"x_min":-14,"x_max":1055,"o":"m 0 1042 l 0 1042 q 24 979 0 1004 q 87 955 49 955 l 87 955 l 770 955 l 770 955 l 19 54 q 8 -38 -14 14 q 87 -87 33 -84 l 87 -87 l 955 -87 q 1017 -62 993 -87 q 1042 0 1042 -38 q 1017 62 1042 38 q 955 87 993 87 l 955 87 l 271 87 l 271 87 l 1023 985 q 1034 1080 1055 1028 q 955 1128 1009 1126 l 955 1128 l 87 1128 q 24 1104 49 1128 l 24 1104 l 24 1104 q 0 1042 0 1080 "},"z":{"ha":1042,"x_min":-14,"x_max":1055,"o":"m 0 1042 q 24 1104 0 1080 l 24 1104 l 24 1104 q 87 1128 49 1128 l 955 1128 l 955 1128 q 1034 1080 1009 1126 q 1023 985 1055 1028 l 271 87 l 271 87 l 955 87 l 955 87 q 1017 62 993 87 q 1042 0 1042 38 q 1017 -62 1042 -38 q 955 -87 993 -87 l 87 -87 l 87 -87 q 8 -38 33 -84 q 19 54 -14 14 l 770 955 l 770 955 l 87 955 l 87 955 q 24 979 49 955 q 0 1042 0 1004 l 0 1042 "},"":{"ha":1389,"x_min":33,"x_max":1364,"o":"m 353 868 l 353 868 l 353 868 q 353 868 353 868 m 1308 746 l 1308 746 q 1308 743 1308 746 q 1343 627 1318 722 q 1345 388 1364 532 q 1126 -3 1305 149 q 694 -163 944 -157 q 361 -71 510 -160 q 122 165 212 16 q 33 499 35 315 q 38 559 33 518 q 52 643 41 600 q 122 814 76 746 q 201 917 165 882 q 266 971 231 947 q 277 979 269 974 q 288 985 288 985 q 290 906 285 960 q 312 819 293 849 l 312 819 l 312 819 q 472 941 369 890 q 472 779 450 860 q 491 768 480 773 q 529 730 502 757 q 534 722 532 727 q 597 678 559 700 q 665 646 635 659 q 694 627 694 629 q 662 586 692 613 q 616 553 635 556 q 437 496 477 548 q 396 439 393 448 q 477 279 404 355 q 670 195 548 203 q 909 293 836 193 q 963 518 985 396 q 825 708 944 640 q 914 703 873 713 q 985 667 958 689 q 892 773 963 711 q 694 838 822 833 q 559 806 624 836 l 559 806 l 556 806 q 551 806 553 806 q 545 808 548 806 q 540 811 540 808 q 537 819 537 814 q 537 830 534 825 q 545 838 540 836 q 675 871 608 868 q 749 1055 692 963 q 901 1204 806 1147 l 901 1204 l 901 1204 q 903 1202 903 1204 q 936 1137 901 1196 q 1066 968 998 1042 q 1161 854 1118 914 q 1240 711 1207 795 q 1240 713 1240 713 q 1175 914 1229 800 q 1248 846 1210 895 l 1248 846 l 1248 846 q 1308 746 1283 800 "},"":{"ha":1563,"x_min":87,"x_max":1497,"o":"m 342 768 l 342 768 q 434 727 396 765 q 475 632 472 689 q 391 510 469 548 q 247 540 309 480 q 217 684 187 602 q 342 768 255 762 m 233 60 l 233 442 l 448 442 l 448 442 l 448 60 l 233 60 l 448 60 l 233 60 m 646 635 l 646 635 q 629 581 643 594 q 594 570 613 570 l 594 570 l 556 570 l 556 570 l 556 694 l 556 694 l 594 694 q 629 686 613 697 l 629 686 l 629 686 q 646 635 643 673 m 1191 510 l 1345 510 q 1226 184 1345 307 q 814 60 1104 62 l 814 60 l 556 60 l 556 60 l 556 510 l 556 510 l 594 510 q 705 635 703 513 q 594 757 703 751 l 594 757 l 556 757 l 556 757 l 556 982 l 556 982 l 814 982 q 1053 949 936 982 q 1251 827 1169 917 q 1345 570 1329 738 l 1345 570 l 1253 570 l 1253 570 l 1253 757 l 1253 757 l 1191 757 l 1191 510 l 1191 757 l 1191 510 m 895 510 l 895 570 l 803 570 l 803 570 l 803 605 l 803 605 l 884 605 l 884 605 l 884 667 l 884 667 l 803 667 l 803 667 l 803 694 l 803 694 l 890 694 l 890 694 l 890 757 l 890 757 l 741 757 l 741 757 l 741 510 l 895 510 l 741 510 l 895 510 m 1096 510 l 1161 510 l 1085 757 l 1085 757 l 998 757 l 998 757 l 922 510 l 922 510 l 987 510 l 987 510 l 1001 556 l 1001 556 l 1082 556 l 1096 510 l 1082 556 l 1096 510 m 814 1128 l 814 1128 q 1253 1023 1104 1123 q 1449 781 1400 920 q 1495 524 1497 640 q 1318 71 1492 225 q 814 -87 1145 -87 l 814 -87 l 87 -87 l 87 -87 l 87 1128 l 814 1128 l 87 1128 l 814 1128 m 814 -30 l 814 -30 q 1275 111 1118 -30 q 1438 524 1435 250 q 1270 936 1435 803 q 814 1072 1104 1072 l 814 1072 l 144 1072 l 144 1072 l 144 -30 l 814 -30 l 144 -30 l 814 -30 m 1042 689 l 1044 689 l 1063 618 l 1063 618 l 1020 618 l 1042 689 l 1020 618 l 1042 689 "},"":{"ha":1215,"x_min":5,"x_max":1210,"o":"m 1082 233 l 1085 233 q 1025 84 1028 168 q 1074 -68 1023 0 q 1077 -76 1077 -71 q 1061 -87 1072 -87 q 846 49 925 -54 q 822 57 836 60 q 608 19 719 19 q 182 182 350 24 q 5 575 11 339 q 182 966 11 808 q 608 1128 350 1123 q 1034 966 865 1123 q 1210 575 1204 808 q 1082 233 1207 377 m 895 640 l 895 640 q 901 659 903 646 q 884 670 895 670 l 884 670 l 689 675 l 689 675 l 624 860 q 608 871 618 871 q 591 860 594 871 l 591 860 l 526 675 l 526 675 l 331 670 q 315 659 320 670 q 320 640 312 646 l 320 640 l 477 521 l 477 521 l 420 334 q 426 315 418 323 q 448 315 437 309 l 448 315 l 608 426 l 608 426 l 768 315 q 789 315 779 309 q 795 334 798 323 l 795 334 l 738 521 l 895 640 l 738 521 l 895 640 "},"":{"ha":1215,"x_min":0,"x_max":1215,"o":"m 87 79 l 87 79 q 285 374 187 239 q 524 670 385 510 q 838 947 656 825 q 1213 1128 1020 1066 l 1213 1128 l 326 1128 q 98 1034 187 1126 q 3 806 5 941 l 3 806 l 0 -84 l 87 79 l 0 -84 l 87 79 m 1215 1128 l 1215 1128 q 1215 990 1215 1120 q 1215 684 1215 857 q 1215 377 1215 507 q 1215 236 1215 244 q 1120 8 1213 100 q 892 -87 1031 -84 l 892 -87 l 0 -87 q 111 16 43 -33 q 231 92 182 65 q 323 133 277 114 q 518 244 431 174 q 605 374 572 301 q 659 529 635 448 q 711 675 681 605 q 892 914 776 811 l 892 914 l 892 914 q 1109 1072 1012 1015 l 1109 1072 l 1109 1072 q 1215 1128 1210 1128 "},"":{"ha":1215,"x_min":0,"x_max":1215,"o":"m 662 966 l 662 966 l 662 1215 l 662 1215 l 1215 892 l 1215 892 l 1215 244 l 1215 244 l 1004 369 l 1004 369 l 1004 621 q 985 632 998 637 l 985 632 l 727 480 q 713 461 713 475 l 713 461 l 713 157 q 732 146 716 144 l 732 146 l 949 274 l 949 274 l 1161 149 l 1161 149 l 608 -174 l 608 -174 l 54 149 l 54 149 l 266 274 l 266 274 l 483 146 q 502 157 499 144 l 502 157 l 502 461 q 488 480 502 475 l 488 480 l 231 632 q 212 621 217 637 l 212 621 l 212 369 l 212 369 l 0 244 l 0 244 l 0 892 l 0 892 l 553 1215 l 553 1215 l 553 966 l 553 966 l 336 841 q 336 819 326 830 l 336 819 l 597 667 q 621 667 608 662 l 621 667 l 879 819 q 879 841 890 830 l 662 966 l 879 841 l 662 966 "},"":{"ha":1215,"x_min":0,"x_max":1215,"o":"m 811 491 l 811 491 q 857 445 841 475 q 873 382 873 415 q 836 288 873 326 q 743 250 800 250 q 654 288 689 250 q 618 382 618 323 q 654 472 618 437 q 746 507 692 507 q 811 491 781 507 m 0 1128 l 1215 1128 l 1215 -87 l 1215 -87 l 0 -87 l 0 1128 l 0 -87 l 0 1128 m 1017 117 l 1017 833 l 865 800 l 865 800 l 865 589 q 798 635 833 621 q 716 648 760 648 q 586 613 646 648 q 496 515 529 578 q 467 380 467 456 q 496 241 467 304 q 586 146 529 182 q 719 109 646 109 q 871 182 827 109 l 871 182 l 873 182 l 873 182 l 873 117 l 1017 117 l 873 117 l 1017 117 "},"":{"ha":1215,"x_min":0,"x_max":1215,"o":"m 526 640 l 526 640 q 673 651 597 684 q 751 529 743 613 q 689 401 754 448 q 543 391 618 358 q 464 510 472 429 q 526 640 461 594 m 914 827 l 914 827 q 947 776 936 806 l 947 776 l 947 776 q 963 673 960 738 q 963 551 966 608 q 963 521 963 534 q 963 507 963 515 q 963 491 963 499 q 963 369 966 434 q 947 266 960 304 q 914 214 936 236 q 863 182 892 193 q 760 165 825 168 q 637 165 694 163 q 608 165 621 165 q 594 165 602 165 q 578 165 586 165 q 456 165 524 163 q 353 182 391 168 q 301 214 323 193 q 269 266 279 236 q 252 369 255 304 q 252 488 250 434 q 252 491 252 488 q 252 521 252 507 q 252 534 252 526 q 252 551 252 543 q 252 553 252 553 q 252 673 250 608 q 269 776 255 738 q 301 827 279 806 q 353 860 323 849 q 456 876 391 873 q 578 876 521 879 q 608 876 594 876 q 621 876 613 876 q 637 876 629 876 q 760 876 692 879 q 863 860 825 873 q 914 827 892 849 m 732 705 l 732 705 q 510 722 624 773 q 385 534 399 662 q 483 336 382 410 q 705 320 591 269 q 830 507 817 380 q 732 705 833 632 m 811 711 l 811 711 q 841 700 825 700 l 841 700 l 841 700 q 860 705 849 700 q 876 716 868 708 q 887 732 884 724 q 892 754 890 743 q 882 781 890 768 q 860 800 873 795 q 830 803 844 806 q 803 789 814 800 q 789 762 792 779 q 792 732 787 746 q 811 711 798 719 m 1215 955 l 1215 955 l 1215 87 q 1164 -35 1213 14 q 1042 -87 1115 -84 l 1042 -87 l 174 -87 q 52 -35 100 -84 q 0 87 3 14 l 0 87 l 0 955 q 52 1077 3 1028 q 174 1128 100 1126 l 174 1128 l 1042 1128 q 1164 1077 1115 1126 l 1164 1077 l 1164 1077 q 1215 955 1213 1028 m 968 160 l 968 160 q 1039 342 1039 236 q 1042 521 1042 404 q 1039 700 1042 637 q 968 882 1039 806 q 787 952 892 952 q 678 955 749 955 q 537 955 608 955 q 429 952 467 955 q 247 882 323 952 q 176 700 176 806 q 174 591 174 662 q 174 450 174 521 q 176 342 174 380 q 247 160 176 236 q 429 90 323 90 q 537 87 467 87 q 678 87 608 87 q 787 90 749 87 q 968 160 892 90 "},"":{"ha":1389,"x_min":84,"x_max":1305,"o":"m 312 1009 l 659 543 q 659 502 670 521 l 659 502 l 309 33 q 222 -16 277 -11 q 127 16 168 -22 q 87 98 90 49 q 114 184 84 144 l 114 184 l 363 524 l 363 524 l 114 857 q 90 944 87 898 q 127 1025 92 993 q 222 1058 168 1063 q 312 1009 277 1053 m 1275 184 l 1275 184 q 1302 98 1305 144 q 1264 16 1299 49 q 1166 -16 1221 -22 q 1080 33 1112 -11 l 1080 33 l 730 505 q 730 543 719 524 l 730 543 l 1077 1009 q 1166 1058 1112 1053 q 1261 1025 1221 1063 q 1299 944 1297 993 q 1275 857 1302 898 l 1275 857 l 1025 524 l 1275 184 l 1025 524 l 1275 184 "},"":{"ha":1215,"x_min":14,"x_max":1202,"o":"m 1053 933 l 1053 933 q 1077 773 1055 922 q 1128 431 1099 627 q 1177 90 1156 236 q 1202 -65 1199 -57 l 1202 -65 l 860 -149 l 860 -149 l 860 1025 q 909 977 879 1004 q 941 947 939 949 q 990 944 947 947 q 1042 944 1031 944 q 1053 933 1053 941 m 784 1025 l 784 1025 q 822 1036 822 1036 q 836 1036 830 1036 l 836 1036 l 836 -152 l 836 -152 l 14 -11 q 30 111 16 -3 q 65 377 46 225 q 100 646 84 529 q 117 781 117 765 q 127 817 119 808 q 160 830 133 825 q 290 871 168 836 q 361 1061 304 966 q 545 1194 442 1188 q 627 1161 594 1196 q 629 1158 629 1158 q 632 1156 632 1156 q 643 1156 637 1156 q 762 1072 719 1156 q 784 1025 776 1050 m 632 977 l 632 977 q 610 1107 637 1039 q 564 1072 583 1090 q 496 936 518 1017 q 562 955 529 944 l 562 955 l 562 955 q 632 977 600 966 m 545 1150 l 545 1150 q 410 1055 467 1142 q 334 884 353 971 q 448 920 388 901 q 532 1101 469 1025 q 583 1139 556 1126 q 545 1150 564 1150 m 418 551 l 418 551 q 429 589 415 564 q 499 621 439 616 q 570 613 543 624 q 600 605 600 605 l 600 605 l 643 760 q 616 768 643 762 q 534 773 589 776 q 336 684 399 760 q 279 507 271 608 q 315 412 285 448 q 377 358 345 380 q 445 271 434 328 q 434 239 445 255 q 393 217 420 220 q 307 241 347 217 q 263 269 266 266 l 263 269 l 233 149 q 233 149 233 149 q 288 111 233 144 q 439 79 339 79 q 572 146 524 87 q 616 304 621 206 q 570 418 610 377 l 570 418 l 570 418 q 486 483 529 458 l 486 483 l 486 483 q 418 551 426 513 m 675 990 l 675 990 q 741 1009 713 1001 q 713 1069 735 1036 q 656 1109 694 1099 q 675 990 678 1044 "},"":{"ha":1563,"x_min":0,"x_max":1563,"o":"m 1223 551 l 1223 749 l 1563 749 l 1563 749 l 1563 551 l 1223 551 l 1563 551 l 1223 551 m 1223 1023 l 1563 1023 l 1563 827 l 1563 827 l 1223 827 l 1223 1023 l 1223 827 l 1223 1023 m 1223 277 l 1223 475 l 1563 475 l 1563 475 l 1563 277 l 1223 277 l 1563 277 l 1223 277 m 0 3 l 0 201 l 339 201 l 339 201 l 339 3 l 0 3 l 339 3 l 0 3 m 407 3 l 407 201 l 746 201 l 746 201 l 746 3 l 407 3 l 746 3 l 407 3 m 817 3 l 817 201 l 1156 201 l 1156 201 l 1156 3 l 817 3 l 1156 3 l 817 3 m 1223 3 l 1223 201 l 1563 201 l 1563 201 l 1563 3 l 1223 3 l 1563 3 l 1223 3 m 817 277 l 817 475 l 1156 475 l 1156 475 l 1156 277 l 817 277 l 1156 277 l 817 277 m 407 277 l 407 475 l 746 475 l 746 475 l 746 277 l 407 277 l 746 277 l 407 277 m 407 551 l 407 749 l 746 749 l 746 749 l 746 551 l 407 551 l 746 551 l 407 551 "},"":{"ha":1389,"x_min":71,"x_max":1324,"o":"m 71 597 l 71 597 q 71 597 71 597 l 71 597 l 71 597 l 71 597 m 1318 553 l 1318 553 l 1318 412 l 1318 412 l 467 412 q 610 176 477 241 q 917 133 746 111 q 1204 231 1088 152 l 1204 231 l 1204 -54 q 917 -144 1101 -117 q 553 -111 732 -171 q 320 76 410 -52 q 228 355 231 206 q 312 670 225 543 q 553 865 399 795 q 499 776 521 827 q 461 651 475 727 l 461 651 l 939 651 q 882 852 947 792 q 743 925 814 914 q 667 936 675 939 q 307 825 458 925 q 71 597 157 727 q 258 1012 100 838 q 703 1194 418 1185 q 1017 1115 876 1194 q 1240 887 1156 1036 q 1318 553 1324 732 "},"":{"ha":1736,"x_min":-30,"x_max":1736,"o":"m 288 632 l 556 632 q 562 572 562 602 q 477 358 559 437 q 288 288 404 290 q 136 331 203 290 q 30 448 68 374 l 30 448 l 30 450 q 30 711 -30 581 q 136 827 68 784 q 288 871 203 868 q 477 795 399 871 l 477 795 l 396 711 q 288 754 350 757 q 187 722 231 754 q 125 635 144 689 l 125 635 l 125 635 q 125 524 109 581 q 187 437 144 472 q 288 404 231 404 q 385 431 345 404 q 442 521 431 464 l 442 521 l 288 521 l 288 632 l 288 521 l 288 632 m 1343 643 l 1343 643 q 1383 537 1383 605 l 1383 537 l 1383 323 l 1383 323 l 1324 323 l 1324 323 l 1324 372 l 1324 372 l 1321 372 q 1215 312 1280 312 q 1120 347 1158 312 q 1082 431 1082 380 q 1123 515 1082 486 q 1229 548 1161 548 q 1324 526 1286 548 l 1324 526 l 1324 543 q 1297 600 1324 578 q 1234 624 1270 624 q 1150 578 1183 624 l 1150 578 l 1093 613 q 1232 681 1139 681 q 1343 643 1302 681 m 1291 401 l 1291 401 q 1324 472 1324 431 q 1240 496 1294 496 q 1175 477 1199 496 q 1147 429 1147 458 q 1169 388 1147 404 q 1218 372 1191 369 q 1291 401 1261 372 m 1036 787 l 1036 787 q 1082 684 1080 743 q 1044 581 1085 624 q 1039 575 1042 578 q 1036 572 1039 572 q 928 529 993 529 l 928 529 l 822 529 l 822 529 l 822 323 l 822 323 l 757 323 l 757 323 l 757 830 l 757 830 l 928 830 q 1036 787 990 830 m 993 616 l 993 618 q 1017 681 1017 646 q 990 743 1015 716 q 928 768 963 768 l 928 768 l 822 768 l 822 768 l 822 591 l 822 591 l 928 591 q 993 616 966 591 m 1666 670 l 1736 670 l 1522 171 l 1522 171 l 1457 171 l 1457 171 l 1535 345 l 1535 345 l 1394 670 l 1394 670 l 1465 670 l 1465 670 l 1565 420 l 1565 420 l 1568 420 l 1666 670 l 1568 420 l 1666 670 "},"":{"ha":1389,"x_min":0,"x_max":1389,"o":"m 1381 537 l 1378 537 q 1389 521 1389 532 q 1378 505 1389 510 l 1378 505 l 1321 467 q 1318 450 1318 458 l 1318 450 l 1370 404 q 1375 385 1378 396 q 1362 372 1373 374 l 1362 372 l 1297 347 q 1294 331 1297 339 l 1294 331 l 1335 274 q 1337 255 1340 266 q 1321 244 1332 244 l 1321 244 l 1253 231 q 1251 228 1251 231 q 1245 217 1248 222 l 1245 217 l 1272 155 q 1272 136 1278 144 q 1256 125 1267 125 l 1256 125 l 1185 127 q 1175 117 1180 122 l 1175 117 l 1191 49 q 1185 30 1194 38 q 1166 24 1177 22 l 1166 24 l 1099 41 q 1088 30 1093 35 l 1088 30 l 1090 -41 q 1080 -57 1090 -52 q 1061 -57 1072 -62 l 1061 -57 l 998 -30 q 987 -35 993 -33 q 985 -38 985 -35 l 985 -38 l 971 -106 q 960 -122 971 -117 q 941 -119 949 -125 l 941 -119 l 884 -79 q 873 -81 879 -79 q 868 -81 871 -81 l 868 -81 l 844 -146 q 830 -160 841 -157 q 811 -155 819 -163 l 811 -155 l 765 -103 q 749 -106 757 -103 l 749 -106 l 711 -163 q 694 -174 705 -174 q 678 -163 684 -174 l 678 -163 l 640 -106 q 640 -106 640 -106 q 624 -103 632 -103 l 624 -103 l 578 -155 q 559 -160 570 -163 q 545 -146 548 -157 l 545 -146 l 521 -81 q 515 -81 518 -81 q 505 -79 510 -79 l 505 -79 l 448 -119 q 429 -122 439 -125 q 418 -106 418 -117 l 418 -106 l 404 -38 q 404 -35 404 -35 q 391 -30 396 -33 l 391 -30 l 328 -57 q 309 -57 317 -62 q 298 -41 298 -52 l 298 -41 l 301 30 q 290 41 296 35 l 290 41 l 222 24 q 203 30 212 22 q 198 49 195 38 l 198 49 l 214 117 q 203 127 209 122 l 203 127 l 136 125 q 117 136 122 125 q 117 155 111 144 l 117 155 l 144 217 q 138 231 141 222 q 136 231 138 231 l 136 231 l 68 244 q 52 255 57 244 q 54 274 49 266 l 54 274 l 95 331 q 92 342 95 336 q 92 347 92 345 l 92 347 l 27 372 q 14 385 16 374 q 19 404 11 396 l 19 404 l 71 450 q 68 467 71 458 l 68 467 l 8 505 q 0 521 0 510 q 8 537 0 532 l 8 537 l 68 575 q 71 591 71 583 l 71 591 l 19 637 q 14 656 11 646 q 27 670 16 667 l 27 670 l 92 694 q 92 697 92 697 q 95 711 95 705 l 95 711 l 54 768 q 52 787 49 776 q 68 798 57 798 l 68 798 l 136 811 q 138 811 138 811 q 144 825 141 817 l 144 825 l 117 887 q 117 906 111 898 q 136 914 122 917 l 136 914 l 203 914 q 214 925 209 920 l 214 925 l 198 993 q 203 1012 195 1004 q 222 1017 212 1020 l 222 1017 l 290 1001 q 301 1009 296 1006 q 301 1012 301 1012 l 301 1012 l 298 1080 q 309 1099 298 1090 q 328 1099 317 1104 l 328 1099 l 391 1072 q 404 1077 399 1074 q 404 1080 404 1077 l 404 1080 l 418 1147 q 429 1164 418 1158 q 448 1161 439 1166 l 448 1161 l 505 1120 q 515 1123 510 1120 q 521 1123 518 1123 l 521 1123 l 545 1188 q 559 1202 548 1199 q 578 1196 570 1204 l 578 1196 l 624 1145 q 640 1147 632 1145 l 640 1147 l 678 1207 q 694 1215 684 1215 q 711 1207 705 1215 l 711 1207 l 749 1147 q 765 1145 757 1145 l 765 1145 l 811 1196 q 830 1202 819 1204 q 844 1188 841 1199 l 844 1188 l 868 1123 q 884 1120 876 1123 l 884 1120 l 941 1161 q 960 1164 949 1166 q 971 1147 971 1158 l 971 1147 l 985 1077 q 998 1072 990 1074 l 998 1072 l 1061 1099 q 1080 1099 1072 1104 q 1090 1080 1090 1093 l 1090 1080 l 1088 1012 q 1099 1001 1093 1006 l 1099 1001 l 1166 1017 q 1185 1012 1177 1020 q 1191 993 1194 1004 l 1191 993 l 1175 925 q 1185 914 1180 920 l 1185 914 l 1256 917 q 1272 906 1267 917 q 1272 887 1278 898 l 1272 887 l 1245 825 q 1251 811 1248 817 q 1253 811 1251 811 l 1253 811 l 1321 798 q 1337 787 1332 798 q 1335 768 1340 776 l 1335 768 l 1294 711 q 1297 697 1297 703 q 1297 694 1297 697 l 1297 694 l 1362 670 q 1375 656 1373 667 q 1370 637 1378 646 l 1370 637 l 1318 591 q 1321 575 1318 583 l 1381 537 l 1321 575 l 1381 537 m 971 187 l 1058 168 q 1104 222 1082 195 l 1104 222 l 890 222 q 844 250 863 225 q 817 296 822 274 q 800 369 808 323 q 792 404 795 391 q 749 464 776 453 q 711 475 722 475 l 711 475 l 581 475 l 581 475 l 578 380 l 578 380 l 700 380 q 708 374 708 382 l 708 374 l 708 228 q 700 222 708 222 l 700 222 l 285 222 q 328 171 307 195 l 328 171 l 415 190 q 442 184 431 193 q 458 160 456 176 l 458 160 l 480 65 q 692 16 583 16 q 903 62 803 16 l 903 62 l 925 157 q 971 187 936 193 m 1039 95 l 1039 95 q 998 136 1036 130 l 998 136 l 998 136 q 958 95 960 133 q 998 52 960 57 q 1039 95 1036 57 m 429 95 l 429 95 q 388 138 423 133 l 388 138 l 385 138 q 345 95 347 133 q 385 54 347 57 q 429 95 423 57 m 190 581 l 190 581 q 206 385 179 480 l 206 385 l 350 385 l 350 385 l 350 711 l 350 711 l 279 711 l 279 711 l 296 670 q 298 640 304 656 q 277 618 293 627 l 190 581 l 277 618 l 190 581 m 157 678 l 157 678 q 198 637 163 640 q 241 678 236 640 q 201 719 239 713 l 201 719 l 201 719 q 171 708 182 719 q 157 678 157 694 m 578 610 l 738 610 q 789 621 765 610 q 814 656 811 632 q 787 697 811 686 q 751 708 760 708 l 751 708 l 581 708 l 578 610 l 581 708 l 578 610 m 1082 382 l 1082 382 q 1123 399 1104 385 q 1142 456 1142 415 l 1142 456 l 1142 480 q 1150 488 1142 488 l 1150 488 l 1202 488 q 1202 575 1204 532 l 1202 575 l 1107 618 q 1088 667 1077 635 l 1088 667 l 1137 776 q 990 939 1080 876 q 789 1025 901 1004 l 789 1025 l 716 958 q 689 947 705 947 q 665 958 675 947 l 665 958 l 600 1025 q 315 865 431 993 l 315 865 l 854 865 q 898 857 865 865 q 963 830 928 852 q 1017 779 990 814 q 1044 694 1042 746 q 1012 610 1042 646 q 939 551 979 575 q 941 548 941 548 q 993 499 971 526 q 1023 410 1012 472 q 1082 382 1036 382 m 651 1053 l 651 1053 q 692 1012 654 1015 q 732 1050 730 1015 q 694 1093 730 1088 l 694 1093 l 692 1093 q 651 1053 654 1090 m 1185 635 l 1185 635 q 1226 675 1223 637 q 1185 716 1223 713 l 1185 716 l 1185 716 q 1150 697 1161 716 q 1150 656 1139 675 q 1185 635 1161 635 "},"":{"ha":1215,"x_min":-11,"x_max":1215,"o":"m 1215 646 l 1215 882 q 1034 939 1118 884 q 887 1156 917 1017 l 887 1156 l 887 1156 q 882 1215 882 1185 l 882 1215 l 643 1215 l 643 1215 l 643 269 q 605 149 643 201 q 505 76 567 98 q 380 76 439 54 q 277 146 317 95 q 239 266 239 203 q 277 385 239 331 q 377 458 317 439 q 502 461 437 480 l 502 461 l 502 705 q 241 662 363 722 q 54 477 122 600 q 3 220 -11 353 q 109 -22 19 84 q 334 -160 203 -127 q 597 -146 464 -193 q 803 16 727 -95 q 882 269 882 127 l 882 269 l 882 751 q 1215 646 1031 646 "},"":{"ha":1215,"x_min":0,"x_max":1215,"o":"m 1215 591 l 833 591 l 833 252 l 833 252 l 382 252 l 382 252 l 382 591 l 382 591 l 0 591 l 0 591 l 0 -87 l 0 -87 l 1215 -87 l 1215 591 l 1215 -87 l 1215 591 m 833 1128 l 833 789 l 382 789 l 382 789 l 382 1128 l 833 1128 l 382 1128 l 833 1128 "},"":{"ha":1736,"x_min":0,"x_max":1736,"o":"m 1107 347 l 1107 347 q 1183 309 1158 345 q 1194 214 1210 271 l 1194 214 l 1185 184 q 1172 174 1183 174 q 1172 174 1172 174 q 1172 174 1172 174 l 1172 174 l 14 174 q 3 184 5 174 q 0 222 0 203 q 73 404 3 331 q 255 483 146 477 q 263 597 241 543 q 331 684 282 648 q 439 713 382 716 q 545 678 496 713 q 784 925 610 854 q 1128 909 960 993 q 1337 635 1291 817 q 1337 629 1337 632 q 1337 621 1337 627 l 1337 621 l 1299 529 q 1226 434 1278 472 q 1115 391 1175 396 l 1115 391 l 483 382 q 469 372 472 382 q 469 361 467 366 q 480 355 475 355 l 1107 347 l 480 355 l 1107 347 m 1394 616 l 1394 616 q 1636 515 1538 613 q 1736 274 1733 420 q 1723 182 1736 228 q 1712 174 1720 174 l 1712 174 l 1234 174 q 1234 174 1234 174 q 1234 174 1234 174 q 1229 176 1229 174 q 1226 184 1226 179 l 1226 184 l 1237 209 q 1313 304 1261 266 q 1421 347 1364 345 l 1421 347 l 1560 355 q 1576 366 1571 355 q 1573 377 1576 372 q 1565 382 1571 382 l 1565 382 l 1430 391 q 1354 429 1381 393 q 1343 524 1326 467 l 1343 524 l 1367 608 q 1375 616 1370 613 q 1394 616 1386 616 "},"":{"ha":1215,"x_min":14,"x_max":1204,"o":"m 1202 1042 l 1202 1042 q 1188 806 1204 922 l 1188 806 l 274 806 q 274 806 274 806 q 285 716 274 800 q 350 518 296 632 q 475 347 407 412 q 610 252 545 279 q 735 334 678 282 q 830 439 792 382 l 830 439 l 589 439 q 467 675 488 524 l 467 675 l 1172 675 q 1096 453 1145 556 q 993 279 1047 350 q 610 0 841 87 q 524 38 605 -3 q 331 171 442 76 q 130 439 220 266 q 49 678 84 526 q 14 1042 14 830 l 1202 1042 l 14 1042 l 1202 1042 "},"":{"ha":1389,"x_min":0,"x_max":1389,"o":"m 705 524 l 705 524 q 705 518 708 521 l 705 518 l 361 -84 q 355 -87 358 -87 q 350 -84 353 -87 l 350 -84 l 0 518 q 0 524 0 521 l 0 524 l 347 1126 q 353 1128 347 1128 q 358 1126 355 1128 l 705 524 l 358 1126 l 705 524 m 811 594 l 513 1120 q 513 1126 510 1123 q 518 1128 513 1128 l 518 1128 l 697 1128 q 703 1126 700 1128 l 703 1126 l 1004 600 q 1004 594 1004 597 q 998 591 1001 591 l 998 591 l 817 591 q 811 594 814 591 m 1389 524 l 1389 524 q 1389 518 1389 521 l 1389 518 l 1044 -84 q 1039 -87 1042 -87 l 1039 -87 l 857 -87 q 852 -84 854 -87 q 852 -79 852 -81 l 852 -79 l 1196 521 l 1196 521 l 852 1120 q 852 1126 852 1123 q 857 1128 854 1128 l 857 1128 l 1039 1128 q 1044 1126 1042 1128 l 1389 524 l 1044 1126 l 1389 524 m 993 442 l 993 442 q 998 439 996 442 q 998 434 1001 437 l 998 434 l 703 -84 q 697 -87 700 -87 l 697 -87 l 518 -87 q 513 -84 513 -87 q 513 -79 510 -81 l 513 -79 l 808 439 q 814 442 808 442 l 993 442 l 814 442 l 993 442 "},"":{"ha":1736,"x_min":0,"x_max":1736,"o":"m 868 955 l 868 955 q 1034 922 955 955 q 1175 827 1115 890 q 1270 686 1237 768 q 1302 521 1302 608 q 1270 355 1302 434 q 1175 214 1237 274 q 1034 119 1115 152 q 868 87 955 87 l 868 955 l 868 87 l 868 955 m 0 521 l 0 521 l 434 955 l 434 955 l 868 521 l 868 521 l 434 87 l 0 521 l 434 87 l 0 521 m 1302 521 l 1302 521 q 1430 827 1305 700 q 1736 955 1557 952 l 1736 955 l 1736 87 q 1571 119 1649 87 q 1430 214 1489 152 q 1335 355 1367 274 q 1302 521 1302 434 "},"":{"ha":1389,"x_min":19,"x_max":1370,"o":"m 415 -87 l 553 312 l 1364 467 l 1364 467 l 1050 -87 l 415 -87 l 1050 -87 l 415 -87 m 1370 564 l 977 488 l 423 1128 l 423 1128 l 1050 1128 l 1370 564 l 1050 1128 l 1370 564 m 336 1082 l 613 765 l 334 -35 l 334 -35 l 19 521 l 336 1082 l 19 521 l 336 1082 "},"":{"ha":1389,"x_min":33,"x_max":1351,"o":"m 1237 269 l 1237 269 q 1267 247 1248 258 q 1324 201 1297 225 q 1351 146 1351 174 q 1316 119 1348 114 q 1251 144 1283 125 q 1204 171 1215 163 q 1229 141 1210 163 q 1305 30 1270 92 q 1283 -43 1337 -30 q 1175 -3 1226 -46 q 1085 92 1126 41 q 1042 138 1061 119 q 982 157 998 179 q 960 84 963 133 q 960 -3 958 35 q 960 -24 960 -16 q 944 -106 960 -62 q 898 -168 928 -152 q 822 -144 865 -187 q 762 14 768 -76 q 724 141 754 84 q 640 141 686 193 q 564 35 594 87 q 551 14 556 22 q 496 -57 537 -11 q 415 -130 458 -106 q 345 -111 372 -157 q 339 16 317 -54 q 391 144 363 87 q 401 165 396 155 q 355 127 391 149 q 290 95 320 109 q 279 90 285 92 q 103 49 195 43 q 38 76 43 52 q 125 160 33 100 q 271 296 209 212 q 307 480 336 377 q 285 540 296 510 q 241 697 250 613 q 271 898 236 800 q 524 1169 347 1088 q 895 1194 700 1248 q 1099 1063 1015 1156 q 1210 854 1180 974 q 1194 616 1240 735 q 1147 431 1147 515 l 1147 431 l 1147 431 q 1237 269 1147 347 "},"":{"ha":1215,"x_min":0,"x_max":1215,"o":"m 827 442 l 827 442 q 930 407 892 442 q 968 312 968 369 q 933 212 968 250 q 827 176 895 176 l 827 176 l 670 176 l 670 176 l 670 442 l 827 442 l 670 442 l 827 442 m 404 865 l 404 865 q 507 830 469 865 q 545 732 545 792 q 510 635 545 673 q 404 600 472 600 l 404 600 l 247 600 l 247 600 l 247 865 l 404 865 l 247 865 l 404 865 m 996 1128 l 996 1128 q 1150 1063 1085 1126 q 1215 909 1213 998 l 1215 909 l 1215 133 q 1150 -22 1213 43 q 996 -87 1085 -84 l 996 -87 l 220 -87 q 65 -22 130 -84 q 0 133 3 43 l 0 133 l 0 909 q 65 1063 3 998 q 220 1128 130 1126 l 996 1128 l 220 1128 l 996 1128 m 1166 133 l 1166 909 q 1118 1031 1166 979 q 996 1080 1066 1080 l 996 1080 l 220 1080 q 98 1031 149 1080 q 49 909 49 979 l 49 909 l 49 133 q 98 11 49 62 q 220 -38 149 -38 l 220 -38 l 996 -38 q 1118 11 1066 -38 q 1166 133 1166 62 m 827 865 l 827 865 q 930 830 892 865 q 968 732 968 792 q 933 635 968 673 q 827 600 895 600 l 827 600 l 670 600 l 670 600 l 670 865 l 827 865 l 670 865 l 827 865 "},"":{"ha":1215,"x_min":33,"x_max":1183,"o":"m 467 583 l 467 583 q 461 586 464 583 l 461 586 l 146 768 l 146 768 l 146 537 q 138 518 146 526 q 119 513 130 513 q 106 515 114 513 l 106 515 l 46 551 q 33 572 33 556 l 33 572 l 33 884 q 46 906 33 901 l 46 906 l 317 1063 q 345 1063 331 1072 l 345 1063 l 404 1031 q 418 1006 418 1023 q 404 985 418 993 l 404 985 l 201 868 l 201 868 l 518 681 q 524 673 524 678 q 521 662 524 665 q 480 591 488 632 q 467 583 475 583 m 876 190 l 876 190 q 906 165 901 187 l 906 165 l 906 95 q 892 73 903 81 l 892 73 l 618 -84 q 605 -87 613 -87 q 594 -84 600 -87 l 594 -84 l 320 73 q 307 95 307 81 l 307 95 l 307 165 q 334 193 309 190 q 347 187 342 193 l 347 187 l 548 71 l 548 71 l 548 434 q 553 445 548 439 q 567 445 559 448 q 646 448 605 434 q 662 434 659 450 l 662 434 l 662 71 l 662 71 l 863 187 q 876 190 871 190 m 776 1004 l 776 1004 q 713 1066 719 1009 q 776 1128 719 1123 q 838 1066 833 1123 q 776 1004 833 1009 m 949 1031 l 949 1031 q 1012 968 1006 1025 q 949 906 1006 911 q 887 968 892 911 q 949 1031 892 1025 m 1120 803 l 1120 803 q 1058 865 1063 808 q 1120 928 1063 922 q 1183 865 1177 922 q 1120 803 1177 808 m 949 830 l 949 830 q 993 811 974 827 q 1012 768 1012 792 q 949 705 1006 711 q 887 768 892 711 q 949 830 892 825 m 776 602 l 776 602 q 732 621 751 602 q 713 665 713 640 q 776 727 719 722 q 838 665 833 722 q 776 602 833 608 m 608 505 l 608 505 q 564 524 581 505 q 545 567 545 543 q 608 629 551 624 q 670 567 665 624 q 608 505 665 510 m 1120 727 l 1120 727 q 1183 665 1177 722 q 1120 602 1177 608 q 1058 665 1063 608 q 1120 727 1063 722 m 1120 532 l 1120 532 q 1183 469 1177 526 q 1120 407 1177 412 q 1058 469 1063 412 q 1120 532 1063 526 "},"":{"ha":1389,"x_min":43,"x_max":1345,"o":"m 694 1172 l 694 1172 q 1023 1082 876 1169 q 1256 849 1169 996 q 1345 521 1343 703 q 1256 193 1343 339 q 1023 -41 1169 46 q 694 -130 876 -127 q 366 -41 513 -127 q 133 193 220 46 q 43 521 46 339 q 133 849 46 703 l 133 849 l 133 849 q 366 1082 220 996 l 366 1082 l 366 1082 q 694 1172 513 1169 m 331 52 l 404 608 l 380 627 q 366 654 366 637 q 366 689 366 670 q 366 708 366 705 l 366 708 l 404 713 l 404 713 l 404 743 l 404 743 l 125 694 q 100 521 100 610 q 163 255 100 377 l 163 255 l 163 255 q 331 52 222 133 m 616 819 l 616 811 l 1142 911 q 941 1063 1055 1009 q 694 1115 825 1115 q 415 1044 543 1115 q 206 860 288 977 l 206 860 l 404 808 l 404 808 l 407 819 l 407 819 l 382 841 q 374 849 380 841 q 382 865 372 857 q 445 917 401 879 q 491 960 486 955 q 532 960 515 985 q 532 960 532 960 q 578 917 537 955 q 640 865 621 879 q 646 849 651 857 q 640 841 643 841 l 616 819 l 640 841 l 616 819 m 708 -73 l 708 -73 q 1120 106 955 -62 q 1289 521 1283 271 q 1272 656 1289 589 l 1272 656 l 618 743 l 618 743 l 618 713 l 618 713 l 656 708 q 656 689 656 705 q 656 654 656 670 q 643 627 656 637 l 643 627 l 618 608 l 708 -73 l 618 608 l 708 -73 "},"":{"ha":1736,"x_min":0,"x_max":1736,"o":"m 483 293 l 608 757 l 510 757 l 510 757 l 434 437 l 434 437 l 431 437 l 431 437 l 353 757 l 353 757 l 258 757 l 258 757 l 176 442 l 176 442 l 176 442 l 176 442 l 103 757 l 103 757 l 0 757 l 0 757 l 122 293 l 122 293 l 225 293 l 225 293 l 304 610 l 304 610 l 304 610 l 304 610 l 382 293 l 483 293 l 382 293 l 483 293 m 735 637 l 735 637 q 610 589 656 637 q 564 461 564 543 q 610 334 564 380 q 735 285 656 285 q 863 334 817 285 q 911 461 909 380 q 863 589 909 543 l 863 589 l 863 589 q 735 637 817 637 m 735 355 l 735 355 q 673 388 689 355 q 656 461 654 420 q 667 534 654 505 q 735 570 681 567 q 800 534 784 567 q 819 461 819 505 q 800 388 819 420 l 800 388 l 800 388 q 735 355 784 355 m 1180 336 l 1180 293 l 1267 293 l 1267 293 l 1267 757 l 1267 757 l 1175 757 l 1175 757 l 1175 589 l 1175 589 l 1175 589 q 1074 637 1139 637 q 963 586 1001 635 q 928 464 928 534 q 963 339 928 393 q 1077 285 1001 288 q 1180 336 1145 282 l 1180 336 l 1180 336 l 1180 336 m 1099 570 l 1099 570 q 1161 537 1145 567 q 1180 461 1180 505 q 1161 388 1180 420 q 1099 355 1145 355 q 1039 388 1058 355 q 1020 461 1017 420 q 1036 537 1017 505 l 1036 537 l 1036 537 q 1099 570 1055 567 m 1609 293 l 1609 629 l 1516 629 l 1516 629 l 1516 453 q 1446 358 1519 355 q 1386 439 1383 358 l 1386 439 l 1386 629 l 1386 629 l 1294 629 l 1294 629 l 1294 423 q 1318 323 1291 361 q 1416 285 1345 285 q 1519 342 1478 285 l 1519 342 l 1522 342 l 1522 342 l 1522 293 l 1609 293 l 1522 293 l 1609 293 m 1633 393 l 1633 293 l 1736 293 l 1736 293 l 1736 393 l 1633 393 l 1736 393 l 1633 393 "},"":{"ha":1042,"x_min":0,"x_max":1042,"o":"m 174 157 l 174 157 l 174 884 l 174 884 l 418 521 l 174 157 l 418 521 l 174 157 m 279 0 l 279 0 l 521 363 l 521 363 l 765 0 l 279 0 l 765 0 l 279 0 m 627 521 l 627 521 l 868 884 l 868 884 l 868 157 l 627 521 l 868 157 l 627 521 m 765 1042 l 765 1042 l 521 678 l 521 678 l 279 1042 l 765 1042 l 279 1042 l 765 1042 m 0 1085 l 0 1085 l 0 -43 q 38 -136 3 -98 q 130 -174 76 -171 l 130 -174 l 911 -174 q 1004 -136 966 -171 q 1042 -43 1039 -98 l 1042 -43 l 1042 1085 q 1004 1177 1039 1139 q 911 1215 966 1213 l 911 1215 l 130 1215 q 38 1177 76 1213 l 38 1177 l 38 1177 q 0 1085 3 1139 "},"":{"ha":1389,"x_min":138,"x_max":1253,"o":"m 138 -87 l 138 90 l 363 217 l 363 217 l 363 -87 l 138 -87 l 363 -87 l 138 -87 m 1031 -87 l 1031 217 l 1253 90 l 1253 90 l 1253 -87 l 1031 -87 l 1253 -87 l 1031 -87 m 1031 1128 l 1253 1128 l 1253 149 l 1253 149 l 694 483 l 694 483 l 138 149 l 138 149 l 138 1128 l 138 1128 l 366 1128 l 366 1128 l 366 532 l 366 532 l 694 730 l 694 730 l 1031 532 l 1031 1128 l 1031 532 l 1031 1128 "},"":{"ha":1736,"x_min":0,"x_max":1736,"o":"m 233 678 l 233 678 q 353 627 307 678 q 401 480 401 572 q 353 331 401 382 q 233 279 307 279 q 122 334 171 279 l 122 334 l 122 309 q 114 296 122 301 q 100 288 109 288 l 100 288 l 22 288 q 5 296 14 288 q 0 309 0 301 l 0 309 l 0 792 q 22 814 3 811 l 22 814 l 100 814 q 122 792 119 811 l 122 792 l 122 624 q 233 678 165 678 m 195 385 l 195 385 q 279 480 271 391 q 195 572 271 567 q 122 537 149 570 l 122 537 l 122 420 q 195 385 149 388 m 618 545 l 618 545 q 651 532 637 545 q 665 499 665 518 q 618 453 662 456 q 570 499 575 456 q 618 545 575 543 m 743 789 l 743 789 q 909 727 838 784 q 1009 581 982 673 q 1004 404 1034 488 q 898 260 974 317 q 730 206 819 206 q 559 260 637 206 q 453 404 483 317 q 450 581 423 488 q 548 727 477 673 q 716 789 621 784 l 716 789 l 716 911 q 694 952 689 925 q 730 982 700 979 q 765 952 757 979 q 743 911 768 925 l 743 789 l 743 911 l 743 789 m 977 499 l 977 499 q 903 605 974 562 q 730 648 836 648 q 553 605 624 648 q 483 499 486 562 q 553 393 486 434 q 730 350 624 350 q 903 393 836 350 l 903 393 l 903 393 q 977 499 974 434 m 841 453 l 841 453 q 792 499 798 456 l 792 499 l 792 499 q 841 545 798 543 q 887 499 884 543 q 841 453 884 456 m 1576 537 l 1576 537 q 1579 534 1576 534 q 1682 505 1630 529 q 1736 404 1733 477 q 1690 315 1736 350 q 1563 279 1647 279 q 1402 323 1468 279 q 1394 355 1386 336 l 1394 355 l 1421 399 q 1421 401 1421 399 q 1438 410 1427 407 q 1454 407 1446 412 q 1568 369 1508 374 q 1619 399 1622 372 q 1554 429 1614 423 q 1451 458 1503 434 q 1400 553 1402 483 q 1440 640 1400 605 q 1563 678 1481 678 q 1704 640 1638 678 q 1712 610 1720 629 l 1712 610 l 1687 570 q 1687 570 1687 570 q 1657 562 1674 553 q 1563 589 1614 589 q 1514 562 1516 589 q 1573 537 1514 543 l 1573 537 l 1573 537 q 1576 537 1573 537 m 1316 372 l 1329 317 q 1318 293 1332 301 q 1242 279 1291 279 q 1123 391 1126 279 l 1123 391 l 1123 564 l 1123 564 l 1082 564 q 1061 586 1063 564 l 1061 586 l 1061 648 l 1061 648 l 1061 648 q 1066 662 1061 656 q 1082 670 1074 670 l 1082 670 l 1123 670 l 1123 670 l 1123 751 l 1123 751 l 1123 751 q 1128 768 1123 760 q 1145 773 1137 773 l 1145 773 l 1221 773 q 1237 768 1232 773 q 1245 751 1245 760 l 1245 751 l 1245 670 l 1245 670 l 1299 670 q 1321 648 1318 667 l 1321 648 l 1321 586 q 1299 564 1318 564 l 1299 564 l 1245 564 l 1245 564 l 1245 426 q 1278 385 1245 388 q 1289 388 1283 385 q 1316 372 1308 388 "},"":{"ha":1736,"x_min":-16,"x_max":1736,"o":"m 613 163 l 613 163 q 613 157 613 160 l 613 157 l 583 46 q 567 33 581 35 l 567 33 l 163 33 q 155 33 160 33 q 27 100 76 35 q 8 241 -16 165 l 8 241 l 81 524 q 182 670 109 613 q 345 732 252 727 l 345 732 l 749 732 q 749 732 749 732 q 751 732 751 732 q 760 719 762 727 l 760 719 l 730 608 q 713 591 724 594 l 713 591 l 309 591 q 222 521 241 586 l 222 521 l 149 244 q 155 195 138 217 q 198 174 171 174 l 198 174 l 602 174 q 608 171 605 174 q 613 163 613 168 m 833 996 l 773 776 l 635 776 l 635 776 l 694 996 q 711 1009 697 1006 l 711 1009 l 822 1009 q 822 1009 822 1009 q 822 1009 822 1009 q 830 1006 827 1009 q 833 998 833 1004 q 833 996 833 996 m 488 217 l 575 548 l 713 548 l 713 548 l 629 217 l 488 217 l 629 217 l 488 217 m 1389 998 l 1389 998 q 1389 996 1389 998 l 1389 996 l 1139 46 q 1123 33 1137 35 l 1123 33 l 1012 33 q 1012 33 1012 33 q 1001 43 1001 35 q 1001 46 1001 46 l 1001 46 l 1248 996 q 1267 1009 1253 1009 l 1267 1009 l 1378 1009 q 1378 1009 1378 1009 q 1389 998 1386 1009 m 882 174 l 882 174 q 882 174 882 174 q 890 168 887 171 q 890 157 892 163 l 890 157 l 863 46 q 844 33 857 35 l 844 33 l 732 33 q 732 33 732 33 q 724 35 727 33 q 722 43 722 38 q 724 46 722 46 l 724 46 l 751 157 q 770 174 757 171 l 882 174 l 770 174 l 882 174 m 1725 1009 l 1725 1009 q 1725 1009 1725 1009 q 1736 998 1733 1009 q 1736 996 1736 998 l 1736 996 l 1487 46 q 1470 33 1484 35 l 1470 33 l 1359 33 q 1359 33 1359 33 q 1359 33 1359 33 q 1348 43 1348 35 q 1348 46 1348 46 l 1348 46 l 1598 996 q 1614 1009 1600 1006 l 1725 1009 l 1614 1009 l 1725 1009 m 1009 605 l 1009 605 q 990 591 1004 591 l 990 591 l 879 591 q 879 591 879 591 q 868 600 868 591 q 868 600 868 600 q 868 600 868 600 q 868 605 868 602 l 868 605 l 898 716 q 914 730 903 727 l 914 730 l 1028 730 q 1028 730 1028 730 q 1039 719 1036 730 q 1036 716 1039 719 l 1009 605 l 1036 716 l 1009 605 "},"":{"ha":1389,"x_min":0,"x_max":1394,"o":"m 1326 933 l 1326 933 l 1326 933 q 1150 1004 1259 1001 l 1150 1004 l 1072 1004 l 1072 1004 l 1139 1074 q 1164 1134 1161 1096 q 1139 1191 1161 1169 q 1080 1215 1115 1215 q 1020 1191 1044 1215 l 1020 1191 l 817 1004 l 817 1004 l 578 1004 l 578 1004 l 380 1191 q 320 1215 355 1215 q 260 1191 285 1215 q 236 1134 236 1169 q 260 1074 236 1096 l 260 1074 l 328 1004 l 328 1004 l 250 1004 q 73 933 141 1001 q 0 754 3 860 l 0 754 l 0 217 q 73 30 3 100 q 250 -43 141 -41 l 250 -43 l 1139 -43 q 1316 30 1248 -41 q 1389 206 1386 98 l 1389 206 l 1389 754 q 1326 933 1394 860 m 1221 743 l 1221 743 l 1221 217 q 1194 152 1218 179 q 1128 125 1166 127 l 1128 125 l 260 125 q 195 152 222 127 q 171 217 171 179 l 171 217 l 171 743 q 195 808 171 784 q 260 833 222 833 l 260 833 l 1128 833 q 1191 808 1166 833 q 1221 743 1218 784 m 505 627 l 505 627 l 505 627 q 439 654 477 654 q 377 627 401 654 q 350 564 350 602 l 350 564 l 350 475 q 377 412 350 437 q 439 385 401 385 q 505 412 480 385 q 532 475 529 437 l 532 475 l 532 564 q 505 627 529 602 m 1023 627 l 1023 627 l 1023 627 q 960 654 998 654 q 895 627 922 654 q 868 564 871 602 l 868 564 l 868 475 q 895 412 868 437 q 960 385 920 385 q 1023 412 998 385 q 1050 475 1047 437 l 1050 475 l 1050 564 q 1023 627 1047 602 "},"":{"ha":1736,"x_min":-3,"x_max":1755,"o":"m 1085 686 l 1085 686 q 1093 700 1101 689 q 996 819 1063 776 q 773 863 892 890 q 534 716 627 836 q 464 467 450 608 q 570 279 477 350 q 798 225 673 206 q 1036 369 949 247 q 1074 426 1061 396 q 1158 293 1096 347 q 1364 220 1248 220 q 1364 220 1364 220 q 1389 222 1375 220 q 1389 222 1389 222 q 1432 228 1411 222 q 1633 336 1552 250 q 1733 621 1755 453 q 1614 811 1714 743 q 1373 854 1503 882 q 1137 713 1223 830 q 1077 605 1096 659 l 1077 605 l 803 605 q 784 589 787 600 q 762 545 776 572 q 741 496 751 518 q 757 472 732 472 l 757 472 l 920 472 q 920 469 920 469 q 914 461 917 467 l 914 461 l 914 461 l 914 461 l 914 461 q 898 439 906 450 q 751 385 841 374 q 673 429 703 393 q 640 518 640 464 q 727 678 640 621 q 879 689 798 727 q 920 659 903 678 q 941 648 930 643 l 941 648 l 944 648 q 979 659 963 654 q 1006 667 993 662 q 1058 681 1031 675 l 1058 681 l 1058 681 q 1085 686 1072 684 m 130 673 l 130 673 l 437 670 q 445 675 442 670 l 445 675 l 461 697 q 458 703 461 703 l 458 703 l 155 703 q 146 700 149 703 l 146 700 l 127 675 q 130 673 125 673 m 3 594 l 3 594 l 404 594 q 410 600 410 594 l 410 600 l 418 621 q 412 624 418 624 l 412 624 l 27 624 q 19 621 22 624 l 19 621 l 0 597 q 3 594 -3 594 m 206 521 l 206 521 l 217 543 q 225 548 220 548 l 225 548 l 396 548 q 399 543 399 548 l 399 543 l 399 521 q 393 515 396 515 l 393 515 l 209 515 q 206 521 203 518 m 1565 570 l 1565 570 q 1565 564 1565 567 q 1565 562 1565 564 q 1459 399 1560 453 q 1321 393 1392 363 q 1253 458 1275 415 q 1242 553 1232 505 q 1392 700 1272 675 q 1503 684 1454 713 q 1565 589 1552 654 q 1565 575 1565 581 l 1565 575 l 1565 575 q 1565 570 1565 572 "},"":{"ha":1389,"x_min":0,"x_max":1386,"o":"m 656 420 l 656 420 l 450 214 q 307 155 388 155 l 307 155 l 279 155 l 279 155 l 545 -111 q 694 -171 610 -171 q 844 -111 779 -171 l 844 -111 l 1107 152 l 1107 152 l 1066 152 q 922 212 982 155 l 922 212 l 713 420 q 656 420 684 445 m 713 621 l 713 621 l 922 830 q 1066 890 982 890 l 1066 890 l 1107 890 l 1107 890 l 844 1153 q 694 1215 779 1215 q 545 1153 610 1215 l 545 1153 l 279 890 l 279 890 l 307 890 q 450 830 391 890 l 450 830 l 656 621 q 713 621 684 600 m 307 827 l 307 827 l 220 827 l 220 827 l 62 670 q 0 521 0 605 q 62 372 0 437 l 62 372 l 220 214 l 220 214 l 307 214 q 407 258 363 217 l 407 258 l 613 464 q 684 494 643 494 q 757 464 724 494 l 757 464 l 966 255 q 1066 214 1006 214 l 1066 214 l 1166 214 l 1166 214 l 1326 372 q 1386 521 1386 437 q 1326 670 1386 605 l 1326 670 l 1166 827 l 1166 827 l 1066 827 q 966 787 1006 827 l 966 787 l 757 578 q 686 548 724 551 q 613 578 646 551 l 613 578 l 407 787 q 307 827 363 827 "},"":{"ha":1215,"x_min":0,"x_max":1215,"o":"m 575 1215 l 575 1215 q 304 1112 426 1210 q 174 868 182 1015 l 174 868 l 1215 868 l 1215 868 l 1215 1215 l 1215 1215 l 575 1215 l 575 1215 l 575 1215 l 575 1215 m 643 694 l 643 694 l 174 694 q 301 450 182 548 q 572 347 423 353 l 572 347 l 572 347 l 572 347 l 1042 347 q 914 591 1034 494 q 643 694 792 689 l 643 694 l 643 694 l 643 694 m 640 -174 l 640 -174 l 640 -174 l 640 -174 l 0 -174 l 0 -174 l 0 174 l 0 174 l 1042 174 q 911 -71 1034 27 l 911 -71 l 911 -71 q 640 -174 789 -168 "},"":{"ha":1389,"x_min":0,"x_max":1389,"o":"m 95 751 l 95 751 l 464 1120 q 694 1215 564 1215 q 925 1120 825 1215 l 925 1120 l 1294 751 q 1389 521 1389 651 q 1294 290 1389 391 l 1294 290 l 925 -79 q 694 -174 825 -174 q 464 -79 564 -174 l 464 -79 l 95 290 q 0 521 0 391 l 0 521 l 0 521 q 95 751 0 651 m 857 358 l 857 358 q 922 521 922 429 q 857 681 922 613 q 694 749 787 749 q 534 681 602 749 q 467 521 467 613 q 534 358 467 429 q 694 293 602 293 l 694 293 l 694 293 q 857 358 787 293 "},"":{"ha":1736,"x_min":0,"x_max":1736,"o":"m 1736 353 l 1736 353 l 1736 353 q 1668 727 1733 559 q 1492 996 1603 895 q 1245 1101 1381 1099 q 1053 1031 1139 1099 q 892 857 966 963 q 694 1044 789 987 q 499 1101 600 1101 q 244 990 355 1096 q 68 713 133 884 q 0 345 3 543 q 84 57 0 163 q 315 -49 165 -49 q 513 22 418 -57 q 741 334 608 100 q 741 334 741 334 q 784 412 743 339 q 868 559 825 486 q 890 524 879 543 q 925 464 906 494 l 925 464 l 1012 320 q 1223 33 1131 117 q 1438 -49 1316 -52 q 1657 60 1581 -49 l 1657 60 l 1657 60 q 1736 353 1736 165 m 779 694 l 779 694 l 779 694 q 648 494 697 567 q 602 418 602 420 q 437 193 496 250 q 323 138 380 133 q 187 342 193 141 q 231 616 190 486 q 342 827 271 746 q 496 911 412 909 q 629 865 562 914 l 629 865 l 629 865 q 779 694 694 819 m 1440 138 l 1440 138 l 1440 138 q 1326 198 1383 133 q 1158 448 1272 260 l 1158 448 l 1055 616 q 977 741 1015 684 q 1234 952 1107 952 q 1470 773 1378 944 q 1568 339 1565 600 q 1440 138 1571 144 "},"":{"ha":1736,"x_min":-5,"x_max":1742,"o":"m 808 1215 l 808 1215 l 808 1215 q 760 1183 776 1213 l 760 1183 l 401 347 l 401 347 l 401 345 l 401 345 l 410 317 l 410 317 l 526 -111 q 562 -160 534 -144 q 624 -171 589 -179 l 624 -171 l 808 -130 l 808 -130 l 996 -171 q 1055 -160 1028 -179 q 1090 -111 1082 -144 l 1090 -111 l 1207 317 l 1207 317 l 1215 345 l 1215 345 l 1215 347 l 1215 347 l 1215 347 l 1215 347 l 857 1183 q 808 1215 841 1213 l 808 1215 l 808 1215 l 808 1215 m 434 342 l 434 342 l 792 271 l 792 271 l 806 1139 l 806 1139 l 830 271 l 830 271 l 1185 339 l 1185 339 l 1185 339 l 1185 339 l 830 233 l 830 233 l 808 -98 l 808 -98 l 789 236 l 434 342 l 789 236 l 434 342 m 1156 610 l 1156 610 l 1272 347 l 1272 347 l 1185 52 l 1185 52 l 1611 722 l 1611 722 l 1411 722 l 1156 610 l 1411 722 l 1156 610 m 1622 724 l 1622 724 l 1573 545 l 1573 545 l 1701 483 q 1728 488 1717 477 q 1733 515 1742 499 l 1622 724 l 1733 515 l 1622 724 m 345 350 l 345 350 l 458 610 l 458 610 l 49 841 q 8 836 24 849 q 5 795 -5 819 l 5 795 l 431 49 l 345 350 l 431 49 l 345 350 "},"":{"ha":1389,"x_min":-22,"x_max":1408,"o":"m 575 -111 l 575 -111 l 575 -111 q 556 -98 567 -100 q 347 -8 442 -71 q 184 146 250 54 q 65 575 46 339 q 255 977 87 811 q 665 1153 429 1139 l 665 1153 l 665 911 l 665 911 l 597 982 q 575 990 589 990 q 553 982 564 990 q 545 960 545 974 q 553 939 545 949 l 553 939 l 673 811 q 684 806 675 808 q 692 803 689 803 q 708 806 700 803 q 716 811 713 808 l 716 811 l 836 939 q 844 949 841 944 q 844 960 844 955 q 841 971 844 966 q 836 982 838 979 q 825 987 830 987 q 814 990 819 990 q 800 987 806 990 q 792 982 795 985 l 792 982 l 724 911 l 724 911 l 724 1185 q 724 1196 724 1191 q 716 1207 722 1202 q 711 1210 713 1207 q 705 1213 708 1213 q 703 1213 705 1213 q 694 1215 697 1215 q 231 1039 431 1213 q 5 597 35 860 q 130 117 -22 334 q 543 -157 285 -95 q 564 -152 553 -160 q 578 -133 575 -146 q 575 -111 581 -122 m 464 873 l 464 873 l 464 873 q 469 884 469 879 q 469 895 472 890 q 464 906 469 903 q 456 917 461 911 q 445 920 450 920 q 439 920 442 920 q 434 920 437 920 q 423 914 426 920 q 269 746 326 849 q 214 524 214 640 q 269 301 214 407 q 423 133 326 198 q 445 130 431 125 q 464 141 456 130 q 467 144 467 141 q 469 163 469 155 q 456 182 467 176 q 326 334 372 241 q 277 524 277 420 q 326 716 277 627 q 456 865 372 806 q 464 873 461 868 m 925 174 l 925 174 l 925 174 q 920 163 922 171 q 920 155 917 160 q 920 152 920 152 q 925 141 922 146 q 928 138 925 138 q 933 133 928 136 q 939 130 936 133 q 944 127 941 127 q 958 127 949 127 q 968 133 963 130 q 1120 304 1063 198 q 1172 524 1172 407 q 1120 746 1172 640 q 968 914 1063 849 q 958 920 963 920 q 944 920 952 922 q 933 914 939 920 q 928 909 928 914 q 925 906 925 909 q 920 895 922 903 q 920 892 920 895 q 920 884 917 890 q 925 873 922 879 q 928 868 925 871 q 930 865 930 865 q 1066 716 1017 808 q 1112 524 1112 627 q 1066 331 1112 423 q 930 184 1017 241 l 930 184 l 930 184 q 928 179 930 182 l 928 179 l 928 179 q 925 174 925 176 m 846 1199 l 846 1199 l 846 1199 q 836 1199 841 1199 q 825 1194 830 1196 q 817 1185 819 1191 q 811 1175 811 1180 q 811 1164 808 1169 q 814 1153 808 1158 q 814 1153 814 1153 q 822 1142 819 1147 q 833 1139 827 1139 q 1204 895 1063 1085 q 1326 467 1343 703 q 1134 65 1302 233 q 724 -111 960 -98 l 724 -111 l 724 125 l 724 125 l 792 54 q 808 46 798 49 q 814 46 811 46 q 836 57 825 46 q 844 76 844 62 q 836 98 844 90 l 836 98 l 716 225 q 692 233 708 233 q 673 225 681 233 l 673 225 l 553 98 q 545 76 545 90 q 553 57 545 62 q 575 46 564 46 q 581 46 578 46 q 597 54 591 49 l 597 54 l 665 125 l 665 125 l 665 -144 q 667 -155 665 -149 q 667 -157 667 -155 q 673 -165 667 -160 q 684 -171 678 -168 q 694 -174 689 -174 q 1066 -68 895 -174 q 1321 222 1234 41 q 1383 602 1408 404 q 1234 958 1359 800 q 846 1199 1082 1142 m 958 521 l 958 521 l 958 521 q 825 746 955 651 q 800 751 814 754 q 781 741 789 749 q 776 716 773 730 q 789 697 779 705 q 898 521 895 621 q 808 361 895 431 l 808 361 l 637 529 q 616 540 629 540 q 594 529 605 540 q 586 507 586 521 q 594 486 583 496 l 594 486 l 784 298 q 803 288 792 290 q 825 293 814 288 q 958 521 955 388 m 589 288 l 589 288 l 589 288 q 608 301 600 290 q 613 323 616 312 q 600 345 610 336 q 494 521 494 423 q 581 681 494 610 l 581 681 l 751 510 q 773 502 760 502 q 795 510 784 502 q 795 513 795 513 q 803 532 803 521 q 795 553 803 545 l 795 553 l 605 743 q 586 751 597 751 q 564 746 575 754 q 429 521 431 651 q 564 293 431 388 q 589 288 575 288 "},"":{"ha":1563,"x_min":98,"x_max":1476,"o":"m 1066 1128 l 1066 1128 l 1066 1128 q 1015 1093 1034 1120 q 1001 1034 996 1066 q 1034 982 1006 1001 q 1242 768 1169 884 q 1316 524 1316 648 q 1088 100 1313 288 l 1088 100 l 637 545 q 583 570 616 570 q 526 545 548 570 q 499 488 502 521 q 526 431 502 456 l 526 431 l 1023 -62 q 1074 -87 1044 -84 q 1123 -73 1101 -90 q 1386 201 1294 49 q 1476 524 1476 353 q 1386 841 1476 689 q 1123 1115 1294 993 q 1066 1128 1099 1131 m 507 -87 l 507 -87 l 507 -87 q 559 -54 540 -79 q 572 8 578 -24 q 537 60 567 41 q 331 274 401 155 q 258 524 258 393 q 486 941 260 754 l 486 941 l 933 496 q 990 472 958 472 q 1047 496 1025 472 q 1072 553 1072 521 q 1047 610 1072 586 l 1047 610 l 551 1104 q 499 1128 529 1126 q 448 1115 472 1131 q 187 841 277 993 q 98 524 98 689 q 187 201 98 353 q 448 -73 277 49 q 507 -87 475 -90 "},"":{"ha":1389,"x_min":41,"x_max":1348,"o":"m 635 1156 l 635 1156 q 694 1093 637 1099 q 757 1156 751 1099 q 694 1215 751 1210 q 635 1156 637 1210 m 849 513 l 849 513 q 806 624 849 578 q 694 667 760 667 q 583 624 629 667 q 540 513 540 578 q 583 401 540 448 q 694 358 629 358 q 806 401 760 358 l 806 401 l 806 401 q 849 513 849 448 m 914 266 l 914 266 q 694 182 819 184 q 475 266 570 184 q 366 475 382 350 l 366 475 l 41 475 q 103 236 49 350 q 247 38 155 125 q 453 -95 336 -49 q 694 -141 567 -141 q 936 -95 822 -141 q 1142 38 1050 -49 q 1286 236 1234 125 q 1348 475 1340 350 l 1348 475 l 1023 475 q 914 266 1006 350 m 198 836 l 198 836 q 136 892 193 890 q 76 830 79 887 q 138 770 84 776 q 198 836 195 779 m 1191 833 l 1191 833 q 1251 770 1196 776 q 1313 833 1308 776 q 1251 892 1308 890 q 1191 833 1196 890 m 863 958 l 863 958 l 863 958 q 949 1112 933 1020 q 822 1153 890 1139 q 787 1061 822 1099 q 694 1023 749 1025 q 605 1061 640 1025 q 567 1153 567 1099 q 439 1112 499 1139 q 526 958 456 1020 q 694 895 600 898 q 863 958 789 898 m 225 589 l 225 589 l 225 589 q 363 703 315 621 q 393 879 410 787 q 301 1034 374 971 q 203 944 247 993 q 241 909 225 930 q 263 865 258 890 q 266 814 271 841 q 250 768 263 789 q 217 730 239 746 q 174 708 198 713 q 122 703 149 700 q 76 719 98 708 q 46 591 54 656 q 225 589 136 559 m 1164 589 l 1164 589 l 1164 589 q 1343 591 1253 556 q 1313 719 1335 656 q 1218 708 1267 694 q 1139 768 1166 722 q 1126 865 1112 814 q 1185 941 1139 914 q 1088 1034 1142 993 q 996 879 1015 971 q 1028 703 979 787 q 1164 589 1074 621 "},"":{"ha":1389,"x_min":0,"x_max":1389,"o":"m 260 521 l 260 521 l 260 434 l 260 434 l 174 434 l 174 434 l 174 347 l 174 347 l 87 347 l 87 347 l 87 260 l 87 260 l 0 260 l 0 260 l 0 -174 l 0 -174 l 347 -174 l 347 -174 l 347 521 l 260 521 l 347 521 l 260 521 m 1389 260 l 1389 260 l 1302 260 l 1302 260 l 1302 347 l 1302 347 l 1215 347 l 1215 347 l 1215 434 l 1215 434 l 1128 434 l 1128 434 l 1128 521 l 1128 521 l 1042 521 l 1042 521 l 1042 -174 l 1042 -174 l 1389 -174 l 1389 260 l 1389 -174 l 1389 260 m 868 1042 l 868 1042 l 868 1128 l 868 1128 l 781 1128 l 781 1128 l 781 1215 l 781 1215 l 608 1215 l 608 1215 l 608 1128 l 608 1128 l 521 1128 l 521 1128 l 521 1042 l 521 1042 l 434 1042 l 434 1042 l 434 0 l 434 0 l 521 0 l 521 0 l 521 87 l 521 87 l 868 87 l 868 87 l 868 0 l 868 0 l 955 0 l 955 0 l 955 1042 l 868 1042 l 955 1042 l 868 1042 m 781 868 l 781 868 l 781 694 l 781 694 l 608 694 l 608 694 l 608 868 l 781 868 l 608 868 l 781 868 "},"":{"ha":1215,"x_min":0,"x_max":1215,"o":"m 174 1128 l 174 1128 l 1042 1128 q 1164 1077 1115 1126 q 1215 955 1213 1028 l 1215 955 l 1215 87 q 1164 -35 1213 14 q 1042 -87 1115 -84 l 1042 -87 l 174 -87 q 52 -35 100 -84 q 0 87 3 14 l 0 87 l 0 955 q 52 1077 3 1028 l 52 1077 l 52 1077 q 174 1128 100 1126 m 418 798 l 418 798 q 347 868 412 863 q 277 798 282 863 q 304 741 277 762 l 304 741 l 304 738 l 304 738 l 304 260 l 304 260 l 304 174 l 304 174 l 391 174 l 391 174 l 391 260 l 391 260 l 898 260 q 933 296 930 263 q 930 312 933 304 l 930 312 l 846 499 l 846 499 l 930 686 q 933 703 933 694 q 898 738 930 735 l 898 738 l 385 738 q 418 798 415 757 "},"":{"ha":1215,"x_min":0,"x_max":1215,"o":"m 0 955 l 0 955 q 52 1077 3 1028 q 174 1128 100 1126 l 174 1128 l 1042 1128 q 1164 1077 1115 1126 q 1215 955 1213 1028 l 1215 955 l 1215 87 q 1164 -35 1213 14 q 1042 -87 1115 -84 l 1042 -87 l 174 -87 q 52 -35 100 -84 q 0 87 3 14 l 0 955 l 0 87 l 0 955 m 917 920 l 917 920 q 903 936 911 930 q 890 941 895 941 q 873 939 882 941 q 863 930 868 936 q 854 917 857 925 l 854 917 l 773 667 l 773 667 l 439 667 l 439 667 l 361 917 q 353 930 358 925 q 350 933 350 933 q 347 936 347 933 q 347 936 347 936 q 342 939 345 939 q 336 941 339 939 q 336 941 336 941 q 326 941 331 944 q 312 936 320 941 q 301 920 304 930 l 301 920 l 179 605 l 179 605 l 176 602 q 171 458 152 532 q 252 342 193 388 l 252 342 l 252 342 l 252 342 l 255 342 l 255 342 l 437 203 l 437 203 l 586 92 q 608 84 594 87 q 627 90 616 84 q 627 90 627 90 q 629 92 629 92 l 629 92 l 776 203 l 776 203 l 963 342 l 963 342 l 963 342 q 1044 458 1023 388 q 1039 602 1063 532 l 1039 602 l 1036 605 l 917 920 l 1036 605 l 917 920 "},"":{"ha":1389,"x_min":0,"x_max":1389,"o":"m 1104 -41 l 1104 -41 q 1061 -46 1082 -46 q 982 -5 996 -43 q 966 79 966 33 q 966 79 966 79 q 963 122 966 103 q 922 231 955 174 q 806 282 887 290 q 808 217 806 279 q 792 79 808 155 q 719 -38 773 3 q 578 -100 659 -79 q 431 -106 499 -122 q 339 -14 363 -90 q 355 87 323 57 q 431 122 388 117 q 491 125 475 127 q 496 125 494 125 q 559 157 515 122 q 570 271 602 190 q 491 412 526 355 q 453 475 456 472 q 296 399 369 448 q 233 353 260 380 q 62 274 133 252 q 41 288 52 279 q 290 -43 117 81 q 694 -174 464 -171 q 1104 -41 928 -171 m 844 24 l 844 24 q 857 33 854 22 q 849 46 860 41 q 836 38 841 46 q 844 24 836 27 m 282 282 l 282 282 q 274 271 274 279 q 285 263 279 263 q 293 274 293 266 q 282 282 290 285 m 1226 73 l 1226 73 q 1226 73 1226 73 q 1229 92 1229 81 q 1223 98 1226 92 q 1223 98 1223 98 l 1223 98 l 1223 98 q 1223 98 1223 98 q 1175 193 1207 125 q 1131 331 1142 258 q 1069 442 1120 388 q 971 529 1017 496 q 963 589 941 553 q 963 589 963 589 q 963 589 963 589 q 963 591 963 589 q 968 594 966 591 q 1072 700 1012 637 q 1156 806 1128 762 q 1202 996 1202 895 q 1340 779 1291 901 q 1389 521 1389 659 q 1226 73 1383 260 m 1061 534 l 1061 534 q 1077 545 1063 548 q 1088 529 1090 543 q 1072 518 1085 515 q 1061 534 1058 521 m 1226 700 l 1226 700 l 1191 708 l 1191 708 l 1177 738 l 1177 738 l 1169 703 l 1169 703 l 1137 689 l 1137 689 l 1172 681 l 1172 681 l 1188 651 l 1188 651 l 1196 684 l 1226 700 l 1196 684 l 1226 700 m 1074 1104 l 1074 1104 q 694 1215 906 1213 q 345 1120 499 1213 q 95 871 187 1028 q 0 521 3 716 q 5 431 0 477 q 90 513 27 464 q 222 602 149 564 q 331 648 279 632 q 334 648 331 648 q 401 681 382 665 q 396 697 399 689 q 353 917 361 800 q 450 1104 345 1031 q 648 1169 548 1166 q 798 1044 746 1172 q 846 871 838 917 q 871 825 854 822 q 873 825 873 825 q 879 825 876 825 q 879 825 879 825 q 936 836 903 819 q 993 925 971 852 q 993 930 993 928 q 996 936 993 933 l 996 936 l 996 936 q 996 939 996 936 l 996 939 l 996 939 q 1025 1042 1006 996 l 1025 1042 l 1025 1042 q 1074 1104 1042 1085 m 160 700 l 160 700 q 155 684 165 692 q 138 686 146 678 q 144 705 133 697 q 160 700 152 711 m 887 1039 l 887 1039 q 884 1023 879 1031 q 901 1017 892 1012 q 906 1036 911 1023 q 887 1039 898 1044 m 258 930 l 258 930 q 266 936 258 936 q 271 928 274 936 q 263 922 271 920 q 258 930 258 922 m 488 930 l 488 933 q 537 819 494 852 q 665 817 581 784 q 768 882 746 846 q 768 977 792 914 q 713 1074 749 1042 q 589 1077 675 1107 q 534 1050 581 1080 l 534 1050 l 534 1050 q 488 930 488 1017 m 730 892 l 732 892 q 719 909 719 895 q 716 949 724 930 q 724 968 711 963 q 741 960 735 971 q 746 906 754 933 q 732 892 746 892 l 730 892 l 732 892 l 730 892 m 705 1004 l 705 1004 q 705 1004 705 1004 q 705 1004 705 1004 q 705 1006 705 1006 q 708 1006 708 1006 q 716 1025 722 1015 q 713 1028 716 1028 q 703 1047 708 1036 q 684 1047 692 1055 q 684 1025 675 1036 q 686 1020 684 1023 q 692 1012 689 1017 q 705 1004 694 1004 "},"":{"ha":1215,"x_min":0,"x_max":1215,"o":"m 372 418 l 372 418 l 372 418 q 507 643 415 589 q 681 692 602 697 q 811 662 757 692 q 909 597 865 632 q 982 543 947 564 q 1066 521 1020 521 q 1161 567 1126 521 q 1215 686 1196 610 l 1215 686 l 1215 825 q 1126 1039 1213 952 q 911 1128 1039 1126 l 911 1128 l 0 1128 l 0 1128 l 114 977 l 114 977 l 0 825 l 0 825 l 114 673 l 114 673 l 0 521 l 0 521 l 114 369 l 114 369 l 0 217 l 0 217 l 114 65 l 114 65 l 0 -87 l 0 -87 l 911 -87 q 1126 3 1039 -84 q 1215 217 1213 87 l 1215 217 l 1215 385 q 1066 347 1134 345 q 933 380 987 350 q 836 448 879 410 q 762 499 798 477 q 678 521 724 521 q 583 475 618 521 q 529 355 548 431 l 372 418 l 529 355 l 372 418 "},"":{"ha":1215,"x_min":54,"x_max":1175,"o":"m 1031 548 l 1031 548 l 1034 548 q 1031 545 1034 548 q 1031 543 1031 545 q 1028 537 1031 540 q 1025 526 1028 532 l 1025 526 l 1006 518 q 998 491 996 494 l 998 491 l 998 491 q 996 472 1001 488 l 996 472 l 996 472 l 996 472 l 996 472 q 993 469 993 469 q 985 461 990 467 q 982 458 982 461 q 979 458 979 458 l 979 458 l 979 458 l 979 458 l 979 458 q 977 456 977 456 q 933 418 955 437 q 901 396 911 401 q 906 410 892 399 q 911 418 911 412 q 887 396 895 404 q 887 396 887 396 l 887 396 l 887 396 l 887 396 l 887 396 q 833 366 876 380 l 833 366 l 830 372 q 629 399 727 331 q 526 594 532 467 q 524 583 526 586 q 524 583 524 583 l 524 583 l 524 583 q 524 583 524 583 q 524 583 524 583 q 524 583 524 583 l 524 583 l 524 583 q 524 583 524 583 q 521 581 521 583 q 548 703 515 646 q 635 784 578 757 q 751 803 694 811 q 852 757 811 795 q 787 811 830 787 q 694 833 746 833 q 600 803 643 830 q 543 741 559 776 q 502 675 513 716 l 502 675 l 502 675 l 502 675 l 502 675 l 502 675 l 502 673 l 502 673 l 502 673 l 502 673 l 502 673 q 488 646 496 651 q 510 472 472 534 q 627 353 548 407 q 635 342 635 345 q 974 391 817 271 q 1009 420 993 404 q 1036 445 1028 442 q 1031 431 1028 431 l 1031 431 l 1031 431 q 1031 431 1031 431 q 1028 420 1034 429 q 1039 448 1044 445 l 1039 448 l 1039 450 q 1055 491 1031 453 l 1055 491 l 1072 472 q 1085 524 1069 496 l 1085 524 l 1088 524 q 1109 602 1107 559 q 1118 597 1118 613 q 1109 548 1118 578 q 1118 600 1120 583 q 1118 602 1118 602 q 1118 605 1118 602 q 1118 632 1115 616 q 1120 624 1118 629 l 1120 624 l 1120 624 q 1120 624 1120 624 q 1120 621 1120 621 l 1120 621 l 1120 621 q 1123 616 1123 618 q 1131 597 1126 608 q 1139 667 1123 637 q 1147 689 1145 678 q 1142 686 1145 689 l 1142 686 l 1142 686 q 1142 686 1142 686 q 1134 689 1137 684 q 1128 719 1128 692 q 1134 732 1128 735 q 1137 735 1134 732 q 1115 784 1126 738 q 1123 776 1118 789 q 1134 765 1128 768 q 1128 784 1131 776 q 1128 787 1128 787 l 1128 787 l 1128 789 q 1128 789 1128 789 q 1128 792 1128 789 l 1128 792 l 1128 792 l 1128 792 l 1128 792 l 1128 792 l 1128 792 q 1120 827 1123 811 q 1109 841 1109 854 q 1109 841 1109 841 l 1109 841 l 1109 841 q 1099 844 1109 833 q 1093 876 1090 871 q 1104 879 1096 882 l 1104 879 l 1104 879 l 1104 879 l 1104 879 q 1118 887 1115 873 q 1153 817 1139 854 q 1172 754 1166 779 l 1172 754 l 1172 754 l 1172 754 l 1175 746 q 1147 846 1166 798 q 1147 868 1150 846 q 1147 884 1145 882 q 1158 868 1147 890 q 1074 1017 1134 949 q 947 1123 1015 1085 q 949 1123 947 1123 q 949 1120 949 1120 q 949 1120 949 1120 q 952 1120 949 1120 q 966 1099 968 1104 q 936 1120 941 1112 q 928 1131 928 1126 l 928 1131 l 928 1131 q 928 1134 928 1131 q 925 1134 925 1134 q 925 1134 925 1134 q 925 1137 925 1137 q 884 1139 895 1147 l 884 1139 l 882 1139 q 863 1137 876 1137 q 808 1164 830 1156 q 770 1175 789 1169 l 770 1175 l 768 1177 q 722 1191 749 1183 l 722 1191 l 724 1180 q 673 1180 692 1188 l 673 1180 l 670 1180 q 624 1177 654 1177 q 654 1188 627 1183 q 616 1188 627 1185 l 616 1188 l 613 1188 q 613 1188 613 1188 q 572 1188 600 1194 q 594 1199 583 1194 l 594 1199 l 605 1204 q 562 1199 583 1204 q 534 1202 526 1188 q 499 1185 518 1194 l 499 1185 l 499 1185 q 496 1185 496 1185 q 404 1142 453 1166 q 320 1088 355 1118 l 320 1088 l 317 1099 q 282 1063 307 1085 l 282 1063 l 279 1061 q 225 1012 250 1036 q 198 966 201 985 l 198 966 l 190 963 q 168 914 176 941 q 165 909 165 911 q 163 906 165 909 q 157 890 160 898 q 141 873 146 873 q 133 876 133 873 l 133 876 l 133 873 l 133 873 l 133 873 q 68 703 87 773 l 68 703 l 65 694 q 71 618 73 678 q 71 534 68 578 q 130 231 65 374 q 309 -16 195 87 q 553 -157 420 -122 q 670 -171 610 -174 q 670 -171 670 -171 l 670 -171 l 670 -171 l 670 -171 l 670 -171 l 670 -171 l 670 -171 l 670 -171 l 670 -171 l 670 -171 l 670 -171 l 670 -171 l 670 -171 l 670 -171 l 670 -171 q 670 -171 670 -171 q 689 -174 681 -171 l 689 -174 l 689 -174 q 697 -174 694 -171 q 643 -160 662 -163 q 640 -160 640 -160 q 640 -160 640 -160 q 637 -160 637 -160 q 578 -144 616 -157 q 524 -103 543 -125 l 524 -103 l 524 -103 q 499 -79 513 -92 l 499 -79 l 513 -100 q 469 -76 472 -84 q 434 -60 461 -71 l 434 -60 l 445 -43 q 412 -27 431 -43 q 391 3 396 -11 l 391 3 l 369 0 q 334 68 334 43 l 334 68 l 328 57 q 320 68 326 60 l 320 68 l 320 68 l 320 68 l 320 68 l 320 68 l 320 68 l 320 68 l 320 68 l 320 68 l 320 68 q 315 76 317 71 q 277 127 293 103 q 282 144 260 155 q 274 152 277 149 l 274 152 l 274 152 l 274 152 l 274 152 q 274 152 274 152 q 252 176 260 163 l 252 176 l 260 184 q 225 255 228 231 q 250 236 241 236 q 220 293 231 282 q 201 301 209 304 l 201 301 l 201 301 q 182 312 193 301 q 160 363 174 320 l 160 363 l 168 363 q 157 382 163 372 l 157 382 l 157 382 l 157 382 l 157 382 l 157 382 l 157 382 l 157 382 l 157 382 l 157 382 l 157 382 l 157 382 l 157 382 l 157 382 l 157 382 q 157 385 157 382 q 152 393 155 388 l 152 393 l 157 429 q 136 513 136 456 q 146 627 138 570 q 146 627 146 627 l 146 627 l 146 629 q 146 632 146 632 q 146 637 146 635 l 146 637 l 146 637 q 146 643 146 640 q 152 684 149 665 q 174 741 155 708 q 201 798 187 765 l 201 798 l 190 800 q 271 898 212 838 q 377 960 334 958 q 382 971 393 982 l 382 971 l 382 971 q 366 968 372 966 q 415 1006 396 998 q 450 1015 434 1015 l 450 1015 l 450 1015 q 450 1015 450 1015 q 477 1020 461 1015 q 477 1025 499 1034 l 477 1025 l 477 1025 q 477 1025 477 1025 q 461 1028 453 1017 q 515 1053 502 1039 q 515 1053 515 1053 l 515 1053 l 515 1053 q 515 1053 515 1053 q 545 1066 529 1061 q 600 1077 562 1074 q 591 1069 605 1072 q 589 1069 591 1069 l 589 1069 l 589 1069 q 570 1061 578 1066 q 694 1077 616 1082 q 836 1044 770 1074 q 971 928 909 1009 q 1039 749 1031 844 l 1039 749 l 1044 749 q 1044 700 1042 724 q 1034 591 1047 646 l 1034 591 l 1044 616 q 1031 548 1044 575 m 947 1123 l 947 1123 l 947 1123 l 947 1123 l 947 1123 l 947 1123 l 947 1123 l 947 1123 m 673 309 l 673 309 q 808 293 743 288 q 643 309 738 269 q 502 426 548 350 q 529 401 510 423 l 529 401 l 529 399 q 529 399 529 399 q 589 347 559 363 q 543 401 562 372 q 629 334 581 358 q 632 339 629 336 l 632 339 l 632 339 q 673 309 643 326 m 887 635 l 887 635 q 895 632 890 618 q 890 659 895 659 q 882 643 887 656 q 887 635 884 640 l 887 635 l 887 635 l 887 635 m 876 572 l 876 572 l 876 572 q 860 537 871 553 l 860 537 l 857 532 q 836 524 836 518 q 846 543 838 529 l 846 543 l 846 543 l 846 543 l 846 543 l 846 543 l 846 543 q 846 545 846 545 q 857 564 854 556 q 836 529 836 534 q 841 521 836 521 q 841 521 841 521 l 841 521 l 841 521 q 841 521 841 521 q 849 513 849 518 q 876 572 871 540 m 724 480 l 724 480 q 722 475 708 480 q 760 464 735 469 q 781 486 773 475 q 724 480 754 477 m 475 450 l 475 450 l 475 450 l 475 450 l 469 434 q 483 418 477 426 l 483 418 l 483 415 q 483 415 483 415 q 518 374 499 393 q 499 407 507 393 l 499 407 l 499 407 q 496 410 496 410 l 496 410 l 496 410 q 475 450 488 426 m 494 475 l 494 475 l 494 477 l 494 477 l 491 480 q 513 437 499 458 l 513 437 l 515 431 l 515 431 l 510 450 q 494 475 499 461 m 1142 589 l 1142 589 l 1139 581 q 1099 453 1128 513 q 1142 589 1134 518 m 98 914 l 98 914 q 87 882 98 898 q 98 890 92 887 l 98 890 l 98 890 l 98 890 l 98 890 q 100 892 100 892 q 103 892 100 892 q 103 914 114 922 q 103 914 103 914 l 103 914 l 103 914 q 98 914 98 914 m 68 803 l 68 803 l 68 803 q 68 803 68 803 q 71 814 71 808 q 60 779 54 789 l 60 779 l 60 779 q 60 765 60 773 q 68 803 65 787 "},"":{"ha":1389,"x_min":87,"x_max":1340,"o":"m 1099 317 l 1099 317 q 1082 309 1090 315 q 996 532 1072 434 q 749 689 911 643 q 578 781 632 722 q 521 911 521 838 q 591 1066 521 1001 q 765 1128 659 1128 q 901 1085 852 1128 q 949 974 949 1039 q 892 857 949 909 q 882 830 879 846 q 882 817 882 822 l 882 817 l 798 735 q 792 730 792 732 l 792 730 l 789 730 q 789 705 781 716 q 819 703 798 689 l 819 703 l 911 789 q 922 787 917 787 q 993 841 955 787 q 1034 971 1034 895 l 1034 971 l 1031 998 q 944 1158 1023 1101 q 768 1215 865 1215 q 545 1137 637 1215 q 439 917 439 1050 l 439 917 l 439 892 q 567 678 453 757 q 697 618 610 648 l 697 618 l 760 597 q 922 488 857 562 q 996 315 985 415 q 884 369 947 328 l 884 369 l 738 467 q 586 548 654 524 q 456 570 518 570 q 334 553 393 570 q 155 415 214 515 q 87 198 92 312 l 87 198 l 87 184 q 231 -84 87 16 q 551 -174 353 -171 q 817 -119 694 -174 q 1012 41 941 -65 q 1080 225 1069 125 q 1128 239 1104 228 q 1134 239 1131 239 q 1137 241 1134 241 q 1156 250 1145 247 q 1169 260 1161 255 l 1169 260 l 1218 296 q 1226 304 1223 301 q 1232 309 1229 307 q 1240 320 1237 315 q 1240 336 1242 328 q 1240 339 1240 339 q 1240 342 1240 342 l 1240 342 l 1329 418 q 1326 448 1340 439 q 1302 448 1316 456 l 1302 448 l 1302 448 q 1297 445 1299 448 l 1297 445 l 1213 369 q 1194 374 1202 374 q 1164 361 1177 374 l 1164 361 l 1161 358 q 1150 347 1156 353 q 1139 339 1142 342 l 1139 339 l 1115 328 q 1099 317 1107 323 m 798 730 l 798 730 q 838 770 798 732 q 882 798 882 808 q 876 792 879 795 q 803 727 803 727 q 798 730 798 727 m 819 713 l 819 713 q 808 705 819 708 l 808 705 l 800 705 q 795 708 795 705 q 798 711 795 711 q 808 713 800 713 q 817 716 811 716 q 819 713 819 716 m 882 768 l 882 768 q 857 741 882 765 q 830 719 830 719 q 827 719 830 719 q 827 719 827 719 l 827 719 l 825 722 q 838 738 825 724 q 852 751 849 749 q 868 768 860 762 q 882 768 882 779 m 1313 442 l 1313 442 q 1324 437 1321 439 q 1324 431 1324 434 l 1324 431 l 1242 358 q 1232 369 1240 363 l 1313 442 l 1232 369 l 1313 442 m 1310 445 l 1310 445 l 1240 380 l 1240 380 l 1234 385 l 1234 385 l 1308 445 l 1310 445 l 1308 445 l 1310 445 m 996 228 l 996 228 q 944 95 985 160 q 795 -38 892 14 q 556 -87 697 -87 q 274 -14 377 -87 q 171 187 171 60 q 239 388 171 304 q 442 486 309 480 l 442 486 l 456 486 q 562 467 507 486 q 678 404 613 445 l 678 404 l 779 336 q 933 250 871 274 q 996 228 963 236 "},"":{"ha":1215,"x_min":43,"x_max":1166,"o":"m 901 575 l 898 575 l 901 575 q 618 868 879 860 l 618 868 l 616 868 q 377 746 458 865 l 377 746 l 472 681 q 540 741 502 724 q 616 754 581 754 l 616 754 l 618 754 q 743 705 703 754 q 784 610 773 670 q 621 618 708 621 q 429 545 499 608 q 363 382 361 483 q 456 222 372 282 q 629 179 532 174 q 827 274 757 184 q 895 450 879 342 q 982 355 955 415 q 996 233 1004 304 q 922 95 987 163 q 616 -16 817 -16 q 266 133 382 -14 q 157 521 160 269 q 266 909 160 773 q 616 1058 382 1055 q 968 909 849 1055 q 1055 732 1028 836 l 1055 732 l 1166 760 q 1055 982 1131 890 q 616 1172 903 1169 l 616 1172 l 613 1172 q 179 982 328 1169 q 43 521 46 814 l 43 521 l 43 521 l 43 521 l 43 521 q 179 60 46 228 q 613 -130 328 -127 l 613 -130 l 616 -130 q 1001 14 863 -130 q 1107 220 1096 114 q 1085 401 1118 326 q 917 567 1036 510 q 909 572 911 570 l 909 572 l 909 572 q 901 575 903 575 m 477 388 l 477 391 l 477 391 q 507 464 472 429 q 629 502 543 496 q 667 505 648 505 q 787 491 732 505 q 727 331 773 369 q 624 293 678 293 q 524 315 570 290 l 524 315 l 524 315 q 477 388 480 339 "},"":{"ha":1215,"x_min":0,"x_max":1215,"o":"m 174 1128 l 174 1128 l 1042 1128 q 1164 1077 1115 1126 q 1215 955 1213 1028 l 1215 955 l 1215 87 q 1164 -35 1213 14 q 1042 -87 1115 -84 l 1042 -87 l 174 -87 q 52 -35 100 -84 q 0 87 3 14 l 0 87 l 0 955 q 52 1077 3 1028 l 52 1077 l 52 1077 q 174 1128 100 1126 m 798 553 l 798 553 l 798 553 q 787 559 792 556 q 600 754 773 749 l 600 754 l 597 754 q 439 673 494 751 l 439 673 l 502 629 q 597 678 545 684 l 597 678 l 600 678 q 684 646 654 675 q 708 581 703 621 q 602 586 659 589 q 475 540 521 581 q 429 431 426 496 q 491 323 434 363 q 608 293 543 290 q 738 358 692 298 q 784 475 773 401 q 841 412 825 450 q 852 331 857 377 q 803 239 844 282 q 597 163 730 163 q 366 263 442 165 q 293 521 293 353 q 366 781 293 689 q 597 879 442 876 q 833 781 754 876 q 890 662 871 732 l 890 662 l 963 681 q 890 830 941 768 q 597 955 789 955 l 597 955 l 597 955 q 307 827 407 955 q 217 521 220 716 l 217 521 l 217 521 l 217 521 l 217 521 q 307 214 220 326 q 597 87 404 90 l 597 87 l 597 87 q 854 182 762 87 q 925 320 917 250 q 909 442 933 391 q 798 553 879 513 m 602 369 l 602 369 l 605 369 q 537 382 567 366 q 505 434 507 399 q 526 483 502 458 q 608 510 548 505 q 632 510 618 510 q 711 502 675 510 q 670 393 703 420 l 670 393 l 670 393 q 602 369 640 369 "},"":{"ha":1215,"x_min":0,"x_max":1215,"o":"m 174 1128 l 174 1128 l 1042 1128 q 1164 1077 1115 1126 q 1215 955 1213 1028 l 1215 955 l 1215 87 q 1164 -35 1213 14 q 1042 -87 1115 -84 l 1042 -87 l 174 -87 q 52 -35 100 -84 q 0 87 3 14 l 0 87 l 0 955 q 52 1077 3 1028 l 52 1077 l 52 1077 q 174 1128 100 1126 m 979 901 l 979 901 l 852 901 l 852 901 l 637 656 l 637 656 l 456 901 l 456 901 l 190 901 l 190 901 l 507 486 l 507 486 l 206 141 l 206 141 l 334 141 l 334 141 l 567 407 l 567 407 l 770 141 l 770 141 l 1028 141 l 1028 141 l 697 578 l 979 901 l 697 578 l 979 901 m 876 217 l 876 217 l 806 217 l 806 217 l 339 827 l 339 827 l 415 827 l 876 217 l 415 827 l 876 217 "},"":{"ha":1389,"x_min":73,"x_max":1321,"o":"m 1055 1085 l 1055 1085 l 741 724 l 741 724 l 467 1085 l 467 1085 l 73 1085 l 73 1085 l 545 467 l 545 467 l 98 -43 l 98 -43 l 290 -43 l 290 -43 l 635 350 l 635 350 l 936 -43 l 936 -43 l 1321 -43 l 1321 -43 l 830 608 l 830 608 l 1248 1085 l 1055 1085 l 1248 1085 l 1055 1085 m 987 71 l 987 71 l 296 977 l 296 977 l 410 977 l 410 977 l 1096 71 l 987 71 l 1096 71 l 987 71 "},"":{"ha":1736,"x_min":5,"x_max":1725,"o":"m 1278 936 l 1278 936 l 1278 936 q 1280 939 1280 939 q 1354 925 1289 939 q 1497 892 1419 914 q 1630 844 1576 873 q 1676 789 1655 830 q 1725 654 1698 749 q 1714 640 1723 643 q 1714 637 1714 637 q 1581 589 1666 594 q 1321 697 1495 586 q 1345 637 1340 648 q 1351 629 1351 627 q 1351 629 1351 629 q 1440 586 1367 618 q 1571 551 1514 556 q 1652 567 1614 553 q 1709 594 1690 583 q 1709 594 1709 594 q 1714 597 1712 594 q 1720 589 1720 597 q 1717 586 1720 586 q 1712 562 1717 578 q 1701 540 1706 545 q 1628 499 1698 532 q 1421 464 1554 467 q 1337 469 1375 467 q 1242 472 1280 480 q 1196 415 1207 467 q 1248 266 1191 342 l 1248 266 l 1115 266 q 1096 307 1104 285 q 1034 404 1074 361 q 901 450 993 448 q 784 374 800 442 q 784 266 768 309 l 784 266 l 659 266 q 534 472 616 404 q 382 548 453 537 q 160 477 228 567 q 146 282 95 388 q 285 184 198 193 q 415 225 372 176 q 429 336 453 279 q 339 404 407 393 q 293 393 312 407 q 269 358 271 382 l 269 358 l 269 358 q 285 328 271 336 q 301 320 296 320 q 326 326 320 320 q 334 326 331 326 q 361 320 347 328 q 380 288 377 312 q 345 247 374 255 q 301 241 323 241 q 228 271 263 241 q 187 355 190 298 q 247 464 190 423 q 331 488 279 486 q 434 458 380 488 q 518 353 499 418 q 521 233 537 288 q 277 90 464 79 q 65 209 141 103 q 19 307 33 255 q 14 418 5 366 q 35 499 22 472 q 171 697 90 627 q 301 795 255 770 q 304 798 301 798 q 656 939 507 917 q 909 952 803 963 q 909 952 909 952 q 1147 917 1039 944 q 1278 882 1253 890 q 1278 911 1278 890 l 1278 911 l 1278 911 q 1278 936 1278 933 m 1647 732 l 1647 732 q 1598 822 1647 789 q 1495 825 1549 852 q 1443 738 1446 798 q 1489 648 1440 681 q 1592 646 1541 621 q 1647 732 1641 675 m 1546 808 l 1546 808 q 1611 770 1590 808 q 1609 697 1630 735 q 1541 665 1584 665 q 1478 703 1500 667 q 1481 776 1459 741 q 1546 808 1506 811 m 1557 730 l 1557 730 l 1557 730 q 1590 751 1590 732 q 1557 773 1590 770 q 1527 751 1527 770 l 1527 751 l 1527 751 q 1557 730 1527 732 "},"":{"ha":1736,"x_min":0,"x_max":1736,"o":"m 1413 868 l 1413 868 l 1408 868 q 1256 827 1324 865 q 1142 719 1185 787 l 1142 719 l 1142 716 l 1142 716 l 1142 716 q 1191 545 1188 640 q 1142 377 1188 450 q 1256 266 1185 307 q 1413 225 1326 225 q 1641 320 1552 228 q 1736 545 1733 410 q 1641 773 1733 684 l 1641 773 l 1641 773 q 1413 868 1552 865 m 868 868 l 868 868 l 863 868 q 708 827 779 865 q 597 719 640 787 l 597 719 l 594 716 l 594 716 l 594 716 q 643 545 643 640 q 594 377 643 450 q 711 266 637 307 q 868 225 781 225 l 868 225 l 873 225 q 1028 266 958 228 q 1139 372 1096 307 l 1139 372 l 1142 377 l 1142 377 l 1142 377 q 1093 545 1093 450 q 1142 716 1093 640 q 1025 827 1099 787 l 1025 827 l 1025 827 q 868 868 955 868 m 323 868 l 323 868 q 95 773 184 865 q 0 545 3 684 q 95 320 3 410 q 323 225 184 228 l 323 225 l 328 225 q 480 266 412 228 q 594 372 551 307 l 594 372 l 594 377 l 594 377 l 594 377 q 545 545 548 450 q 594 716 548 640 q 480 827 551 787 l 480 827 l 480 827 q 323 868 410 868 "},"":{"ha":1215,"x_min":0,"x_max":1215,"o":"m 1042 1128 l 1042 1128 l 174 1128 q 52 1077 100 1126 q 0 955 3 1028 l 0 955 l 0 87 q 52 -35 3 14 q 174 -87 100 -84 l 174 -87 l 1042 -87 q 1164 -35 1115 -84 q 1215 87 1213 14 l 1215 87 l 1215 955 q 1164 1077 1213 1028 l 1164 1077 l 1164 1077 q 1042 1128 1115 1126 m 285 708 l 285 708 q 448 618 391 703 q 418 518 418 575 q 445 420 418 464 l 445 420 l 448 418 l 448 418 l 445 415 q 285 328 391 334 q 152 382 203 331 q 95 518 98 437 q 152 654 98 600 l 152 654 l 152 654 q 285 708 203 705 m 608 708 l 608 708 q 770 618 713 703 q 741 518 741 575 q 768 420 741 464 l 768 420 l 770 418 l 770 418 l 768 415 q 608 328 713 334 q 445 418 502 334 q 475 518 475 461 q 448 616 475 572 l 448 616 l 448 618 l 448 618 l 448 621 q 608 708 502 703 m 930 708 l 930 708 q 1063 654 1012 705 q 1120 518 1118 600 q 1063 382 1118 437 q 930 328 1012 331 q 768 418 825 334 q 798 518 798 461 q 770 616 798 572 l 770 616 l 768 618 l 768 618 l 770 621 q 930 708 825 703 "},"":{"ha":1389,"x_min":0,"x_max":1389,"o":"m 198 -174 l 198 -174 l 0 -174 l 0 -174 l 0 24 l 0 24 l 198 24 l 198 24 l 198 819 l 198 819 l 396 819 l 396 819 l 396 1017 l 396 1017 l 795 1017 l 795 1017 l 795 1215 l 795 1215 l 1389 1215 l 1389 1215 l 1389 621 l 1389 621 l 1191 621 l 1191 621 l 1191 222 l 1191 222 l 993 222 l 993 222 l 993 24 l 993 24 l 198 24 l 198 -174 l 198 24 l 198 -174 m 396 420 l 396 420 l 396 222 l 396 222 l 594 222 l 594 222 l 594 420 l 396 420 l 594 420 l 396 420 m 594 618 l 594 621 l 594 420 l 594 420 l 795 420 l 795 420 l 795 618 l 594 618 l 795 618 l 594 618 m 795 618 l 795 621 l 993 621 l 993 621 l 993 819 l 993 819 l 795 819 l 795 618 l 795 819 l 795 618 m 993 1017 l 993 1017 l 993 819 l 993 819 l 1191 819 l 1191 819 l 1191 1017 l 993 1017 l 1191 1017 l 993 1017 "},"":{"ha":1389,"x_min":0,"x_max":1389,"o":"m 1061 404 l 1061 404 q 1047 434 1053 420 q 1006 491 1028 464 q 939 556 974 526 q 694 637 833 635 q 385 491 502 629 q 345 434 361 464 q 328 404 336 420 l 328 404 l 328 404 q 290 231 290 326 q 407 -54 293 60 q 694 -174 524 -168 q 982 -54 865 -168 q 1099 231 1096 60 q 1061 404 1099 326 q 1061 404 1061 404 m 1131 456 l 1131 456 l 1389 665 l 1389 665 l 694 1215 l 694 1215 l 0 665 l 0 665 l 258 456 q 434 648 320 578 q 694 724 551 722 q 955 648 838 722 l 955 648 l 955 648 q 1131 456 1069 578 "},"":{"ha":1215,"x_min":16,"x_max":1199,"o":"m 396 1215 l 396 1215 l 274 1077 q 214 1085 269 1080 q 117 1058 160 1090 q 52 990 79 1017 q 24 963 27 963 l 24 963 l 57 882 l 57 882 l 16 762 q 49 643 19 757 q 111 404 79 529 q 152 244 144 282 q 195 119 171 165 q 279 35 222 76 q 426 -65 345 -11 q 529 -133 505 -119 q 545 -144 537 -138 q 608 -174 575 -168 l 608 -174 l 608 -174 l 608 -174 l 608 -174 q 670 -144 640 -168 q 673 -144 670 -144 q 686 -133 681 -138 q 792 -65 711 -119 q 936 35 871 -11 q 1020 119 993 76 q 1063 244 1044 165 q 1104 404 1072 282 q 1166 643 1137 529 q 1199 762 1196 757 l 1199 762 l 1158 882 l 1158 882 l 1191 963 q 1191 963 1191 963 q 1164 990 1188 963 q 1099 1058 1137 1017 q 1001 1085 1055 1090 q 941 1077 947 1080 l 941 1077 l 822 1215 l 396 1215 l 608 1215 l 396 1215 m 608 109 l 608 109 l 608 109 q 572 133 591 114 q 572 133 572 133 q 570 136 572 133 q 570 136 570 136 q 499 193 553 149 q 431 244 442 233 q 426 269 412 258 q 480 298 437 274 q 496 307 488 301 q 507 312 502 309 q 570 339 540 328 q 608 350 600 350 l 608 350 l 608 350 l 608 350 l 608 350 q 646 339 616 350 q 711 312 675 328 q 724 304 716 307 q 735 298 730 301 q 792 269 779 274 q 787 244 803 258 q 719 193 773 233 q 648 136 662 149 q 646 136 646 136 q 643 133 643 133 q 643 133 643 133 q 608 109 624 114 l 608 109 l 608 109 l 608 109 m 608 559 l 608 559 l 608 559 q 540 572 583 562 q 537 572 537 572 l 537 572 l 537 572 l 537 572 l 532 575 q 513 608 505 581 q 513 610 513 608 q 513 613 513 610 q 513 616 513 613 q 524 670 515 629 q 537 749 532 711 q 540 751 537 749 q 540 757 540 754 q 545 787 543 779 q 543 817 551 814 q 543 817 543 817 q 543 819 543 819 q 543 822 543 819 q 515 833 537 825 q 467 846 491 841 q 456 849 461 846 q 448 852 453 849 q 388 854 423 857 q 328 849 353 852 q 323 849 326 849 q 315 849 317 849 q 296 838 279 844 q 358 814 309 833 q 372 808 366 811 l 372 808 l 374 808 q 407 795 393 800 q 415 792 412 795 q 420 792 418 792 q 420 792 420 792 q 469 770 448 781 q 499 738 494 757 q 469 656 499 703 q 467 656 469 656 q 456 635 461 646 q 439 602 442 610 q 439 586 437 594 q 461 562 442 575 q 499 537 483 548 q 507 532 505 534 q 510 529 510 532 q 521 524 513 529 q 564 494 540 513 q 591 461 591 477 q 556 415 589 445 q 505 372 524 385 q 456 345 486 361 q 401 323 423 328 q 317 388 358 323 q 309 445 304 418 q 326 496 315 472 q 326 496 326 496 l 326 496 l 328 502 q 312 562 336 545 l 312 562 l 312 562 q 309 562 312 562 q 307 564 309 564 l 307 564 l 190 689 q 184 697 187 694 q 182 700 182 697 l 182 700 l 182 700 q 152 762 155 716 q 193 838 155 784 q 266 941 231 892 q 307 990 304 987 q 374 977 315 990 q 456 966 437 966 q 526 985 480 968 q 526 985 526 985 l 526 985 l 526 985 q 548 993 537 987 q 608 1004 605 1006 l 608 1004 l 608 1004 l 608 1004 l 608 1004 q 667 993 610 1006 q 681 987 673 990 q 689 985 684 985 l 689 985 l 689 985 q 689 985 689 985 q 760 966 735 968 q 841 977 779 966 q 909 990 901 990 q 909 990 909 990 q 949 939 911 987 q 1023 838 985 892 q 1063 762 1061 784 q 1036 700 1061 716 q 1034 700 1034 700 l 1034 700 l 1034 700 q 1031 694 1034 697 q 1025 689 1028 692 l 1025 689 l 909 564 q 903 562 906 564 l 903 562 l 903 562 q 903 562 903 562 q 887 540 895 553 q 887 505 879 524 l 887 505 l 890 496 q 906 445 901 475 q 898 388 914 418 q 814 326 857 323 q 762 345 792 328 q 711 372 730 361 q 659 415 692 385 q 624 464 627 445 q 651 494 627 477 q 694 524 675 513 q 703 529 700 526 q 705 529 703 529 q 705 532 705 532 q 716 537 708 532 l 716 537 l 716 537 q 754 562 735 548 q 776 586 773 578 q 776 602 779 594 q 760 635 773 610 q 751 651 757 643 q 749 656 749 654 l 749 656 l 749 656 q 716 738 716 703 q 746 770 722 757 q 795 792 768 781 q 795 792 795 792 q 808 795 803 795 q 844 808 822 800 l 844 808 l 844 808 l 844 808 l 844 808 q 892 827 868 819 q 920 838 914 836 q 901 849 936 844 q 892 849 898 849 q 887 849 890 849 q 884 852 887 849 q 825 854 857 854 q 768 852 789 857 q 760 849 762 852 q 749 846 754 849 l 749 846 l 749 846 q 743 844 746 846 q 697 833 719 838 q 673 822 678 825 q 673 819 673 819 q 673 817 673 819 q 673 817 673 817 q 670 787 665 814 q 675 757 673 779 q 675 751 675 754 q 678 749 678 749 q 692 670 684 711 q 703 616 700 629 q 703 610 703 613 q 703 610 703 610 q 684 575 711 581 l 684 575 l 678 572 l 678 572 l 678 572 q 675 572 678 572 q 608 559 632 562 l 608 559 l 608 559 l 608 559 "},"":{"ha":1215,"x_min":22,"x_max":1194,"o":"m 808 1215 l 808 1215 l 407 1215 q 385 1204 393 1215 l 385 1204 l 282 1085 q 279 1085 282 1085 q 279 1088 279 1088 q 203 1090 241 1093 q 125 1055 155 1085 q 62 990 92 1023 q 54 982 60 987 q 43 971 49 977 q 41 966 43 968 q 38 963 38 966 q 33 933 27 949 l 33 933 l 60 865 l 60 865 l 24 762 q 22 746 22 754 q 24 741 22 746 q 27 724 24 735 q 43 667 35 700 q 43 667 43 667 q 87 496 65 581 q 100 448 95 472 q 152 250 144 282 q 198 117 171 163 q 282 33 225 71 q 415 -62 339 -8 q 518 -130 491 -114 q 518 -133 518 -130 q 526 -138 524 -133 q 532 -141 529 -138 q 537 -144 534 -144 q 570 -165 556 -157 q 608 -174 589 -174 q 646 -165 627 -174 q 678 -144 659 -157 q 681 -141 678 -144 q 689 -138 686 -138 q 697 -130 694 -133 q 800 -60 724 -114 q 933 33 876 -8 q 1017 117 990 71 q 1063 250 1044 163 q 1115 445 1072 282 q 1128 496 1120 469 q 1172 667 1150 581 q 1180 703 1177 686 q 1188 724 1185 713 q 1191 741 1191 735 q 1194 746 1194 746 q 1191 762 1194 754 l 1191 762 l 1156 865 l 1156 865 l 1183 933 q 1175 966 1188 949 q 1172 971 1175 968 q 1161 982 1166 977 q 1153 990 1156 987 q 1090 1055 1123 1023 q 1012 1090 1061 1085 q 936 1088 974 1093 q 933 1085 936 1088 l 933 1085 l 830 1204 q 808 1215 822 1215 m 795 1158 l 795 1158 l 901 1036 q 930 1028 914 1023 q 933 1028 930 1028 q 933 1028 933 1028 q 947 1031 939 1031 q 1006 1034 977 1036 q 1050 1015 1036 1031 q 1109 952 1082 982 q 1123 939 1118 944 l 1123 939 l 1099 879 q 1099 857 1096 868 l 1099 857 l 1137 751 q 1134 749 1134 751 q 1131 741 1134 746 q 1118 684 1126 713 q 1072 510 1093 594 q 1009 263 1020 304 q 968 149 990 184 q 901 79 947 111 q 768 -14 844 38 q 667 -81 692 -65 q 667 -81 667 -81 q 656 -90 662 -84 q 646 -98 651 -92 q 621 -111 629 -109 q 608 -117 613 -117 q 594 -111 602 -117 q 570 -98 583 -109 q 559 -90 564 -92 q 551 -84 553 -87 q 548 -81 548 -84 q 445 -14 521 -65 q 315 79 369 38 q 247 146 269 111 q 206 263 225 184 q 163 431 198 293 q 141 510 152 467 q 98 684 119 594 q 90 716 92 700 q 81 741 84 730 q 81 743 81 743 q 79 751 81 749 l 79 751 l 117 857 q 114 879 119 868 l 114 879 l 92 939 q 103 952 98 944 q 165 1015 133 982 q 209 1034 179 1031 q 269 1031 239 1036 q 269 1031 269 1031 q 282 1028 274 1028 q 282 1028 282 1028 q 285 1028 285 1028 q 315 1036 301 1023 l 315 1036 l 420 1158 l 795 1158 l 420 1158 l 795 1158 m 608 358 l 608 358 q 572 347 600 358 q 513 320 543 336 q 475 301 491 309 q 434 279 445 285 q 439 255 426 269 q 505 206 453 247 q 570 152 556 165 q 575 149 572 149 q 608 127 591 130 q 640 149 624 130 q 646 152 643 149 q 711 206 659 165 q 776 255 762 247 q 781 279 792 266 q 722 309 768 288 q 703 320 713 315 q 643 347 673 336 l 643 347 l 643 347 q 608 358 616 358 m 608 985 l 610 985 l 608 985 q 608 985 608 985 q 553 974 605 987 q 532 966 543 968 q 467 947 488 949 q 391 960 448 949 q 326 971 334 968 q 326 971 326 971 q 288 922 323 968 q 217 825 252 876 q 179 751 182 773 q 206 692 182 708 q 214 684 212 686 q 260 635 231 667 q 315 578 293 600 q 326 564 323 567 q 328 559 328 562 q 345 505 355 545 q 345 499 345 502 q 326 450 334 477 q 334 396 320 423 q 415 334 372 331 q 464 353 434 336 q 510 380 494 369 q 559 420 529 391 q 594 467 591 448 q 567 496 591 480 q 526 526 545 515 q 518 532 521 529 q 507 537 513 532 q 472 562 491 545 q 448 583 450 575 q 450 600 448 591 q 464 629 453 608 q 477 651 469 640 q 505 730 505 694 q 477 760 499 749 q 431 781 456 773 q 420 784 426 784 q 412 787 415 787 q 353 811 385 798 q 312 825 320 822 q 331 836 298 833 q 342 836 336 836 q 401 841 366 841 q 456 838 434 844 q 475 833 464 836 q 521 819 499 827 q 545 808 543 814 q 548 806 545 808 q 548 776 553 803 q 543 735 548 765 q 529 662 534 700 q 521 613 521 627 q 518 605 518 610 q 534 572 510 581 q 540 572 537 572 q 608 559 583 562 q 675 572 635 562 q 681 572 678 572 q 697 605 705 581 q 697 613 697 610 q 689 662 694 627 q 675 735 681 700 q 667 776 670 765 q 670 806 662 803 q 670 808 670 808 q 697 822 675 814 q 746 836 722 827 q 760 838 754 836 q 817 841 781 844 q 873 836 849 841 q 884 836 882 836 q 903 825 920 833 q 841 803 890 819 q 798 784 817 792 q 784 781 792 781 q 738 760 760 770 q 711 730 716 749 q 741 651 711 694 q 751 629 746 640 q 765 600 765 608 q 768 583 768 591 q 746 562 765 575 q 711 537 730 548 q 700 532 703 534 q 689 524 697 529 q 648 496 670 513 q 621 467 624 477 q 656 420 627 448 q 705 380 686 391 q 751 353 722 369 q 803 334 784 336 q 882 396 844 331 q 890 450 895 423 q 873 499 884 477 q 871 505 871 502 q 887 559 863 545 q 890 564 890 562 q 914 589 895 570 q 955 632 933 610 q 1001 684 987 667 q 1009 692 1006 686 q 1039 751 1036 708 q 1001 825 1036 773 q 928 922 966 876 q 890 971 892 968 q 890 971 890 971 q 827 960 884 968 q 751 947 770 949 q 684 966 727 949 q 665 971 673 968 q 608 985 613 987 "},"":{"ha":1215,"x_min":0,"x_max":1215,"o":"m 174 1128 l 174 1128 l 1042 1128 q 1164 1077 1115 1126 q 1215 955 1213 1028 l 1215 955 l 1215 87 q 1164 -35 1213 14 q 1042 -87 1115 -84 l 1042 -87 l 174 -87 q 52 -35 100 -84 q 0 87 3 14 l 0 87 l 0 955 q 52 1077 3 1028 l 52 1077 l 52 1077 q 174 1128 100 1126 m 640 901 l 640 901 q 382 841 494 895 q 214 732 274 787 q 152 673 152 678 l 152 673 l 209 583 q 220 589 209 583 q 222 635 231 597 q 317 738 239 675 l 317 738 l 317 144 q 285 130 298 138 q 285 103 271 119 l 285 103 l 445 103 q 442 130 458 119 q 412 144 429 138 l 412 144 l 412 285 q 480 263 415 282 q 637 241 548 244 q 906 328 798 241 q 1023 564 1017 418 q 914 806 1020 711 l 914 806 l 914 806 q 640 901 808 898 m 629 296 l 629 296 q 412 339 491 298 l 412 339 l 412 787 q 513 833 456 817 q 629 849 572 849 q 833 765 762 846 q 906 567 903 686 q 830 374 903 450 q 629 296 754 298 "},"":{"ha":1739,"x_min":3,"x_max":1739,"o":"m 1343 412 l 1343 412 q 1497 480 1438 415 q 1563 656 1560 545 q 1497 833 1560 768 q 1343 901 1438 898 q 1183 827 1248 903 q 1090 559 1115 751 q 1175 472 1109 524 l 1175 472 l 1175 472 q 1343 412 1240 418 m 1343 1058 l 1343 1058 q 1622 944 1511 1055 q 1739 656 1733 833 q 1622 369 1733 480 q 1343 255 1511 258 q 1326 255 1329 255 q 1126 317 1218 260 q 1061 363 1090 339 l 1061 363 l 998 -19 l 998 -19 l 817 -19 l 817 -19 l 911 521 q 795 738 836 632 q 735 911 751 844 l 735 911 l 735 654 q 635 366 732 475 q 372 255 534 258 q 103 369 209 255 q 3 654 3 483 l 3 654 l 3 1036 l 3 1036 l 179 1036 l 179 1036 l 179 654 q 228 480 179 548 q 372 412 279 415 q 513 480 464 415 q 559 654 559 548 l 559 654 l 559 1036 l 559 1036 l 865 1036 q 960 765 901 887 q 1080 968 985 882 l 1080 968 l 1080 968 q 1343 1058 1175 1055 "},"":{"ha":1736,"x_min":0,"x_max":1736,"o":"m 1736 1042 l 1736 1042 l 1223 1042 l 1223 1042 l 1025 662 l 1025 662 l 1015 662 l 1015 662 l 1015 1042 l 1015 1042 l 665 1042 l 665 1042 l 475 659 l 475 659 l 464 659 l 464 659 l 464 1042 l 464 1042 l 0 1042 l 0 1042 l 0 578 l 0 578 l 412 578 q 239 461 334 499 q 73 412 144 423 q 0 401 3 399 l 0 401 l 0 -41 q 524 103 304 -11 q 884 407 741 220 l 884 407 l 895 407 l 895 407 l 662 -41 l 662 -41 l 1183 -41 l 1736 1042 l 1183 -41 l 1736 1042 "},"":{"ha":1389,"x_min":-8,"x_max":1397,"o":"m 529 1194 l 529 1194 q 336 1115 426 1169 l 336 1115 l 369 1061 q 543 1131 450 1109 l 529 1194 l 543 1131 l 529 1194 m 863 1194 l 860 1194 q 1053 1115 963 1169 l 1053 1115 l 1020 1061 q 846 1131 939 1109 l 863 1194 l 846 1131 l 863 1194 m 100 879 l 100 879 l 155 846 q 84 673 106 765 l 84 673 l 22 686 q 100 879 46 789 m 65 521 l 65 521 q 73 426 65 472 l 73 426 l 8 418 q 8 624 -8 521 l 8 624 l 73 616 q 65 521 65 567 m 1053 -73 l 1053 -73 q 863 -155 963 -127 l 863 -155 l 846 -90 q 1020 -19 939 -68 l 1053 -73 l 1020 -19 l 1053 -73 m 1324 521 l 1324 521 q 1316 616 1324 567 l 1316 616 l 1381 624 q 1381 418 1397 521 l 1381 418 l 1316 426 q 1324 521 1324 475 m 1370 355 l 1370 355 q 1289 163 1343 252 l 1289 163 l 1234 195 q 1305 369 1283 277 l 1370 355 l 1305 369 l 1370 355 m 789 -100 l 789 -100 l 798 -165 q 591 -165 694 -182 l 591 -165 l 600 -100 q 789 -100 694 -117 m 1202 146 l 1202 149 l 1253 109 q 1107 -38 1191 24 l 1107 -38 l 1069 14 q 1202 146 1145 71 m 1069 1028 l 1069 1028 l 1107 1080 q 1253 933 1191 1017 l 1253 933 l 1202 895 q 1069 1028 1145 971 m 187 895 l 187 895 l 136 933 q 282 1080 198 1017 l 282 1080 l 320 1028 q 187 895 244 971 m 1289 879 l 1289 879 q 1370 689 1343 789 l 1370 689 l 1305 673 q 1234 846 1283 765 l 1289 879 l 1234 846 l 1289 879 m 600 1142 l 600 1142 l 591 1207 q 798 1207 694 1223 l 798 1207 l 789 1142 q 600 1142 694 1158 m 222 -54 l 222 -54 l 236 -119 l 236 -119 l 103 -149 q 68 -149 84 -155 q 41 -133 52 -144 q 24 -106 30 -122 q 24 -73 19 -90 l 24 -73 l 54 62 l 54 62 l 119 49 l 119 49 l 87 -87 l 222 -54 l 87 -87 l 222 -54 m 68 119 l 68 122 l 84 190 q 22 355 41 269 l 22 355 l 84 369 q 155 198 106 279 l 155 198 l 133 106 l 68 119 l 133 106 l 68 119 m 372 -22 l 372 -22 l 372 -19 q 543 -90 453 -68 l 543 -90 l 526 -155 q 363 -90 439 -133 l 363 -90 l 293 -106 l 293 -106 l 279 -43 l 372 -22 l 279 -43 l 372 -22 m 694 1085 l 694 1085 q 947 1025 827 1085 q 1145 860 1066 966 q 1251 624 1226 754 q 1237 363 1272 494 q 1109 138 1199 236 q 895 -5 1020 41 q 640 -41 770 -54 q 393 43 507 -27 l 393 43 l 163 -11 l 163 -11 l 217 220 q 130 505 136 350 q 201 792 127 659 q 407 1006 277 928 q 694 1085 540 1085 "},"":{"ha":1563,"x_min":0,"x_max":1563,"o":"m 1107 415 l 1107 415 q 1093 418 1099 418 q 1080 420 1088 418 q 1104 415 1090 418 l 1104 415 l 1104 415 q 1107 415 1104 415 m 781 600 l 781 600 q 963 863 838 711 q 1223 1120 1085 1017 q 1413 1213 1351 1207 q 1503 1199 1476 1218 q 1552 1137 1541 1180 q 1563 1058 1563 1093 q 1554 939 1563 1028 q 1541 760 1549 849 q 1522 635 1530 667 q 1359 450 1478 502 q 1107 415 1242 401 q 1093 418 1099 418 q 1080 420 1088 418 q 1104 418 1090 418 q 1107 415 1104 415 q 1326 342 1237 399 q 1419 190 1416 288 q 1286 -46 1419 95 q 1020 -165 1118 -187 q 873 -38 925 -144 q 798 182 825 71 q 781 236 789 212 q 781 233 781 233 q 694 -5 751 119 q 534 -168 635 -133 q 271 -46 434 -203 q 130 214 127 119 q 231 353 136 307 q 456 415 326 399 q 483 420 469 418 q 472 418 477 418 q 456 415 464 418 q 203 450 320 401 q 41 635 84 502 q 22 760 33 667 q 8 939 14 849 q 0 1058 0 1028 q 11 1137 0 1093 q 60 1199 22 1180 q 149 1213 90 1221 q 339 1120 212 1207 q 600 863 477 1017 l 600 863 l 600 863 q 781 600 724 711 "},"":{"ha":1215,"x_min":0,"x_max":1215,"o":"m 1118 1128 l 1118 1128 q 1188 1101 1158 1128 q 1215 1031 1215 1072 l 1215 1031 l 1215 11 q 1188 -60 1215 -30 q 1118 -87 1158 -87 l 1118 -87 l 98 -87 q 27 -60 57 -87 q 0 11 0 -30 l 0 11 l 0 1031 q 27 1101 0 1072 q 98 1128 57 1128 l 1118 1128 l 98 1128 l 1118 1128 m 1028 309 l 1028 309 l 388 309 q 250 252 304 309 q 190 111 193 195 l 190 111 l 830 111 q 968 171 914 114 l 968 171 l 968 171 q 1028 309 1025 225 m 1028 618 l 1028 618 l 388 618 q 250 562 304 616 q 190 420 193 505 l 190 420 l 830 420 q 968 480 914 423 l 968 480 l 968 480 q 1028 618 1025 534 m 1028 928 l 1028 928 l 388 928 q 250 871 304 925 q 190 730 193 814 l 190 730 l 830 730 q 968 789 914 732 l 968 789 l 968 789 q 1028 928 1025 844 "},"":{"ha":1215,"x_min":0,"x_max":1215,"o":"m 152 1128 l 152 1128 q 43 1085 87 1126 q 0 977 3 1042 l 0 977 l 0 65 q 43 -43 3 0 q 152 -87 87 -84 l 152 -87 l 1063 -87 q 1172 -43 1128 -84 q 1215 65 1213 0 l 1215 65 l 1215 977 q 1172 1085 1213 1042 q 1063 1128 1128 1126 l 152 1128 l 1063 1128 l 152 1128 m 735 472 l 735 472 q 781 423 746 450 q 873 391 817 393 q 960 429 928 391 q 996 526 996 464 q 960 624 996 586 q 873 659 928 659 q 787 618 822 662 l 787 618 l 787 618 q 735 472 749 578 m 662 586 l 662 586 q 730 697 678 651 q 873 749 781 746 q 1031 684 968 746 q 1093 526 1090 624 q 1031 366 1090 429 q 873 304 968 307 q 871 304 873 304 q 871 304 871 304 q 868 304 868 304 q 865 304 865 304 l 865 304 l 865 304 q 754 336 806 307 q 719 363 735 350 l 719 363 l 684 149 l 684 149 l 583 149 l 583 149 l 635 450 q 570 570 594 510 q 537 667 545 629 l 537 667 l 537 524 q 480 363 537 426 q 336 304 426 304 q 187 366 244 304 q 130 524 133 429 l 130 524 l 130 735 l 130 735 l 228 735 l 228 735 l 228 524 q 258 429 228 464 q 336 391 285 391 q 412 429 388 391 q 439 524 439 464 l 439 524 l 439 735 l 529 735 l 610 735 q 662 586 629 654 "},"":{"ha":1736,"x_min":0,"x_max":1736,"o":"m 1009 1074 l 1009 1074 q 968 1175 1009 1134 q 868 1215 928 1213 q 768 1175 808 1213 q 727 1074 730 1134 q 808 947 732 985 l 808 947 l 521 694 l 521 694 l 239 751 q 260 825 260 784 q 222 917 258 879 q 130 955 184 952 q 38 917 76 952 q 0 825 3 879 q 38 735 0 770 q 125 694 73 697 l 125 694 l 431 16 q 589 -87 480 -81 l 589 -87 l 1147 -87 q 1305 16 1256 -81 l 1305 16 l 1611 694 q 1698 735 1663 697 q 1736 825 1736 770 q 1698 917 1733 879 q 1606 955 1660 952 q 1514 917 1552 952 q 1476 825 1478 879 q 1497 751 1476 784 l 1497 751 l 1215 694 l 1215 694 l 928 947 q 1009 1074 1004 985 "},"":{"ha":1215,"x_min":0,"x_max":1215,"o":"m 174 1128 l 174 1128 l 1042 1128 q 1164 1077 1115 1126 q 1215 955 1213 1028 l 1215 955 l 1215 87 q 1164 -35 1213 14 q 1042 -87 1115 -84 l 1042 -87 l 174 -87 q 52 -35 100 -84 q 0 87 3 14 l 0 87 l 0 955 q 52 1077 3 1028 l 52 1077 l 52 1077 q 174 1128 100 1126 m 637 732 l 637 732 q 678 798 675 751 q 608 868 673 863 q 537 798 543 863 q 578 732 540 751 l 578 732 l 434 608 l 434 608 l 293 635 q 304 673 304 651 q 239 738 298 732 q 174 673 179 732 q 236 608 179 616 l 236 608 l 388 269 q 469 217 415 220 l 469 217 l 746 217 q 827 269 800 220 l 827 269 l 979 608 q 1042 673 1036 616 q 977 738 1036 732 q 911 673 917 732 q 922 635 911 651 l 922 635 l 781 608 l 637 732 l 781 608 l 637 732 "},"":{"ha":1215,"x_min":0,"x_max":1215,"o":"m 174 1042 l 174 1042 l 1042 1042 q 1104 1017 1080 1042 q 1128 955 1128 993 l 1128 955 l 1128 87 q 1104 24 1128 49 q 1042 0 1080 0 l 1042 0 l 174 0 q 111 24 136 0 q 87 87 87 49 l 87 87 l 87 955 q 111 1017 87 993 l 111 1017 l 111 1017 q 174 1042 136 1042 m 0 955 l 0 955 l 0 87 q 52 -35 3 14 q 174 -87 100 -84 l 174 -87 l 1042 -87 q 1164 -35 1115 -84 q 1215 87 1213 14 l 1215 87 l 1215 955 q 1164 1077 1213 1028 q 1042 1128 1115 1126 l 1042 1128 l 174 1128 q 52 1077 100 1126 l 52 1077 l 52 1077 q 0 955 3 1028 m 637 732 l 637 732 q 678 798 675 751 q 608 868 673 863 q 537 798 543 863 q 578 732 540 751 l 578 732 l 434 608 l 434 608 l 293 635 q 304 673 304 651 q 239 738 298 732 q 174 673 179 732 q 236 608 179 616 l 236 608 l 388 269 q 469 217 415 220 l 469 217 l 746 217 q 827 269 800 220 l 827 269 l 979 608 q 1042 673 1036 616 q 977 738 1036 732 q 911 673 917 732 q 922 635 911 651 l 922 635 l 781 608 l 637 732 l 781 608 l 637 732 "},"":{"ha":1389,"x_min":0,"x_max":1389,"o":"m 1028 1001 l 1028 1001 l 860 1169 q 814 1199 844 1185 q 760 1215 787 1215 q 675 1196 708 1215 l 675 1196 l 288 1001 l 288 1001 l 1004 1001 q 1028 1001 1015 1001 m 290 952 l 290 952 l 1175 71 l 1175 71 l 1389 73 l 1389 73 l 1389 640 l 1389 640 l 1099 928 q 1004 952 1063 958 l 290 952 l 1004 952 l 290 952 m 263 203 l 263 203 q 269 133 260 155 q 301 92 277 114 l 301 92 l 301 92 l 301 92 l 567 -174 l 567 -174 l 1142 -174 l 1142 -174 l 1139 35 l 1139 35 l 263 914 l 263 203 l 263 914 l 263 203 m 214 930 l 214 930 l 19 521 q 0 456 3 491 q 46 347 3 393 l 46 347 l 214 179 q 214 203 214 190 l 214 930 l 214 203 l 214 930 "},"":{"ha":1215,"x_min":43,"x_max":1166,"o":"m 1166 575 l 1166 575 l 738 575 l 738 575 l 363 201 l 363 201 l 578 -14 l 578 -14 l 738 -174 l 738 -174 l 1166 -174 l 1166 -174 l 792 201 l 1166 575 l 792 201 l 1166 575 m 738 1215 l 738 1215 l 1166 1215 l 1166 1215 l 258 307 l 258 307 l 43 521 l 738 1215 l 43 521 l 738 1215 "},"":{"ha":1215,"x_min":0,"x_max":1215,"o":"m 174 1128 l 174 1128 l 1042 1128 q 1164 1077 1115 1126 q 1215 955 1213 1028 l 1215 955 l 1215 87 q 1164 -35 1213 14 q 1042 -87 1115 -84 l 1042 -87 l 174 -87 q 52 -35 100 -84 q 0 87 3 14 l 0 87 l 0 955 q 52 1077 3 1028 l 52 1077 l 52 1077 q 174 1128 100 1126 m 952 675 l 952 675 q 952 675 952 675 q 952 697 952 686 q 1042 789 1004 735 q 939 762 993 768 q 1017 860 996 798 q 903 817 966 830 q 776 873 854 871 q 637 808 689 871 q 600 654 586 749 q 396 711 488 662 q 233 841 301 760 q 209 751 212 800 q 231 667 209 705 q 290 602 252 627 q 209 627 244 605 l 209 627 l 209 624 q 250 510 209 556 q 350 448 290 461 q 271 445 309 439 q 334 358 288 391 q 437 323 377 323 q 217 247 345 247 q 174 247 195 247 q 448 168 293 171 q 724 247 610 171 q 895 439 836 323 q 952 675 952 553 l 952 675 l 952 675 l 952 675 "},"":{"ha":1215,"x_min":0,"x_max":1215,"o":"m 174 1128 l 174 1128 l 1042 1128 q 1164 1077 1115 1126 q 1215 955 1213 1028 l 1215 955 l 1215 87 q 1164 -35 1213 14 q 1042 -87 1115 -84 l 1042 -87 l 692 -87 l 692 -87 l 692 309 l 692 309 l 879 309 l 879 309 l 920 521 l 920 521 l 692 521 l 692 521 l 692 597 q 727 716 692 678 q 849 751 765 751 q 930 749 903 751 l 930 749 l 930 941 q 860 952 903 947 q 779 958 814 958 q 439 613 437 963 l 439 613 l 439 521 l 439 521 l 296 521 l 296 521 l 296 309 l 296 309 l 439 309 l 439 309 l 439 -87 l 439 -87 l 174 -87 q 52 -35 100 -84 q 0 87 3 14 l 0 87 l 0 955 q 52 1077 3 1028 l 52 1077 l 52 1077 q 174 1128 100 1126 "},"":{"ha":1215,"x_min":0,"x_max":1215,"o":"m 1128 1128 l 1128 1128 q 1191 1104 1166 1128 q 1215 1042 1215 1077 l 1215 1042 l 1215 0 q 1191 -62 1215 -35 q 1128 -87 1166 -87 l 1128 -87 l 87 -87 q 24 -62 49 -87 q 0 0 0 -35 l 0 0 l 0 1042 q 24 1104 0 1077 q 87 1128 49 1128 l 1128 1128 l 87 1128 l 1128 1128 m 366 87 l 369 87 l 369 667 l 369 667 l 187 667 l 187 667 l 187 87 l 366 87 l 187 87 l 366 87 m 277 746 l 277 746 q 350 776 323 746 q 382 849 380 806 q 350 925 380 895 q 277 955 323 955 q 203 925 233 955 q 174 849 174 895 q 203 776 174 806 l 203 776 l 203 776 q 277 746 233 746 m 1042 87 l 1042 87 l 1042 404 q 1004 602 1047 524 q 827 681 960 678 q 716 651 760 681 q 656 589 673 624 l 656 589 l 654 589 l 654 589 l 654 667 l 654 667 l 480 667 l 480 667 l 480 87 l 480 87 l 662 87 l 662 87 l 662 374 q 678 477 659 434 q 768 524 700 521 q 849 472 836 518 q 863 369 865 423 l 863 369 l 863 87 l 1042 87 l 863 87 l 1042 87 "},"":{"ha":1215,"x_min":0,"x_max":1215,"o":"m 1215 955 l 1215 955 l 1215 87 q 1164 -35 1213 14 q 1042 -87 1115 -84 l 1042 -87 l 174 -87 q 52 -35 100 -84 q 0 87 3 14 l 0 87 l 0 955 q 52 1077 3 1028 q 174 1128 100 1126 l 174 1128 l 1042 1128 q 1164 1077 1115 1126 l 1164 1077 l 1164 1077 q 1215 955 1213 1028 m 722 109 l 722 109 q 751 87 719 87 q 968 250 890 136 q 1053 518 1050 366 q 920 830 1047 708 q 602 955 792 952 q 288 830 410 952 q 163 518 165 708 q 247 250 165 366 q 467 87 331 136 q 499 109 499 87 q 496 117 496 111 q 496 136 496 125 q 496 179 496 155 q 496 220 496 201 q 431 217 491 214 q 345 274 372 217 q 331 301 345 277 q 296 339 317 326 q 279 353 290 339 q 298 366 269 363 q 323 358 301 366 q 366 320 347 350 q 437 271 399 271 q 499 282 477 271 q 526 342 507 326 q 388 382 448 347 q 326 540 328 415 q 369 646 326 608 q 358 689 363 656 q 372 768 355 722 q 448 749 404 773 q 496 722 491 724 q 610 735 551 735 q 722 722 667 735 q 722 722 722 722 q 770 749 727 724 q 846 768 814 773 q 860 689 863 722 q 852 646 854 656 q 898 540 895 608 q 833 380 892 415 q 692 342 770 347 q 722 260 719 323 q 722 141 722 193 q 722 109 722 117 m 475 258 l 475 258 q 486 252 477 252 q 494 260 494 255 q 483 266 494 266 q 475 258 475 266 m 450 250 l 450 250 q 461 255 458 250 q 450 263 458 263 q 439 255 442 260 q 450 250 442 250 m 412 255 l 412 255 q 423 258 420 252 q 415 269 423 266 q 404 263 407 269 q 412 255 404 258 m 377 274 l 377 274 q 391 274 385 269 q 388 285 393 277 q 374 285 380 290 q 377 274 372 282 m 355 301 l 355 301 q 366 298 361 296 q 366 309 369 301 q 355 312 361 315 q 355 301 350 309 m 339 326 l 339 326 q 347 326 342 320 q 347 334 350 328 q 336 336 342 339 q 339 326 334 331 m 323 345 l 323 345 q 328 345 328 342 q 326 353 331 347 q 317 350 320 353 q 323 345 317 347 "},"":{"ha":1389,"x_min":0,"x_max":1389,"o":"m 1245 803 l 1245 803 q 1389 952 1329 865 q 1226 906 1310 917 q 1351 1063 1316 963 q 1169 996 1267 1015 q 960 1085 1088 1082 q 760 1001 841 1082 q 678 800 681 920 q 684 735 678 768 q 355 825 505 746 q 98 1034 203 903 q 57 890 60 968 q 184 651 65 735 q 57 689 114 656 l 57 689 l 57 684 q 122 502 60 578 q 285 404 184 426 q 209 396 250 396 q 157 399 182 396 q 255 260 184 315 q 423 203 326 206 q 68 81 271 84 q 0 84 33 81 q 437 -43 193 -41 q 879 84 700 -38 q 1153 391 1061 206 q 1248 768 1248 575 q 1248 768 1248 768 l 1248 768 l 1248 768 q 1245 803 1248 784 "},"":{"ha":1389,"x_min":0,"x_max":1389,"o":"m 1389 521 l 1389 521 l 1389 521 q 1213 60 1383 250 q 779 -168 1042 -130 l 779 -168 l 779 309 l 779 309 l 966 309 l 966 309 l 1006 521 l 1006 521 l 779 521 l 779 521 l 779 597 q 814 716 779 678 q 936 751 852 751 q 1017 749 990 751 l 1017 749 l 1017 941 q 947 952 990 947 q 865 958 901 958 q 526 613 524 963 l 526 613 l 526 521 l 526 521 l 382 521 l 382 521 l 382 309 l 382 309 l 526 309 l 526 309 l 526 -155 q 149 90 296 -92 q 0 521 5 271 q 95 871 3 716 q 345 1120 187 1028 q 694 1215 499 1213 q 1044 1120 890 1213 l 1044 1120 l 1044 1120 q 1294 871 1202 1028 l 1294 871 l 1294 871 q 1389 521 1386 716 "},"":{"ha":1389,"x_min":0,"x_max":1389,"o":"m 1389 521 q 1294 871 1386 716 l 1294 871 l 1294 871 q 1044 1120 1202 1028 l 1044 1120 l 1044 1120 q 694 1215 890 1213 q 345 1120 499 1213 q 95 871 187 1028 q 0 521 3 716 q 149 90 5 271 q 526 -155 296 -92 l 526 309 l 526 309 l 382 309 l 382 309 l 382 521 l 382 521 l 526 521 l 526 521 l 526 613 l 526 613 q 865 958 524 963 q 947 952 901 958 q 1017 941 990 947 l 1017 749 l 1017 749 q 936 751 990 751 q 814 716 852 751 q 779 597 779 678 l 779 521 l 779 521 l 1006 521 l 1006 521 l 966 309 l 966 309 l 779 309 l 779 309 l 779 -168 l 779 -168 q 1213 60 1042 -130 q 1389 521 1383 250 l 1389 521 l 1389 521 "},"":{"ha":1345,"x_min":0,"x_max":1345,"o":"m 450 138 l 450 138 q 434 146 448 146 q 420 138 423 146 q 437 127 420 127 q 450 138 448 127 m 366 149 l 366 149 q 382 155 369 157 q 393 141 396 152 q 377 136 391 133 q 366 149 363 141 m 486 155 l 486 155 q 502 146 499 155 q 488 133 502 138 q 472 141 475 133 q 486 155 472 152 m 665 1194 l 665 1194 q 1009 1107 854 1191 q 1253 871 1161 1020 q 1345 532 1343 722 q 1221 127 1343 301 q 890 -117 1096 -46 q 844 -84 841 -119 q 844 -35 844 -71 q 844 144 844 43 q 798 269 841 239 q 947 296 876 274 q 1063 377 1017 317 q 1109 570 1107 439 q 1090 659 1109 624 q 1039 727 1072 694 q 1053 792 1047 743 q 1034 911 1058 841 q 958 901 1001 920 q 882 863 914 884 q 846 838 846 841 q 675 863 762 863 q 505 838 586 863 q 505 838 505 838 q 431 882 499 846 q 317 911 366 920 q 298 792 293 841 q 309 727 304 743 q 263 659 277 694 q 247 570 247 624 q 342 328 252 380 q 551 269 431 274 q 507 176 518 241 q 415 160 475 160 q 309 233 358 160 q 244 293 279 282 q 206 304 209 307 q 179 285 160 301 q 201 263 195 266 q 255 206 233 241 q 277 163 277 168 q 353 87 298 103 q 456 76 407 73 q 507 81 502 81 q 507 -43 507 19 q 507 -84 507 -73 q 461 -117 510 -119 q 127 127 252 -46 q 0 532 3 301 q 190 1004 5 819 l 190 1004 l 190 1004 q 665 1194 374 1188 m 263 258 l 263 258 q 277 255 271 263 q 279 241 285 247 q 266 244 274 236 q 263 258 258 252 m 233 279 l 233 279 q 247 282 239 285 q 252 271 255 277 q 241 269 250 266 q 233 279 233 274 m 323 184 l 323 184 q 339 182 328 190 q 345 163 347 171 q 326 165 336 157 q 323 184 317 176 m 290 222 l 290 222 q 307 217 298 228 q 307 201 312 206 q 290 206 298 198 q 290 222 285 217 "},"":{"ha":1345,"x_min":0,"x_max":1345,"o":"m 1345 521 l 1345 521 q 1253 860 1343 708 q 1012 1101 1164 1012 q 673 1194 860 1191 q 334 1101 486 1191 q 92 860 182 1012 q 0 521 3 708 q 119 138 3 304 q 429 -106 236 -30 q 420 -11 423 -65 q 431 87 420 43 q 456 198 437 119 q 491 347 475 277 q 510 420 507 418 q 510 420 510 420 q 499 450 507 423 q 488 521 491 475 q 524 637 491 594 q 610 684 559 684 q 694 589 697 675 q 665 453 692 532 q 640 366 651 410 q 659 279 629 315 q 741 244 689 247 q 890 331 830 247 q 952 553 949 415 q 873 749 949 675 q 670 827 795 825 q 448 735 526 822 q 366 534 366 651 q 380 448 366 491 q 415 380 396 407 q 420 361 423 372 q 412 326 418 347 q 401 285 404 296 q 380 277 399 269 q 279 385 315 309 q 244 537 244 458 q 355 819 244 703 q 686 944 469 939 q 982 833 865 941 q 1101 556 1099 727 q 1004 260 1099 377 q 754 138 909 141 q 659 160 700 138 q 600 214 616 182 q 600 214 600 214 q 581 144 597 203 q 556 54 564 84 q 521 -38 545 8 q 475 -122 496 -87 q 673 -152 570 -152 q 1012 -60 860 -149 l 1012 -60 l 1012 -60 q 1253 182 1164 30 l 1253 182 l 1253 182 q 1345 521 1343 334 "},"":{"ha":1215,"x_min":0,"x_max":1215,"o":"m 1042 1128 l 1042 1128 q 1164 1077 1115 1126 q 1215 955 1213 1028 l 1215 955 l 1215 87 q 1164 -35 1213 14 q 1042 -87 1115 -84 l 1042 -87 l 418 -87 q 461 -8 439 -52 q 494 73 483 33 q 518 165 502 103 q 534 233 532 225 q 594 179 553 201 q 686 155 635 157 q 936 277 841 160 q 1034 570 1031 393 q 914 846 1028 738 q 621 955 800 952 q 296 833 407 949 q 182 551 182 716 q 220 401 182 475 q 317 293 255 326 q 339 304 336 285 q 345 326 342 309 q 358 377 353 355 q 353 396 361 388 q 317 464 334 423 q 304 548 304 505 q 382 749 304 665 q 605 838 461 833 q 806 762 730 836 q 884 567 882 689 q 822 347 882 431 q 673 263 765 266 q 594 298 624 263 q 575 382 564 331 q 600 469 586 426 q 629 605 627 548 q 578 694 627 675 q 477 673 526 711 q 426 537 429 632 q 434 467 426 491 q 445 437 445 439 q 407 279 423 345 q 407 279 407 279 q 369 122 382 179 q 358 22 358 65 q 363 -84 358 -22 l 363 -84 l 372 -87 l 372 -87 l 174 -87 q 52 -35 100 -84 q 0 87 3 14 l 0 87 l 0 955 q 52 1077 3 1028 q 174 1128 100 1126 l 1042 1128 l 174 1128 l 1042 1128 "},"":{"ha":1215,"x_min":0,"x_max":1215,"o":"m 1215 955 l 1215 955 l 1215 87 q 1164 -35 1213 14 q 1042 -87 1115 -84 l 1042 -87 l 174 -87 q 52 -35 100 -84 q 0 87 3 14 l 0 87 l 0 955 q 52 1077 3 1028 q 174 1128 100 1126 l 174 1128 l 1042 1128 q 1164 1077 1115 1126 l 1164 1077 l 1164 1077 q 1215 955 1213 1028 m 174 521 l 174 521 q 252 328 176 404 q 445 250 328 252 q 635 323 564 252 q 705 515 703 396 q 700 559 705 540 l 700 559 l 445 559 l 445 559 l 445 467 l 445 467 l 600 467 q 559 393 594 434 q 445 350 524 353 q 326 399 374 350 q 277 521 279 448 q 326 643 279 594 q 445 692 374 689 q 553 651 524 686 l 553 651 l 627 722 q 445 792 556 789 q 252 713 328 789 l 252 713 l 252 713 q 174 521 176 637 m 963 472 l 963 472 l 1042 472 l 1042 472 l 1042 551 l 1042 551 l 963 551 l 963 551 l 963 629 l 963 629 l 884 629 l 884 629 l 884 551 l 884 551 l 806 551 l 806 551 l 806 472 l 806 472 l 884 472 l 884 472 l 884 393 l 884 393 l 963 393 l 963 472 l 963 393 l 963 472 "},"":{"ha":1736,"x_min":35,"x_max":1701,"o":"m 1047 597 l 1047 597 l 556 597 l 556 597 l 556 415 l 556 415 l 852 415 q 776 277 844 353 q 556 193 708 198 q 328 288 418 195 q 233 521 236 380 q 328 754 236 662 q 556 849 418 846 q 684 825 632 849 q 762 770 735 798 l 762 770 l 903 906 q 556 1042 768 1036 q 187 890 334 1036 q 35 521 41 743 q 187 152 41 298 q 556 0 334 5 q 920 144 784 3 q 1055 510 1053 282 q 1047 597 1055 559 m 1549 578 l 1549 578 l 1701 578 l 1701 578 l 1701 426 l 1701 426 l 1549 426 l 1549 426 l 1549 274 l 1549 274 l 1397 274 l 1397 274 l 1397 426 l 1397 426 l 1248 426 l 1248 426 l 1248 578 l 1248 578 l 1397 578 l 1397 578 l 1397 730 l 1397 730 l 1549 730 l 1549 578 l 1549 730 l 1549 578 "},"":{"ha":1215,"x_min":0,"x_max":1221,"o":"m 271 0 l 271 811 l 19 811 l 19 811 l 19 0 l 271 0 l 19 0 l 271 0 m 146 922 l 146 922 q 250 966 209 925 q 293 1069 290 1006 q 220 1196 290 1153 q 73 1196 146 1234 q 0 1069 3 1153 q 43 966 3 1006 l 43 966 l 43 966 q 146 922 84 925 m 1215 0 l 1215 0 l 1215 445 q 1161 722 1221 613 q 914 833 1099 827 q 760 789 822 830 q 675 700 700 751 l 675 700 l 673 700 l 673 700 l 673 811 l 673 811 l 429 811 l 429 811 l 429 0 l 429 0 l 681 0 l 681 0 l 681 401 q 708 545 678 483 q 833 610 738 608 q 947 537 925 605 q 963 396 968 469 l 963 396 l 963 0 l 1215 0 l 963 0 l 1215 0 "},"":{"ha":1302,"x_min":-3,"x_max":1308,"o":"m 505 323 l 505 323 q 480 420 505 369 q 404 472 458 469 q 328 420 353 469 q 307 323 307 369 q 328 228 307 277 q 404 174 353 179 q 480 228 458 179 l 480 228 l 480 228 q 505 323 505 277 m 1302 461 l 1302 461 q 1196 770 1305 635 q 1218 901 1218 833 q 1207 974 1218 944 q 1177 1042 1196 1004 q 1020 1020 1088 1042 q 884 947 952 1001 q 667 971 779 971 q 426 944 545 971 q 290 1020 358 998 q 130 1042 222 1042 q 100 974 111 1004 q 92 901 92 944 q 111 768 92 833 q 0 461 0 635 q 54 203 -3 326 q 209 60 109 103 q 426 8 309 16 q 646 0 543 -3 q 667 0 656 0 q 681 0 673 0 q 895 8 784 -3 q 1107 60 1009 16 q 1256 203 1202 103 q 1302 461 1308 326 m 1128 323 l 1128 323 q 1063 146 1126 206 q 909 68 1004 87 q 719 49 817 46 l 719 49 l 589 49 q 399 68 491 46 q 244 146 307 87 q 182 323 182 206 q 233 480 182 415 q 380 548 285 545 q 502 534 442 545 q 532 532 515 534 q 654 524 591 524 q 776 532 716 524 q 808 537 792 534 q 928 548 868 545 q 1077 480 1025 545 l 1077 480 l 1077 480 q 1128 323 1126 415 m 903 472 l 903 472 q 979 420 955 469 q 1004 323 1004 369 q 979 228 1004 277 q 903 174 955 179 q 827 228 852 179 q 803 323 803 277 q 827 420 803 369 l 827 420 l 827 420 q 903 472 852 469 "},"":{"ha":1389,"x_min":0,"x_max":1413,"o":"m 1251 14 l 1251 14 l 1381 618 q 1316 906 1413 781 q 1050 1028 1215 1025 l 1050 1028 l 41 1028 l 41 1028 l 163 768 l 163 768 l 0 14 l 0 14 l 263 14 l 263 14 l 426 768 l 426 768 l 651 768 l 651 768 l 491 14 l 491 14 l 754 14 l 754 14 l 917 768 l 917 768 l 1050 768 q 1115 743 1093 768 q 1128 673 1137 716 l 1128 673 l 987 14 l 1251 14 l 987 14 l 1251 14 "},"":{"ha":1042,"x_min":0,"x_max":1042,"o":"m 0 1128 l 0 1128 l 1042 1128 l 1042 1128 l 947 54 l 947 54 l 521 -87 l 521 -87 l 95 54 l 0 1128 l 95 54 l 0 1128 m 836 781 l 836 781 l 849 911 l 849 911 l 195 911 l 195 911 l 228 515 l 228 515 l 681 515 l 681 515 l 665 347 l 665 347 l 521 307 l 521 307 l 374 347 l 374 347 l 366 450 l 366 450 l 236 450 l 236 450 l 252 244 l 252 244 l 521 171 l 521 171 l 524 171 l 524 171 l 524 171 l 524 171 l 789 244 l 789 244 l 825 648 l 825 648 l 350 648 l 350 648 l 336 781 l 836 781 l 336 781 l 836 781 "},"":{"ha":1389,"x_min":0,"x_max":1302,"o":"m 1302 1128 l 1302 1128 l 198 1128 l 198 1128 l 152 906 l 152 906 l 1058 906 l 1058 906 l 1028 762 l 1028 762 l 125 762 l 125 762 l 81 540 l 81 540 l 985 540 l 985 540 l 933 277 l 933 277 l 570 157 l 570 157 l 255 277 l 255 277 l 277 388 l 277 388 l 54 388 l 54 388 l 0 130 l 0 130 l 524 -87 l 524 -87 l 1128 130 l 1302 1128 l 1128 130 l 1302 1128 "},"":{"ha":1042,"x_min":11,"x_max":1039,"o":"m 841 556 l 841 556 q 987 472 936 537 q 1031 285 1039 410 q 911 76 1012 133 q 643 11 808 16 l 643 11 l 643 -174 l 643 -174 l 510 -174 l 510 -174 l 510 8 q 510 8 510 8 q 407 8 461 8 l 407 8 l 407 -174 l 407 -174 l 274 -174 l 274 -174 l 274 11 q 233 11 279 11 q 11 11 184 11 l 11 11 l 38 168 q 65 168 52 168 q 149 171 122 165 q 182 212 176 179 l 182 212 l 182 800 q 136 854 174 846 q 33 860 100 863 q 11 860 22 860 l 11 860 l 11 1001 q 92 998 57 1001 q 206 998 165 998 q 274 1001 247 998 l 274 1001 l 274 1215 l 274 1215 l 407 1215 l 407 1215 l 407 1004 q 510 1006 458 1006 l 510 1006 l 510 1215 l 510 1215 l 643 1215 l 643 1215 l 643 1001 q 854 941 770 990 q 952 779 941 892 q 841 556 963 610 m 410 849 l 410 849 l 410 589 q 431 589 418 589 q 545 591 477 586 q 662 624 610 597 q 716 719 713 651 q 662 817 713 787 l 662 817 l 662 817 q 548 849 613 844 l 548 849 l 548 849 q 434 852 483 854 l 434 852 l 434 852 q 410 849 420 849 m 410 168 l 410 168 q 434 168 420 168 q 570 171 491 165 q 705 206 646 176 q 770 312 768 239 q 708 418 768 385 q 572 453 651 448 q 439 456 496 458 q 410 456 423 456 l 410 168 l 410 456 l 410 168 "},"":{"ha":1563,"x_min":41,"x_max":1522,"o":"m 1492 879 l 1492 879 q 1514 735 1506 817 q 1522 586 1519 651 q 1522 521 1522 524 q 1522 453 1522 515 q 1514 307 1519 388 q 1492 160 1506 222 q 1359 30 1459 60 q 1158 8 1294 16 q 906 0 1023 3 q 781 0 789 0 q 781 0 781 0 q 656 0 773 0 q 404 8 540 3 q 203 30 269 16 q 71 160 103 60 q 49 307 57 222 q 41 453 43 388 q 41 521 41 515 q 41 586 41 524 q 49 735 43 651 q 71 879 57 817 q 203 1012 103 979 q 404 1034 269 1025 q 656 1042 540 1039 q 781 1042 773 1042 q 906 1042 789 1042 q 1158 1034 1023 1039 q 1359 1012 1294 1025 q 1492 879 1459 979 m 629 298 l 629 298 l 1017 521 l 1017 521 l 629 741 l 629 298 l 629 741 l 629 298 "},"":{"ha":1563,"x_min":41,"x_max":1522,"o":"m 1492 879 q 1359 1012 1459 979 q 1158 1034 1294 1025 q 906 1042 1023 1039 q 781 1042 789 1042 q 656 1042 773 1042 q 404 1034 540 1039 q 203 1012 269 1025 q 71 879 103 979 q 49 735 57 817 q 41 586 43 651 q 41 521 41 524 q 41 453 41 515 q 49 307 43 388 q 71 160 57 222 q 203 30 103 60 q 404 8 269 16 q 656 0 540 3 q 781 0 773 0 q 781 0 781 0 q 906 0 789 0 q 1158 8 1023 3 q 1359 30 1294 16 q 1492 160 1459 60 q 1514 307 1506 222 q 1522 453 1519 388 q 1522 521 1522 515 q 1522 586 1522 524 q 1514 735 1519 651 q 1492 879 1506 817 l 1492 879 m 629 298 l 629 741 l 629 298 l 629 741 l 1017 521 l 1017 521 l 629 298 l 629 298 "},"":{"ha":1042,"x_min":-8,"x_max":1050,"o":"m 442 646 l 442 646 l 320 854 q 271 890 301 890 l 271 890 l 95 890 q 71 852 57 884 l 71 852 l 190 646 q 190 646 193 646 l 190 646 l 3 315 q 27 277 -8 282 l 27 277 l 203 277 q 252 309 231 277 q 372 521 326 442 l 372 521 l 372 521 q 442 646 437 637 m 1039 1090 l 1039 1090 q 1015 1128 1050 1123 l 1015 1128 l 836 1128 q 789 1096 808 1128 q 448 491 537 651 q 396 404 401 412 l 396 404 l 648 -54 q 697 -87 665 -87 l 697 -87 l 873 -87 q 895 -49 909 -81 l 895 -49 l 648 404 l 648 404 l 648 404 l 1039 1090 l 648 404 l 1039 1090 "},"":{"ha":1215,"x_min":0,"x_max":1215,"o":"m 1215 955 l 1215 955 l 1215 87 q 1164 -35 1213 14 q 1042 -87 1115 -84 l 1042 -87 l 174 -87 q 52 -35 100 -84 q 0 87 3 14 l 0 87 l 0 955 q 52 1077 3 1028 q 174 1128 100 1126 l 174 1128 l 1042 1128 q 1164 1077 1115 1126 l 1164 1077 l 1164 1077 q 1215 955 1213 1028 m 255 347 l 255 347 l 380 347 q 415 372 401 347 q 551 610 545 602 l 551 610 l 464 760 q 429 784 450 784 l 429 784 l 304 784 q 288 757 277 781 l 288 757 l 372 610 q 372 610 372 610 l 372 610 l 239 374 q 255 347 231 350 m 697 437 l 697 437 l 977 928 q 960 955 985 952 l 960 955 l 833 955 q 800 930 814 955 q 749 841 773 884 q 692 738 719 787 q 518 437 526 450 l 518 437 l 697 111 q 732 87 711 87 l 732 87 l 860 87 q 876 114 884 90 l 876 114 l 697 437 l 697 437 l 697 437 l 697 437 "},"":{"ha":1432,"x_min":0,"x_max":1432,"o":"m 716 901 l 716 901 l 358 1128 l 358 1128 l 0 901 l 0 901 l 358 673 l 358 673 l 0 445 l 0 445 l 358 214 l 358 214 l 716 442 l 716 442 l 358 670 l 716 901 l 358 670 l 716 901 m 358 141 l 358 141 l 716 -87 l 716 -87 l 1074 141 l 1074 141 l 716 372 l 358 141 l 716 372 l 358 141 m 716 445 l 716 445 l 1074 214 l 1074 214 l 1432 442 l 1432 442 l 1074 670 l 1074 670 l 1432 901 l 1432 901 l 1074 1128 l 1074 1128 l 716 901 l 716 901 l 1074 673 l 716 445 l 1074 673 l 716 445 "},"":{"ha":1042,"x_min":8,"x_max":1034,"o":"m 789 372 l 768 266 l 236 377 l 236 377 l 258 483 l 789 372 l 258 483 l 789 372 m 928 608 l 857 524 l 442 871 l 442 871 l 510 955 l 928 608 l 510 955 l 928 608 m 844 499 l 798 401 l 307 629 l 307 629 l 350 730 l 844 499 l 350 730 l 844 499 m 711 1128 l 1034 694 l 947 629 l 947 629 l 624 1063 l 711 1128 l 624 1063 l 711 1128 m 768 239 l 768 130 l 225 130 l 225 130 l 225 239 l 768 239 l 225 239 l 768 239 m 873 22 l 873 347 l 982 347 l 982 347 l 982 -87 l 982 -87 l 8 -87 l 8 -87 l 8 347 l 8 347 l 117 347 l 117 347 l 117 22 l 873 22 l 117 22 l 873 22 "},"":{"ha":1215,"x_min":0,"x_max":1215,"o":"m 608 833 l 608 833 q 827 741 741 830 q 920 521 917 654 q 827 301 917 388 q 608 209 741 212 q 388 301 475 212 q 296 521 298 388 q 388 741 298 654 l 388 741 l 388 741 q 608 833 475 830 m 608 317 l 608 317 q 751 377 694 320 q 811 521 808 434 q 751 665 808 608 q 608 724 694 722 q 464 665 521 722 q 404 521 407 608 q 464 377 407 434 l 464 377 l 464 377 q 608 317 521 320 m 1006 846 l 1006 846 q 985 898 1004 876 q 933 917 963 917 q 882 898 901 917 q 860 846 860 876 q 933 773 865 779 q 1006 846 998 779 m 1213 770 l 1213 773 q 1215 618 1215 719 q 1215 423 1215 521 q 1213 271 1215 326 q 1112 16 1213 122 q 860 -81 1006 -84 q 705 -87 806 -84 q 510 -87 608 -87 q 358 -81 410 -84 q 103 16 209 -84 q 5 271 3 122 q 0 423 0 326 q 0 618 0 521 q 5 773 0 719 q 103 1025 3 920 q 358 1126 212 1126 q 510 1128 410 1128 q 705 1128 608 1128 q 860 1126 806 1128 q 1112 1025 1006 1126 q 1213 770 1213 920 m 1082 163 l 1082 163 q 1104 309 1101 217 q 1107 477 1109 401 q 1107 521 1107 502 q 1107 564 1107 540 q 1104 732 1109 640 q 1082 879 1101 825 q 966 996 1047 960 q 819 1017 911 1015 q 651 1020 727 1020 q 608 1020 627 1020 q 564 1020 589 1020 q 396 1017 488 1023 q 250 996 307 1015 q 133 879 168 960 q 111 732 114 825 q 109 564 109 640 q 109 521 109 540 q 109 477 109 502 q 111 309 109 401 q 133 163 114 220 q 250 46 168 81 q 396 24 307 27 q 564 22 488 22 q 608 22 589 22 q 651 22 627 22 q 819 24 727 22 q 966 46 911 27 q 1082 163 1047 81 "},"":{"ha":1215,"x_min":0,"x_max":1215,"o":"m 1085 1128 l 1085 1128 q 1177 1090 1139 1126 q 1215 998 1213 1053 l 1215 998 l 1215 43 q 1177 -49 1213 -11 q 1085 -87 1139 -84 l 1085 -87 l 130 -87 q 38 -49 76 -84 q 0 43 3 -11 l 0 43 l 0 998 q 38 1090 3 1053 q 130 1128 76 1126 l 1085 1128 l 130 1128 l 1085 1128 m 393 350 l 393 350 q 513 401 467 353 q 564 521 562 448 q 513 643 562 597 q 393 694 467 692 q 271 643 317 692 q 220 521 222 597 q 271 401 222 448 l 271 401 l 271 401 q 393 350 317 353 m 825 350 l 825 350 q 944 401 898 353 q 996 521 993 448 q 944 643 993 597 q 825 694 898 692 q 703 643 749 692 q 651 521 654 597 q 703 401 654 448 l 703 401 l 703 401 q 825 350 749 353 "},"":{"ha":1345,"x_min":0,"x_max":1345,"o":"m 673 760 l 673 762 l 496 494 l 496 494 l 849 494 l 673 760 l 849 494 l 673 760 m 1345 521 l 1345 521 q 1253 860 1343 708 q 1012 1101 1164 1012 q 673 1194 860 1191 q 334 1101 486 1191 q 92 860 182 1012 q 0 521 3 708 q 92 182 3 334 q 334 -60 182 30 q 673 -152 486 -149 q 1012 -60 860 -149 l 1012 -60 l 1012 -60 q 1253 182 1164 30 l 1253 182 l 1253 182 q 1345 521 1343 334 m 1074 296 l 1074 296 l 993 296 l 993 296 l 901 437 l 901 437 l 445 437 l 445 437 l 353 296 l 353 296 l 271 296 l 271 296 l 673 901 l 1074 296 l 673 901 l 1074 296 "},"":{"ha":1389,"x_min":16,"x_max":1373,"o":"m 60 1128 l 60 1128 l 1326 1128 q 1335 1128 1329 1128 q 1370 1077 1373 1118 l 1370 1077 l 1185 -54 q 1142 -90 1177 -87 l 1142 -90 l 258 -90 q 201 -41 212 -87 l 201 -41 l 16 1077 q 16 1085 16 1082 q 30 1115 16 1104 q 60 1128 43 1128 m 836 320 l 836 320 l 903 719 l 903 719 l 477 719 l 477 719 l 553 320 l 836 320 l 553 320 l 836 320 "},"":{"ha":1389,"x_min":16,"x_max":1373,"o":"m 60 1128 q 30 1115 43 1128 q 16 1085 16 1104 q 16 1077 16 1082 l 201 -41 l 201 -41 q 258 -90 212 -87 l 1142 -90 l 1142 -90 q 1185 -54 1177 -87 l 1370 1077 l 1370 1077 q 1335 1128 1373 1118 q 1326 1128 1329 1128 l 60 1128 l 60 1128 m 836 320 l 553 320 l 836 320 l 553 320 l 477 719 l 477 719 l 903 719 l 903 719 l 836 320 l 836 320 "},"":{"ha":868,"x_min":22,"x_max":852,"o":"m 841 -87 l 841 -87 q 841 -49 852 -71 l 841 -49 l 781 127 q 762 146 776 144 q 727 141 746 149 q 589 138 637 109 q 543 239 543 168 l 543 239 l 543 600 l 543 600 l 770 600 q 798 627 795 602 l 798 627 l 798 849 q 770 876 795 873 l 770 876 l 545 876 l 545 876 l 545 1188 q 518 1215 543 1213 l 518 1215 l 326 1215 q 282 1172 285 1215 q 228 993 277 1082 q 52 854 176 901 q 22 811 22 841 l 22 811 l 22 627 q 49 600 24 600 l 49 600 l 176 600 l 176 600 l 176 209 q 209 46 176 136 q 328 -106 241 -41 q 575 -174 415 -171 q 743 -146 673 -171 l 743 -146 l 743 -146 q 841 -87 811 -119 "},"":{"ha":1215,"x_min":0,"x_max":1215,"o":"m 1215 955 l 1215 955 l 1215 87 q 1164 -35 1213 14 q 1042 -87 1115 -84 l 1042 -87 l 174 -87 q 52 -35 100 -84 q 0 87 3 14 l 0 87 l 0 955 q 52 1077 3 1028 q 174 1128 100 1126 l 174 1128 l 1042 1128 q 1164 1077 1115 1126 l 1164 1077 l 1164 1077 q 1215 955 1213 1028 m 697 87 l 697 87 q 800 103 757 87 q 863 141 844 122 q 863 165 868 152 l 863 165 l 825 274 q 814 288 822 285 q 792 285 803 290 q 705 282 735 263 q 675 345 675 301 l 675 345 l 675 570 l 675 570 l 817 570 q 833 586 833 572 l 833 586 l 833 727 q 817 743 833 741 l 817 743 l 675 743 l 675 743 l 675 939 q 659 955 675 952 l 659 955 l 540 955 q 513 928 515 955 q 477 817 510 873 q 369 730 448 760 q 350 703 350 722 l 350 703 l 350 586 q 366 570 353 570 l 366 570 l 448 570 l 448 570 l 448 326 q 496 174 445 252 l 496 174 l 496 174 q 697 87 548 92 "},"":{"ha":1042,"x_min":11,"x_max":1031,"o":"m 865 486 l 865 486 q 865 486 865 486 q 884 388 860 469 q 1031 236 909 304 q 974 109 1015 184 q 876 -24 933 35 q 754 -87 819 -81 q 656 -62 700 -84 q 545 -38 610 -41 q 429 -65 477 -41 q 342 -87 385 -84 q 214 -22 274 -84 q 111 119 155 41 q 49 252 68 201 q 11 472 11 366 q 111 743 16 654 q 323 836 203 833 q 456 803 391 830 q 532 781 502 784 q 597 800 553 784 q 678 827 632 814 q 770 838 724 841 q 1001 716 922 825 q 865 486 863 635 m 711 930 l 711 930 q 524 838 629 836 q 591 1034 518 952 q 675 1099 627 1072 q 776 1128 727 1126 q 776 1128 776 1128 l 776 1128 l 776 1128 q 773 1053 781 1104 l 773 1053 l 773 1053 q 711 930 762 998 "},"":{"ha":1215,"x_min":0,"x_max":1215,"o":"m 0 960 l 0 960 l 0 548 l 0 548 l 499 548 l 499 548 l 499 1031 l 0 960 l 499 1031 l 0 960 m 0 81 l 0 81 l 0 488 l 0 488 l 499 488 l 499 488 l 499 11 l 0 81 l 499 11 l 0 81 m 553 5 l 553 5 l 553 488 l 553 488 l 1215 488 l 1215 488 l 1215 -87 l 553 5 l 1215 -87 l 553 5 m 553 1036 l 553 1036 l 1215 1128 l 1215 1128 l 1215 548 l 1215 548 l 553 548 l 553 1036 l 553 548 l 553 1036 "},"":{"ha":1563,"x_min":0,"x_max":1563,"o":"m 1142 396 l 1142 396 q 1207 461 1199 401 q 1142 526 1199 521 q 1077 461 1082 521 q 1142 396 1082 401 m 420 396 l 420 396 q 486 461 480 401 q 420 526 480 521 q 355 461 363 521 q 420 396 363 401 m 1164 789 l 1164 789 q 1438 534 1335 694 q 1563 174 1544 377 l 1563 174 l 0 174 q 125 534 19 377 q 399 789 228 694 l 399 789 l 269 1015 l 269 1015 l 269 1015 q 266 1042 260 1028 q 290 1055 274 1055 q 315 1042 307 1055 l 315 1042 l 448 811 q 781 884 608 884 q 1115 811 955 884 l 1115 811 l 1248 1042 l 1248 1042 l 1248 1042 q 1272 1055 1256 1055 q 1297 1042 1289 1055 q 1294 1015 1302 1028 l 1164 789 l 1294 1015 l 1164 789 "},"":{"ha":1215,"x_min":24,"x_max":1183,"o":"m 600 882 l 600 882 q 594 882 597 882 q 589 884 591 882 q 591 887 589 887 q 608 887 600 892 q 608 887 608 887 q 616 879 613 884 q 608 876 613 876 q 602 879 605 876 l 602 879 l 602 879 q 600 882 600 879 m 540 876 l 540 876 q 532 879 534 876 q 540 887 532 884 q 540 887 540 887 q 556 887 548 892 q 556 884 559 887 q 551 882 556 882 q 548 882 551 882 q 545 879 545 879 l 545 879 l 545 879 q 540 876 543 876 m 1139 119 l 1139 119 q 1180 41 1183 71 q 1145 -11 1177 8 q 1104 -33 1126 -22 q 1006 -98 1047 -54 q 873 -174 944 -168 q 765 -111 803 -179 l 765 -111 l 765 -111 q 760 -92 760 -103 q 673 -87 711 -92 q 608 -81 637 -81 q 529 -92 562 -84 q 477 -100 502 -98 q 407 -155 456 -144 q 255 -125 339 -168 q 144 -98 203 -103 q 95 -92 117 -95 q 41 -60 57 -87 q 46 27 24 -30 q 46 79 52 49 q 43 84 46 81 q 41 117 41 100 q 49 149 41 133 q 100 190 71 182 q 106 193 103 190 q 146 212 130 198 q 163 233 155 220 q 190 266 176 252 q 206 410 182 336 q 279 559 233 488 q 363 673 326 627 q 426 849 423 760 q 423 901 426 868 q 423 1034 418 960 q 475 1158 429 1104 q 637 1215 521 1213 q 784 1156 741 1213 q 838 1020 827 1099 q 844 873 846 941 q 844 860 844 865 q 868 754 844 800 q 930 667 895 708 q 933 665 933 665 q 1001 575 966 627 q 1058 461 1036 524 q 1069 247 1101 361 q 1080 241 1074 244 q 1090 233 1085 239 q 1120 174 1115 209 q 1120 171 1120 174 l 1120 171 l 1120 171 q 1139 119 1126 138 m 608 979 l 608 979 q 600 920 594 949 q 635 906 616 917 q 640 952 629 933 q 667 968 651 971 q 692 944 684 968 q 692 895 700 922 q 684 887 689 890 q 681 884 681 884 q 713 871 708 873 q 727 979 749 914 q 667 1023 703 1023 l 667 1023 l 667 1023 q 608 979 629 1023 m 496 1009 l 496 1009 q 450 955 458 1004 q 475 868 442 903 q 491 882 496 884 q 491 884 491 882 q 475 928 475 901 q 494 960 477 955 q 515 941 507 960 q 521 906 524 925 q 548 920 534 914 q 534 985 551 958 l 534 985 l 534 985 q 496 1009 518 1009 m 458 844 l 458 846 q 448 811 442 833 q 488 770 453 789 q 513 751 502 762 q 543 730 526 738 q 570 724 553 724 q 643 749 616 724 q 673 765 656 760 q 732 814 722 781 q 705 863 743 849 q 673 873 686 871 q 643 887 656 879 q 572 911 602 914 q 502 876 521 903 q 499 873 499 876 q 475 857 494 871 l 475 857 l 475 857 q 458 844 467 852 m 469 -62 l 469 -62 q 450 -3 469 -35 q 404 60 431 27 q 358 125 374 95 l 358 125 l 304 222 q 244 266 277 260 q 198 247 214 271 q 179 225 187 236 q 157 198 168 212 q 117 176 138 182 q 106 171 111 174 q 65 141 79 165 q 62 87 54 119 q 62 79 62 84 q 62 22 71 49 l 62 22 l 62 22 q 57 -52 46 -33 q 144 -81 76 -79 q 263 -111 203 -81 q 396 -138 331 -144 l 396 -138 l 396 -138 q 469 -62 458 -130 m 464 8 l 464 8 q 627 -30 543 -41 q 776 30 708 -19 q 776 33 776 30 q 792 109 789 76 q 806 214 795 171 q 863 290 817 269 q 898 336 868 331 q 968 323 925 342 q 1028 252 1042 290 q 1031 252 1031 252 q 1042 252 1034 252 q 1020 309 1050 288 q 958 347 993 334 q 955 445 968 396 q 914 537 941 496 q 860 605 887 581 q 868 586 849 605 q 925 496 895 562 q 930 355 955 431 q 901 361 914 361 q 871 467 890 420 q 838 534 852 513 q 784 656 811 581 q 735 795 754 730 q 675 754 716 768 q 648 741 665 749 q 632 730 640 735 q 518 732 572 694 q 505 743 510 738 q 483 760 494 754 q 467 773 475 768 q 434 637 461 708 q 380 510 407 567 q 361 467 369 486 q 323 298 326 385 q 296 423 282 361 q 331 524 309 488 q 353 581 366 591 q 312 507 334 551 q 279 418 290 467 q 279 323 269 369 q 347 241 293 277 q 347 241 347 241 q 385 217 350 241 q 450 155 420 193 q 472 87 480 114 q 426 62 458 60 q 464 8 448 38 m 1164 41 l 1164 41 q 1126 106 1166 60 q 1104 165 1107 133 q 1080 220 1099 201 q 1023 233 1055 239 q 1017 233 1020 233 q 971 201 1001 214 q 914 190 941 184 q 863 269 865 209 q 860 269 863 269 q 822 212 833 252 q 811 106 814 168 q 795 30 808 71 q 784 -5 789 14 q 781 -103 768 -57 q 873 -155 814 -160 q 993 -87 933 -149 q 1099 -14 1042 -35 l 1099 -14 l 1099 -14 q 1164 41 1156 8 m 469 811 l 469 811 q 467 830 458 827 q 475 822 472 827 q 477 817 475 819 q 477 817 477 817 q 499 798 486 808 q 567 770 524 773 q 646 798 613 776 q 675 819 659 806 q 684 825 681 822 q 692 833 689 830 q 700 838 694 838 q 692 822 711 836 q 651 792 675 806 q 651 792 651 792 q 567 765 613 768 q 491 792 518 768 q 472 811 480 803 l 472 811 l 472 811 q 469 811 469 811 "},"":{"ha":1389,"x_min":22,"x_max":1367,"o":"m 694 1194 l 694 1194 q 1034 1101 882 1191 q 1275 860 1185 1012 q 1367 521 1364 708 q 1275 182 1364 334 q 1034 -60 1185 30 q 694 -152 882 -149 q 355 -60 507 -149 q 114 182 203 30 q 22 521 24 334 q 114 860 24 708 l 114 860 l 114 860 q 355 1101 203 1012 l 355 1101 l 355 1101 q 694 1194 507 1191 m 1139 884 l 1139 884 q 1055 798 1131 865 q 819 656 977 727 q 868 543 846 597 q 1134 545 1017 559 q 1270 526 1251 532 q 1139 884 1264 732 m 1074 949 l 1074 949 q 833 1077 968 1044 q 559 1080 697 1112 q 637 968 575 1061 q 773 743 700 873 q 998 868 925 803 l 998 868 l 998 868 q 1074 949 1069 933 m 450 1039 l 450 1039 q 244 876 328 982 q 133 637 160 773 q 307 646 157 635 q 662 708 456 656 q 526 930 589 838 l 526 930 l 526 930 q 450 1039 464 1023 m 119 521 l 119 521 q 269 136 125 293 q 469 366 339 258 q 757 521 600 475 q 711 618 735 570 q 317 545 488 559 q 119 537 146 534 q 119 521 119 529 m 342 68 l 342 68 q 624 -52 472 -33 q 920 -8 779 -68 q 884 149 914 33 q 798 426 857 266 q 505 263 621 363 l 505 263 l 505 263 q 342 68 388 163 m 1015 43 l 1015 43 q 1177 209 1112 111 q 1261 429 1242 309 q 1142 453 1242 437 q 903 453 1042 472 q 985 184 960 296 l 985 184 l 985 184 q 1015 43 1012 73 "},"":{"ha":1215,"x_min":0,"x_max":1215,"o":"m 1153 401 l 1153 401 q 1215 217 1213 323 q 1126 3 1213 90 q 911 -87 1039 -84 q 727 -24 806 -84 q 608 -35 667 -35 q 214 127 372 -30 q 52 521 57 285 q 62 640 52 583 q 0 825 3 719 q 90 1039 3 955 q 304 1128 174 1126 q 488 1066 410 1126 q 608 1077 548 1077 q 1001 914 844 1072 q 1164 521 1158 757 q 1153 401 1164 458 m 624 155 l 624 155 q 833 212 741 155 q 928 388 922 269 q 846 537 922 491 q 681 600 770 583 q 637 608 659 605 q 529 640 564 624 q 494 689 494 654 q 608 749 499 751 q 689 732 659 749 q 738 697 716 716 q 811 659 765 662 q 873 684 852 659 q 895 746 892 711 q 800 854 890 814 q 594 895 711 895 q 393 846 486 895 q 298 675 304 795 q 380 515 301 559 q 572 450 456 472 q 618 439 594 445 q 627 437 621 437 q 703 412 675 426 q 732 363 730 396 q 616 290 727 296 q 521 315 556 293 q 461 363 486 339 q 377 412 429 407 q 317 388 336 412 q 298 331 298 363 q 393 206 301 255 l 393 206 l 393 206 q 624 155 488 155 "},"":{"ha":998,"x_min":0,"x_max":1034,"o":"m 876 1207 l 876 1207 q 990 1031 1034 1204 l 990 1031 l 860 372 q 857 369 860 369 q 830 301 852 336 q 738 263 806 266 l 738 263 l 513 263 q 510 263 513 263 q 494 255 502 266 q 494 255 494 255 q 477 236 496 258 q 385 127 461 217 q 138 -157 309 41 q 90 -182 117 -179 q 49 -176 62 -182 q 19 -155 35 -171 q 0 -95 3 -136 l 0 -95 l 0 1082 q 30 1164 0 1120 q 136 1207 60 1204 l 876 1207 l 136 1207 l 876 1207 m 833 1006 l 833 1006 q 795 1055 836 1050 l 795 1055 l 201 1055 q 157 1009 160 1047 l 157 1009 l 157 90 q 163 90 157 87 q 363 334 320 279 q 404 382 410 391 q 437 412 420 404 q 477 418 450 418 l 477 418 l 675 418 q 722 453 716 426 q 735 529 724 472 q 751 613 746 589 q 743 648 754 632 q 713 662 730 662 l 713 662 l 467 662 q 412 719 415 667 l 412 719 l 412 754 q 467 808 415 806 l 467 808 l 757 808 q 800 844 792 814 l 833 1006 l 800 844 l 833 1006 "},"":{"ha":1215,"x_min":0,"x_max":1215,"o":"m 1063 1128 l 1063 1128 q 1172 1082 1128 1126 q 1215 977 1213 1042 l 1215 977 l 1215 65 q 1172 -41 1213 0 q 1063 -87 1128 -84 l 1063 -87 l 152 -87 q 43 -43 87 -84 q 0 65 3 0 q 0 705 0 513 q 0 944 0 901 q 0 977 0 985 q 0 977 0 977 q 43 1085 3 1042 q 152 1128 87 1126 l 1063 1128 l 152 1128 l 1063 1128 m 534 209 l 534 209 l 534 898 q 513 949 534 928 q 461 971 494 971 l 461 971 l 236 971 q 184 949 206 971 q 163 898 165 928 l 163 898 l 163 209 q 184 157 165 176 q 236 136 206 136 l 236 136 l 461 136 q 534 209 529 141 m 1058 513 l 1058 513 l 1058 898 q 1036 949 1058 928 q 985 971 1017 968 l 985 971 l 765 971 q 713 949 735 968 q 692 898 694 928 l 692 898 l 692 513 q 713 461 694 480 q 765 439 735 439 l 765 439 l 985 439 q 1036 461 1017 439 l 1036 461 l 1036 461 q 1058 513 1058 480 "},"":{"ha":1345,"x_min":0,"x_max":1345,"o":"m 673 1194 l 673 1194 q 1012 1101 860 1191 q 1253 860 1164 1012 q 1345 521 1343 708 q 1253 182 1343 334 q 1012 -60 1164 30 q 673 -152 860 -149 q 334 -60 486 -149 q 92 182 182 30 q 0 521 3 334 q 92 860 3 708 l 92 860 l 92 860 q 334 1101 182 1012 l 334 1101 l 334 1101 q 673 1194 486 1191 m 985 581 l 985 581 q 1006 667 1006 608 q 947 776 1009 727 q 841 792 890 808 q 762 743 789 779 q 678 708 727 708 q 594 743 629 705 q 515 792 564 779 q 410 776 467 808 q 347 667 345 727 q 372 581 350 608 l 372 581 l 678 165 l 985 581 l 678 165 l 985 581 "},"":{"ha":1215,"x_min":-3,"x_max":1218,"o":"m 84 1044 l 84 1044 q 263 1118 146 1104 q 583 1128 380 1131 l 583 1128 l 632 1128 q 952 1118 836 1131 q 1131 1044 1069 1104 q 1204 865 1191 982 q 1215 545 1218 749 l 1215 545 l 1215 496 q 1204 176 1218 293 q 1131 -3 1191 60 q 952 -76 1069 -62 q 632 -87 836 -90 l 632 -87 l 583 -87 q 263 -76 380 -90 q 84 -3 146 -62 q 11 176 24 60 q 0 496 -3 293 l 0 496 l 0 545 q 11 865 -3 749 l 11 865 l 11 865 q 84 1044 24 982 m 206 760 l 206 760 q 326 388 212 521 q 646 252 437 255 l 646 252 l 662 252 l 662 252 l 662 434 q 795 374 738 423 q 871 252 852 326 l 871 252 l 1015 252 q 939 401 993 336 q 808 507 884 469 q 922 613 876 548 q 985 760 968 681 l 985 760 l 854 760 q 779 624 833 681 q 662 559 724 567 l 662 559 l 662 760 l 662 760 l 532 760 l 532 760 l 532 410 q 410 505 467 423 q 345 760 350 586 l 206 760 l 345 760 l 206 760 "},"":{"ha":1389,"x_min":0,"x_max":1411,"o":"m 1104 732 l 1104 732 q 1134 675 1096 689 q 1191 705 1172 665 q 1153 879 1218 808 q 985 936 1090 952 q 949 882 941 920 q 1004 846 958 844 q 1085 819 1053 854 l 1085 819 l 1085 819 q 1104 732 1118 784 m 583 3 l 583 3 q 1031 130 863 11 q 1210 385 1196 247 q 1042 586 1223 524 q 1020 624 1009 591 q 974 795 1069 762 q 711 762 879 830 q 708 762 711 762 q 686 757 700 757 q 678 779 673 757 q 651 949 713 909 q 467 944 589 990 q 206 762 345 898 q 0 374 5 559 q 87 176 3 258 l 87 176 l 87 176 q 304 49 171 92 l 304 49 l 304 49 q 583 3 437 3 m 974 401 l 974 401 q 871 195 979 285 q 583 87 760 106 q 282 136 407 71 q 141 317 155 203 q 244 524 133 434 q 529 632 353 613 q 833 581 708 648 l 833 581 l 833 581 q 974 401 958 515 m 944 1120 l 944 1120 q 1196 1082 1085 1147 q 1359 903 1310 1020 q 1370 648 1411 787 q 1305 613 1348 600 q 1270 681 1261 629 q 1261 863 1299 779 q 1145 990 1226 947 q 966 1017 1066 1034 q 903 1058 914 1012 l 903 1058 l 903 1058 q 944 1120 892 1101 m 730 277 l 730 277 q 730 423 765 358 q 605 515 692 491 q 442 502 521 537 q 326 393 363 467 q 320 250 290 317 q 434 152 350 179 q 608 160 524 125 l 608 160 l 608 160 q 730 277 692 195 m 496 358 l 496 358 q 524 266 553 326 q 475 228 505 239 q 418 231 445 220 q 393 323 361 263 q 439 358 412 350 l 439 358 l 439 358 q 496 358 469 369 m 586 393 l 586 393 q 597 358 608 382 q 556 345 581 336 q 545 380 534 355 q 586 393 562 399 "},"":{"ha":1389,"x_min":22,"x_max":1367,"o":"m 581 757 l 581 757 l 581 1180 q 182 955 336 1137 q 22 518 27 773 q 179 84 27 266 q 469 353 358 174 l 469 353 l 469 353 q 581 757 578 529 m 692 -152 l 692 -152 q 1015 -71 871 -149 q 811 111 895 5 q 692 350 724 220 q 575 111 659 220 q 372 -71 488 5 q 692 -152 515 -149 m 1210 84 l 1210 84 q 1367 518 1362 266 q 1207 955 1362 773 q 808 1180 1053 1137 l 808 1180 l 808 757 q 920 353 811 529 l 920 353 l 920 353 q 1210 84 1031 174 "},"":{"ha":1042,"x_min":0,"x_max":1042,"o":"m 1042 366 l 1042 366 q 814 439 920 458 q 643 369 708 420 q 575 312 578 320 q 629 524 610 412 q 727 518 637 518 q 909 575 817 515 q 1015 811 1001 635 q 808 808 890 849 q 686 716 727 770 q 646 656 643 662 q 646 708 646 678 q 646 746 646 741 q 675 836 651 751 q 670 1020 703 917 q 477 1185 640 1123 q 423 960 393 1061 q 513 800 453 860 q 581 738 575 741 q 578 684 581 732 q 572 594 575 632 q 537 675 572 602 q 410 806 499 751 q 157 803 317 860 q 274 589 179 643 q 464 532 372 534 q 564 534 556 532 q 505 320 545 418 q 423 420 480 369 q 266 486 363 472 q 22 442 168 502 q 163 244 81 296 q 323 193 241 190 q 458 220 401 195 q 274 3 385 81 q 33 -79 165 -76 q 0 -111 0 -84 q 33 -144 0 -141 q 320 -46 193 -141 q 534 220 450 52 q 591 193 537 217 l 591 193 l 591 193 q 732 155 648 165 l 732 155 l 732 155 q 901 187 817 144 l 901 187 l 901 187 q 1042 366 985 231 "},"":{"ha":1215,"x_min":49,"x_max":1166,"o":"m 49 315 l 49 315 l 49 255 q 100 125 49 176 q 225 71 149 71 l 225 71 l 703 71 l 703 71 l 703 -174 l 703 -174 l 939 71 l 939 71 l 990 71 q 1115 125 1066 71 q 1166 255 1166 176 l 1166 255 l 1166 315 l 49 315 l 1166 315 l 49 315 m 49 377 l 49 377 l 49 608 l 49 608 l 1166 608 l 1166 608 l 1166 377 l 49 377 l 1166 377 l 49 377 m 49 675 l 49 675 l 49 906 l 49 906 l 1166 906 l 1166 906 l 1166 675 l 49 675 l 1166 675 l 49 675 m 990 1215 l 990 1215 q 1115 1161 1066 1213 q 1166 1031 1166 1109 l 1166 1031 l 1166 971 l 1166 971 l 49 971 l 49 971 l 49 1031 q 100 1161 49 1109 q 225 1215 149 1213 l 990 1215 l 225 1215 l 990 1215 "},"":{"ha":1215,"x_min":0,"x_max":1215,"o":"m 1215 955 l 1215 955 l 1215 87 q 1164 -35 1213 14 q 1042 -87 1115 -84 l 1042 -87 l 174 -87 q 52 -35 100 -84 q 0 87 3 14 l 0 87 l 0 955 q 52 1077 3 1028 q 174 1128 100 1126 l 174 1128 l 1042 1128 q 1164 1077 1115 1126 l 1164 1077 l 1164 1077 q 1215 955 1213 1028 m 865 374 l 865 374 q 1042 722 1036 597 q 914 895 1050 892 q 670 692 735 903 q 754 705 713 711 q 792 632 798 697 q 735 502 789 589 q 627 431 662 380 q 553 746 591 486 q 429 884 529 895 q 342 841 393 882 q 231 746 290 800 q 231 743 231 746 q 225 741 228 743 q 174 694 201 719 l 174 694 l 214 643 q 282 684 271 684 q 345 608 317 681 q 407 393 372 532 q 407 391 407 391 q 437 285 420 342 q 564 146 488 146 q 865 374 686 146 "},"":{"ha":1215,"x_min":0,"x_max":1215,"o":"m 255 361 l 255 361 l 255 488 l 255 488 l 127 488 q 38 450 73 486 q 0 361 3 415 q 38 271 3 307 q 127 233 73 233 q 217 271 182 233 l 217 271 l 217 271 q 255 361 255 307 m 320 361 l 320 361 l 320 41 q 358 -49 320 -14 q 448 -87 393 -84 q 537 -49 502 -84 q 575 41 572 -14 l 575 41 l 575 361 q 537 450 572 415 q 448 488 502 486 q 358 450 393 486 l 358 450 l 358 450 q 320 361 320 415 m 448 873 l 448 873 l 575 873 l 575 873 l 575 1001 q 537 1090 572 1055 q 448 1128 502 1126 q 358 1090 393 1126 q 320 1001 320 1055 q 358 911 320 947 l 358 911 l 358 911 q 448 873 393 873 m 448 808 l 448 808 l 127 808 q 38 770 73 808 q 0 681 3 735 q 38 591 3 627 q 127 553 73 556 l 127 553 l 448 553 q 537 591 502 556 q 575 681 572 627 q 537 770 572 735 l 537 770 l 537 770 q 448 808 502 808 m 960 681 l 960 681 l 960 553 l 960 553 l 1088 553 q 1177 591 1142 556 q 1215 681 1213 627 q 1177 770 1213 735 q 1088 808 1142 808 q 998 770 1034 808 l 998 770 l 998 770 q 960 681 960 735 m 895 681 l 895 681 l 895 1001 q 857 1090 895 1055 q 768 1128 822 1126 q 678 1090 713 1126 q 640 1001 643 1055 l 640 1001 l 640 681 q 678 591 643 627 q 768 553 713 556 q 857 591 822 556 l 857 591 l 857 591 q 895 681 895 627 m 768 168 l 768 168 l 640 168 l 640 168 l 640 41 q 678 -49 643 -14 q 768 -87 713 -84 q 857 -49 822 -84 q 895 41 895 -14 q 857 130 895 95 l 857 130 l 857 130 q 768 168 822 168 m 768 233 l 768 233 l 1088 233 q 1177 271 1142 233 q 1215 361 1213 307 q 1177 450 1213 415 q 1088 488 1142 486 l 1088 488 l 768 488 q 678 450 713 486 q 640 361 643 415 q 678 271 643 307 l 678 271 l 678 271 q 768 233 713 233 "},"":{"ha":1215,"x_min":0,"x_max":1215,"o":"m 255 361 q 217 271 255 307 l 217 271 l 217 271 q 127 233 182 233 q 38 271 73 233 q 0 361 3 307 q 38 450 3 415 q 127 488 73 486 l 255 488 l 255 488 l 255 361 l 255 361 m 320 361 q 358 450 320 415 l 358 450 l 358 450 q 448 488 393 486 q 537 450 502 486 q 575 361 572 415 l 575 41 l 575 41 q 537 -49 572 -14 q 448 -87 502 -84 q 358 -49 393 -84 q 320 41 320 -14 l 320 361 l 320 361 m 448 873 q 358 911 393 873 l 358 911 l 358 911 q 320 1001 320 947 q 358 1090 320 1055 q 448 1128 393 1126 q 537 1090 502 1126 q 575 1001 572 1055 l 575 873 l 575 873 l 448 873 l 448 873 m 448 808 q 537 770 502 808 l 537 770 l 537 770 q 575 681 572 735 q 537 591 572 627 q 448 553 502 556 l 127 553 l 127 553 q 38 591 73 556 q 0 681 3 627 q 38 770 3 735 q 127 808 73 808 l 448 808 l 448 808 m 960 681 q 998 770 960 735 l 998 770 l 998 770 q 1088 808 1034 808 q 1177 770 1142 808 q 1215 681 1213 735 q 1177 591 1213 627 q 1088 553 1142 556 l 960 553 l 960 553 l 960 681 l 960 681 m 895 681 q 857 591 895 627 l 857 591 l 857 591 q 768 553 822 556 q 678 591 713 556 q 640 681 643 627 l 640 1001 l 640 1001 q 678 1090 643 1055 q 768 1128 713 1126 q 857 1090 822 1126 q 895 1001 895 1055 l 895 681 l 895 681 m 768 168 q 857 130 822 168 l 857 130 l 857 130 q 895 41 895 95 q 857 -49 895 -14 q 768 -87 822 -84 q 678 -49 713 -84 q 640 41 643 -14 l 640 168 l 640 168 l 768 168 l 768 168 m 768 233 q 678 271 713 233 l 678 271 l 678 271 q 640 361 643 307 q 678 450 643 415 q 768 488 713 486 l 1088 488 l 1088 488 q 1177 450 1142 486 q 1215 361 1213 415 q 1177 271 1213 307 q 1088 233 1142 233 l 768 233 l 768 233 "},"":{"ha":1389,"x_min":22,"x_max":1367,"o":"m 168 757 l 168 757 q 117 521 119 648 q 209 212 119 347 q 442 3 296 73 l 168 757 l 442 3 l 168 757 m 1085 551 l 1085 551 q 1047 382 1082 486 q 1042 363 1044 374 l 1042 363 l 982 171 l 982 171 l 776 792 q 841 798 833 795 q 863 822 863 803 q 836 844 860 844 q 836 844 836 844 q 781 841 833 844 q 684 838 732 838 q 586 841 635 838 q 532 844 534 844 q 505 822 507 844 q 526 798 505 800 q 589 792 534 795 l 589 792 l 678 545 l 678 545 l 551 165 l 551 165 l 342 792 q 407 798 399 795 q 429 822 429 803 q 404 844 426 844 q 404 844 404 844 q 347 841 399 844 q 250 838 298 838 q 212 838 233 838 q 418 1028 290 958 q 694 1099 543 1096 q 1085 947 925 1093 q 1082 947 1085 947 q 1077 947 1080 947 q 1006 917 1034 947 q 979 844 979 887 q 1031 719 985 781 q 1036 708 1034 713 q 1085 551 1077 654 m 705 469 l 705 469 l 882 -16 q 887 -24 884 -19 q 694 -57 795 -57 q 532 -33 610 -57 l 705 469 l 532 -33 l 705 469 m 1202 798 l 1202 798 q 1272 521 1270 673 q 1194 228 1270 358 q 985 22 1115 98 l 985 22 l 1161 532 q 1204 738 1207 654 q 1202 798 1204 770 m 1367 521 l 1367 521 q 1275 860 1364 708 q 1034 1101 1185 1012 q 694 1194 882 1191 q 355 1101 507 1191 q 114 860 203 1012 q 22 521 24 708 q 114 182 24 334 q 355 -60 203 30 q 694 -152 507 -149 q 1034 -60 882 -149 l 1034 -60 l 1034 -60 q 1275 182 1185 30 l 1275 182 l 1275 182 q 1367 521 1364 334 m 1337 521 l 1337 521 q 1248 198 1335 342 q 1017 -33 1164 52 q 694 -122 873 -119 q 372 -33 515 -119 q 141 198 225 52 q 52 521 54 342 q 141 844 54 700 q 372 1074 225 990 q 694 1164 515 1161 q 1017 1074 873 1161 l 1017 1074 l 1017 1074 q 1248 844 1164 990 l 1248 844 l 1248 844 q 1337 521 1335 700 "},"":{"ha":1215,"x_min":0,"x_max":1215,"o":"m 738 43 l 735 43 l 735 1085 l 735 1085 l 551 996 l 551 996 l 551 73 q 290 171 391 95 q 184 353 187 247 q 279 526 187 453 q 521 627 372 600 l 521 627 l 521 743 q 149 608 293 713 q 0 353 5 499 q 160 90 5 198 q 553 -43 312 -19 l 738 43 l 553 -43 l 738 43 m 1215 426 l 1215 426 l 1191 689 l 1191 689 l 1096 637 q 770 743 960 719 l 770 743 l 770 627 q 960 559 879 608 l 960 559 l 860 502 l 1215 426 l 860 502 l 1215 426 "},"":{"ha":1389,"x_min":41,"x_max":1354,"o":"m 608 833 l 860 833 l 477 -87 l 477 -87 l 222 -87 l 222 -87 l 328 157 l 328 157 l 41 833 l 41 833 l 301 833 l 301 833 l 453 445 l 608 833 l 453 445 l 608 833 m 892 464 l 892 464 q 1004 418 958 464 q 1050 307 1050 372 q 952 160 1047 203 q 781 195 857 125 q 746 366 711 271 q 892 464 789 458 m 1072 1128 l 1354 1128 l 1101 524 l 1101 524 l 819 524 l 1072 1128 l 819 524 l 1072 1128 "},"":{"ha":1324,"x_min":0,"x_max":1324,"o":"m 1324 505 l 1324 505 q 1313 618 1324 570 l 1313 618 l 673 618 l 673 618 l 673 385 l 673 385 l 1055 385 q 1009 266 1047 334 q 887 149 968 201 q 673 95 806 98 q 377 220 496 100 q 255 521 260 339 q 380 825 263 711 q 656 944 499 936 q 941 841 814 955 l 941 841 l 1123 1017 q 673 1194 947 1188 q 334 1101 486 1191 q 92 860 182 1012 q 0 521 3 708 q 92 182 3 334 q 334 -60 182 30 q 673 -152 486 -149 q 1145 33 968 -146 l 1145 33 l 1145 33 q 1324 505 1318 212 "},"":{"ha":1389,"x_min":0,"x_max":1389,"o":"m 0 521 l 0 521 q 54 250 0 377 q 203 30 109 125 l 203 30 l 71 -103 q 62 -149 52 -125 q 100 -174 73 -171 l 100 -174 l 694 -174 q 1044 -79 890 -171 q 1294 171 1202 14 q 1389 521 1386 326 q 1294 871 1386 716 q 1044 1120 1202 1028 q 694 1215 890 1213 q 345 1120 499 1213 l 345 1120 l 345 1120 q 95 871 187 1028 l 95 871 l 95 871 q 0 521 3 716 m 949 798 l 949 800 q 876 825 906 800 q 836 887 846 849 l 836 887 l 836 887 q 751 844 784 879 q 719 751 719 806 l 719 751 l 719 751 q 990 673 873 743 q 1088 708 1031 705 q 1202 659 1156 705 q 1251 545 1248 613 q 1158 399 1245 442 q 1020 157 1150 252 q 694 57 890 62 q 372 157 502 62 q 233 399 241 252 q 138 545 144 442 q 187 659 141 613 q 301 708 233 705 q 399 673 358 705 q 667 751 513 743 l 667 751 l 667 751 q 716 876 670 827 q 836 939 762 928 q 873 1004 844 979 q 949 1031 906 1028 q 1031 996 998 1028 q 1063 914 1063 963 q 1031 833 1063 865 l 1031 833 l 1031 833 q 949 798 998 800 m 480 545 l 480 545 q 420 515 445 545 q 393 442 396 486 q 415 377 393 399 q 475 358 439 358 q 559 439 548 355 q 537 515 559 483 l 537 515 l 537 515 q 480 545 515 545 m 996 442 l 996 442 q 968 515 993 488 q 909 545 944 545 q 852 515 873 545 q 833 439 830 486 q 914 358 841 355 q 974 377 949 358 l 974 377 l 974 377 q 996 442 998 399 m 865 288 l 865 288 q 854 307 868 301 q 694 312 779 312 q 534 307 610 312 q 524 288 521 301 q 591 206 545 236 q 694 174 635 176 q 798 206 754 176 l 798 206 l 798 206 q 865 288 844 236 "},"":{"ha":1215,"x_min":0,"x_max":1215,"o":"m 174 1128 l 174 1128 q 52 1077 100 1126 q 0 955 3 1028 l 0 955 l 0 87 q 52 -35 3 14 q 174 -87 100 -84 l 174 -87 l 1042 -87 q 1164 -35 1115 -84 q 1215 87 1213 14 l 1215 87 l 1215 955 q 1164 1077 1213 1028 q 1042 1128 1115 1126 l 174 1128 l 1042 1128 l 174 1128 m 830 765 l 830 762 q 730 841 751 768 l 730 841 l 730 841 q 656 800 686 833 q 629 722 629 768 l 629 722 l 629 722 q 865 654 765 716 q 952 684 903 681 q 1053 640 1012 681 q 1093 540 1093 602 q 1012 412 1090 450 q 892 201 1004 285 q 608 114 779 119 q 323 201 437 119 q 203 412 212 285 q 122 540 125 450 q 163 640 122 602 q 263 684 203 681 q 350 654 312 681 q 583 722 448 716 l 583 722 l 583 722 q 627 833 586 787 q 730 884 667 876 q 830 966 751 960 q 901 936 873 966 q 930 865 930 909 q 901 795 930 822 l 901 795 l 901 795 q 830 765 873 765 m 420 543 l 420 543 q 369 515 391 540 q 345 450 347 491 q 418 380 350 377 q 488 448 480 374 q 469 515 488 488 l 469 515 l 469 515 q 420 543 450 543 m 871 450 l 871 450 q 849 515 868 491 q 795 543 827 543 q 746 515 765 543 q 727 450 727 488 q 800 380 735 374 q 871 450 868 377 m 757 317 l 757 317 q 749 331 760 328 q 608 339 684 339 q 467 331 534 339 q 458 317 456 328 q 608 217 502 222 q 757 317 716 222 "},"":{"ha":1345,"x_min":22,"x_max":1367,"o":"m 694 1194 l 694 1194 q 1034 1101 882 1191 q 1275 860 1185 1012 q 1367 521 1364 708 q 1275 182 1364 334 q 1034 -60 1185 30 q 694 -152 882 -149 q 355 -60 507 -149 q 114 182 203 30 q 22 521 24 334 q 114 860 24 708 l 114 860 l 114 860 q 355 1101 203 1012 l 355 1101 l 355 1101 q 694 1194 507 1191 m 694 711 l 694 711 q 743 665 738 708 l 743 665 l 743 608 l 743 608 l 806 581 l 806 581 l 898 608 l 898 608 l 898 670 q 838 811 895 754 q 694 868 779 865 q 551 811 610 865 q 491 673 494 757 l 491 673 l 491 377 q 442 331 488 334 q 396 377 399 334 l 396 377 l 396 502 l 396 502 l 239 502 l 239 502 l 239 377 q 298 233 241 290 q 442 174 355 176 q 586 233 529 176 q 646 374 643 288 l 646 374 l 646 665 q 694 711 651 708 m 1150 377 l 1150 377 q 1150 393 1150 372 q 1150 502 1150 412 l 1150 502 l 993 502 l 993 502 l 993 372 q 947 326 990 328 q 898 372 901 328 l 898 372 l 898 499 l 898 499 l 806 472 l 806 472 l 743 502 l 743 502 l 743 374 q 803 233 746 290 q 947 174 860 176 q 1090 233 1034 176 l 1090 233 l 1090 233 q 1150 377 1147 290 "},"":{"ha":1389,"x_min":0,"x_max":1364,"o":"m 1364 494 l 1364 494 l 1131 494 l 1131 494 l 1131 298 q 1109 247 1131 269 q 1058 225 1090 228 q 987 298 993 233 l 987 298 l 987 491 l 987 491 l 846 448 l 846 448 l 754 491 l 754 491 l 754 301 q 844 87 757 174 q 1061 0 930 3 q 1275 90 1188 3 q 1364 304 1362 176 l 1364 494 l 1364 304 l 1364 494 m 754 651 l 754 651 l 754 735 q 732 787 754 765 q 684 808 713 808 q 632 787 651 808 q 610 735 610 765 l 610 735 l 610 301 q 521 87 608 174 q 304 0 434 3 q 90 90 176 3 q 0 304 3 176 l 0 304 l 0 494 l 0 494 l 233 494 l 233 494 l 233 307 q 307 236 239 241 q 377 307 372 241 l 377 307 l 377 749 q 469 955 382 873 q 684 1042 556 1039 q 895 955 811 1039 q 987 746 982 873 l 987 746 l 987 648 l 987 648 l 849 608 l 754 651 l 849 608 l 754 651 "},"":{"ha":1215,"x_min":0,"x_max":1215,"o":"m 1213 1031 l 1213 1031 q 1215 998 1215 1015 l 1215 998 l 1215 43 q 1177 -49 1215 -11 q 1085 -87 1139 -87 l 1085 -87 l 130 -87 q 98 -84 114 -87 q 43 -54 65 -76 q 35 -43 38 -49 q 5 11 14 -22 q 0 43 0 27 l 0 43 l 0 998 q 38 1090 3 1053 q 130 1128 76 1126 l 130 1128 l 1085 1128 q 1118 1123 1101 1128 q 1131 1120 1126 1123 q 1147 1112 1139 1118 q 1158 1107 1153 1109 q 1158 1107 1158 1107 q 1166 1099 1164 1104 q 1185 1080 1177 1090 q 1199 1063 1194 1072 q 1207 1042 1204 1053 q 1210 1036 1207 1039 l 1210 1036 l 1210 1036 q 1213 1031 1210 1034 m 1128 43 l 1128 521 l 608 521 l 608 521 l 608 1042 l 608 1042 l 130 1042 q 87 998 90 1039 l 87 998 l 87 521 l 87 521 l 608 521 l 608 521 l 608 0 l 608 0 l 1085 0 q 1128 43 1126 3 "},"":{"ha":1389,"x_min":0,"x_max":1389,"o":"m 222 749 l 222 749 l 222 955 l 222 955 l 361 955 l 361 955 l 361 274 l 361 274 l 0 274 l 0 274 l 0 749 l 222 749 l 0 749 l 222 749 m 222 385 l 222 385 l 222 637 l 222 637 l 138 637 l 138 637 l 138 385 l 222 385 l 138 385 l 222 385 m 1028 749 l 1028 749 l 1389 749 l 1389 749 l 1389 87 l 1389 87 l 1028 87 l 1028 87 l 1028 198 l 1028 198 l 1251 198 l 1251 198 l 1251 274 l 1251 274 l 1028 274 l 1028 749 l 1028 274 l 1028 749 m 1251 385 l 1251 385 l 1251 637 l 1251 637 l 1166 637 l 1166 637 l 1166 385 l 1251 385 l 1166 385 l 1251 385 m 610 274 l 610 274 l 610 749 l 610 749 l 971 749 l 971 749 l 971 87 l 971 87 l 610 87 l 610 87 l 610 198 l 610 198 l 833 198 l 833 198 l 833 274 l 610 274 l 833 274 l 610 274 m 749 637 l 749 637 l 749 385 l 749 385 l 833 385 l 833 385 l 833 637 l 749 637 l 833 637 l 749 637 m 415 955 l 415 955 l 415 817 l 415 817 l 556 817 l 556 817 l 556 955 l 415 955 l 556 955 l 415 955 m 415 749 l 415 749 l 415 274 l 415 274 l 556 274 l 556 274 l 556 749 l 415 749 l 556 749 l 415 749 "},"":{"ha":1215,"x_min":0,"x_max":1215,"o":"m 556 741 l 556 741 q 532 814 556 784 q 472 844 507 844 q 423 833 442 844 l 423 833 l 423 648 q 472 637 442 637 q 532 667 507 640 l 532 667 l 532 667 q 556 741 556 697 m 700 559 l 700 559 q 760 529 735 559 q 787 456 784 502 q 760 385 784 412 q 700 353 735 355 q 654 363 670 353 l 654 363 l 654 548 q 700 559 670 559 m 1215 998 l 1215 998 q 1177 1090 1213 1053 q 1085 1128 1139 1126 l 1085 1128 l 130 1128 q 38 1090 76 1126 q 0 998 3 1053 l 0 998 l 0 43 q 38 -49 3 -11 q 130 -87 76 -84 l 130 -87 l 1085 -87 q 1177 -49 1139 -84 q 1215 43 1213 -11 l 1215 998 l 1215 43 l 1215 998 m 502 524 l 502 524 q 426 537 458 524 l 426 537 l 426 399 l 426 399 l 285 372 l 285 372 l 285 930 l 285 930 l 407 930 q 502 955 453 955 q 643 892 589 952 q 703 738 700 830 q 643 586 700 648 l 643 586 l 643 586 q 502 524 589 526 m 930 456 l 930 456 q 873 301 930 363 q 730 239 817 241 q 654 252 689 239 l 654 252 l 654 114 l 654 114 l 513 87 l 513 87 l 513 510 q 654 578 594 515 q 705 670 689 618 q 732 670 719 670 q 873 608 817 667 l 873 608 l 873 608 q 930 456 930 545 "},"":{"ha":1563,"x_min":19,"x_max":1544,"o":"m 662 548 l 586 532 l 583 545 q 608 551 594 548 q 635 556 621 556 q 662 548 648 556 m 1031 11 l 1031 11 q 1072 -38 1047 8 q 1112 -122 1096 -84 q 1120 -138 1118 -133 q 833 -165 977 -193 l 833 -165 l 814 -43 q 920 -5 852 -22 l 920 -5 l 920 -5 q 1031 11 987 11 m 925 735 l 925 735 q 819 741 903 743 q 656 708 732 741 q 727 768 678 751 q 857 873 808 806 q 887 906 871 890 q 911 876 903 892 q 971 844 925 844 l 971 844 l 971 784 l 971 784 l 990 784 q 1278 930 1145 838 q 1400 1044 1364 996 q 1478 1166 1438 1090 q 1500 1202 1489 1183 l 1500 1202 l 1506 1210 q 1470 1101 1500 1153 q 1072 784 1348 846 q 1039 779 1055 781 q 971 760 1001 776 q 993 722 977 738 q 1006 697 1006 708 q 987 675 1001 684 q 987 675 987 675 q 977 689 979 681 l 977 689 l 977 689 q 925 735 944 727 m 1508 1215 l 1506 1213 l 1506 1210 l 1506 1210 l 1506 1213 l 1508 1215 l 1506 1213 l 1508 1215 m 1345 179 l 1345 179 q 1432 65 1386 114 q 1533 -30 1478 19 q 1544 -38 1538 -33 q 1354 -127 1454 -90 q 1264 -165 1308 -146 q 1194 -46 1218 -125 q 1158 127 1172 35 q 1101 353 1139 255 q 960 458 1061 453 q 949 456 952 456 q 947 453 949 453 q 958 442 952 448 q 958 442 958 442 q 977 429 968 434 q 1031 372 1015 399 q 1053 282 1050 345 l 1053 282 l 1053 258 q 1034 122 1053 190 q 1025 84 1031 103 q 947 79 985 84 q 817 76 882 62 q 814 127 814 92 q 817 190 814 165 q 854 233 822 206 q 906 307 898 274 q 871 288 884 309 q 787 212 841 247 q 678 176 730 176 q 627 214 659 176 q 562 298 597 252 q 472 407 510 374 q 456 426 461 415 q 450 431 453 429 q 331 404 423 426 q 155 363 241 382 q 52 345 68 345 q 19 374 22 347 q 43 404 19 399 l 43 404 l 423 488 q 426 526 407 515 q 464 540 442 537 q 480 543 475 540 q 491 548 486 545 q 507 553 499 553 q 543 515 534 545 q 562 518 548 515 q 629 534 591 526 q 678 543 667 543 q 711 515 708 540 q 686 483 711 491 l 686 483 l 543 450 l 543 450 l 543 439 q 575 385 545 423 q 640 312 605 345 q 686 277 675 277 q 781 339 730 282 q 836 439 833 396 q 814 483 836 472 q 770 496 795 494 q 722 529 724 496 q 727 556 722 543 l 727 556 l 675 572 q 705 708 722 629 q 817 719 760 719 q 930 705 906 722 q 971 635 958 686 q 996 572 979 610 l 996 572 l 1034 591 q 1009 540 1031 551 q 968 526 987 529 q 939 507 939 526 l 939 507 l 939 491 q 1185 396 1090 491 l 1185 396 l 1185 396 q 1345 179 1280 301 m 814 54 l 838 54 l 846 -11 l 846 -11 l 814 -19 l 814 54 l 814 -19 l 814 54 m 627 461 l 665 472 l 751 334 l 751 334 l 692 296 l 627 461 l 692 296 l 627 461 m 857 41 l 857 41 q 911 49 887 46 q 1017 60 952 57 q 1020 54 1017 57 q 1020 46 1020 52 q 968 24 1017 33 q 882 11 920 16 q 863 8 868 8 l 857 41 l 863 8 l 857 41 "}}}
